<?xml version="1.0" encoding="UTF-8" standalone="no"?>
<svg
   width="2977.2px"
   height="4208.4px"
   viewBox="0 0 2977.2 4208.4"
   version="1.2"
   id="svg217"
   sodipodi:docname="Metric Cycle v3.svg"
   inkscape:version="1.4 (e7c3feb1, 2024-10-09)"
   xmlns:inkscape="http://www.inkscape.org/namespaces/inkscape"
   xmlns:sodipodi="http://sodipodi.sourceforge.net/DTD/sodipodi-0.dtd"
   xmlns="http://www.w3.org/2000/svg"
   xmlns:svg="http://www.w3.org/2000/svg">
  <defs
     id="defs217" />
  <sodipodi:namedview
     id="namedview217"
     pagecolor="#ffffff"
     bordercolor="#000000"
     borderopacity="0.25"
     inkscape:showpageshadow="2"
     inkscape:pageopacity="0.0"
     inkscape:pagecheckerboard="0"
     inkscape:deskcolor="#d1d1d1"
     inkscape:zoom="0.41172645"
     inkscape:cx="982.44843"
     inkscape:cy="1213.1841"
     inkscape:window-width="1512"
     inkscape:window-height="916"
     inkscape:window-x="0"
     inkscape:window-y="38"
     inkscape:window-maximized="1"
     inkscape:current-layer="layer4"
     showguides="false">
    <sodipodi:guide
       position="399.07901,3574.1524"
       orientation="1,0"
       id="guide217"
       inkscape:locked="false" />
    <sodipodi:guide
       position="597.92001,2879.6532"
       orientation="1,0"
       id="guide218"
       inkscape:locked="false" />
    <sodipodi:guide
       position="794.67201,3053.3504"
       orientation="1,0"
       id="guide222"
       inkscape:locked="false" />
    <sodipodi:guide
       position="992.46802,3053.3504"
       orientation="1,0"
       id="guide223"
       inkscape:locked="false" />
    <sodipodi:guide
       position="1190.26,3053.3504"
       orientation="1,0"
       id="guide224"
       inkscape:locked="false" />
    <sodipodi:guide
       position="1388.06,3053.3504"
       orientation="1,0"
       id="guide225"
       inkscape:locked="false" />
    <sodipodi:guide
       position="694.824,2532.6"
       orientation="1,0"
       id="guide226"
       inkscape:locked="false" />
    <sodipodi:guide
       position="894.521,2532.6"
       orientation="1,0"
       id="guide227"
       inkscape:locked="false" />
    <sodipodi:guide
       position="498.92801,2532.8044"
       orientation="1,0"
       id="guide228"
       inkscape:locked="false" />
    <sodipodi:guide
       position="1091.364,2532.6"
       orientation="1,0"
       id="guide229"
       inkscape:locked="false" />
  </sodipodi:namedview>
  <title
     id="title1">Metric Cycle v3</title>
  <desc
     id="desc1">Generated by MuseScore Studio 4.4.4</desc>
  <polyline
     class="StaffLines"
     fill="none"
     stroke="#000000"
     stroke-width="2.73"
     stroke-linejoin="bevel"
     points="212.598,2196.6 2640.6,2196.6"
     id="polyline10"
     transform="translate(0,700)" />
  <polyline
     class="StaffLines"
     fill="none"
     stroke="#000000"
     stroke-width="2.73"
     stroke-linejoin="bevel"
     points="212.598,2717.4 2640.6,2717.4"
     id="polyline13"
     transform="translate(0,340)" />
  <polyline
     class="StaffLines"
     fill="none"
     stroke="#000000"
     stroke-width="2.73"
     stroke-linejoin="bevel"
     points="212.598,3389.34 422.797,3389.34"
     id="polyline16" />
  <polyline
     class="StaffLines"
     fill="none"
     stroke="#000000"
     stroke-width="2.73"
     stroke-linejoin="bevel"
     points="546.797,3389.34 756.996,3389.34"
     id="polyline17" />
  <polyline
     class="StaffLines"
     fill="none"
     stroke="#000000"
     stroke-width="2.73"
     stroke-linejoin="bevel"
     points="212.598,3714.08 2764.6,3714.08"
     id="polyline18" />
  <path
     class="Text"
     d="M1200.12,214.257 L1171.74,214.257 L1171.74,219.427 L1173.83,219.427 C1180.1,219.537 1182.19,219.867 1182.96,220.967 C1183.73,221.957 1183.73,222.067 1183.73,227.787 L1183.73,269.917 C1183.73,284.877 1181.64,287.957 1170.97,288.507 L1170.97,293.677 L1202.32,293.677 L1202.32,288.507 C1191.76,287.957 1189.67,284.877 1189.67,269.917 L1189.67,221.297 L1215.85,293.677 L1220.25,293.677 L1244.78,221.297 L1244.78,280.147 C1244.78,285.757 1244.78,285.977 1244.12,287.077 C1243.24,288.177 1241.15,288.507 1234.88,288.507 L1232.9,288.507 L1232.9,293.677 L1268.98,293.677 L1268.98,288.507 L1267,288.507 C1260.73,288.507 1258.64,288.177 1257.76,287.077 C1257.1,285.977 1257.1,285.867 1257.1,280.147 L1257.1,227.787 C1257.1,222.177 1257.1,221.957 1257.76,220.967 C1258.64,219.867 1260.73,219.537 1267,219.427 L1268.98,219.427 L1268.98,214.257 L1241.37,214.257 L1221.24,272.887 L1200.12,214.257 M1323.53,268.927 C1323.64,252.427 1314.29,240.767 1300.87,240.767 C1286.79,240.767 1276.23,252.977 1276.23,269.477 C1276.23,284.987 1286.24,295.327 1301.09,295.327 C1311.65,295.327 1319.02,290.157 1323.53,279.707 L1319.68,277.617 C1315.17,286.087 1310.55,289.387 1303.18,289.387 C1297.57,289.387 1293.5,287.077 1290.64,282.127 C1288.66,278.827 1287.78,274.977 1287.89,268.927 L1323.53,268.927 M1288,264.197 C1288,256.497 1291.52,245.497 1300.76,245.497 C1307.36,245.497 1311.76,251.327 1311.76,260.237 C1311.76,263.317 1310.77,264.197 1307.25,264.197 L1288,264.197 M1346.52,242.417 L1346.52,220.637 L1342.01,220.637 C1340.91,234.937 1336.07,242.197 1327.16,242.857 L1327.16,247.147 L1336.18,247.147 L1336.18,275.197 C1336.18,282.897 1336.4,285.647 1337.5,288.177 C1339.26,292.797 1343.66,295.327 1350.04,295.327 C1359.94,295.327 1366.32,287.847 1366.32,276.187 C1366.32,275.527 1366.32,274.757 1366.21,273.657 L1361.59,273.657 C1361.26,283.557 1358.4,288.617 1353.01,288.617 C1350.48,288.617 1348.28,287.297 1347.51,285.427 C1346.85,283.887 1346.52,281.137 1346.52,277.177 L1346.52,247.147 L1362.69,247.147 L1362.69,242.417 L1346.52,242.417 M1389.74,242.417 L1370.27,243.627 L1370.27,248.357 L1374.78,248.357 C1378.96,248.467 1379.51,249.127 1379.51,253.857 L1379.51,285.317 C1379.4,286.967 1379.29,287.627 1378.85,288.177 C1378.08,289.167 1375.88,289.607 1371.15,289.717 L1370.71,289.717 L1370.71,293.677 L1400.08,293.677 L1400.08,289.717 L1398.1,289.717 C1390.73,289.497 1389.74,288.947 1389.74,284.987 L1389.74,279.047 C1389.85,260.567 1396.45,246.487 1405.03,246.047 C1403.49,247.807 1403.05,248.907 1403.05,250.997 C1403.05,254.517 1405.58,257.047 1409.1,257.047 C1413.17,257.047 1415.81,254.077 1415.81,249.677 C1415.81,244.287 1412.07,240.767 1406.24,240.767 C1399.31,240.767 1393.37,246.267 1389.74,256.057 L1389.74,242.417 M1436.46,215.027 C1432.94,215.027 1430.08,217.887 1430.08,221.407 C1430.08,224.927 1432.94,227.787 1436.35,227.787 C1439.98,227.787 1442.84,224.927 1442.84,221.407 C1442.84,217.887 1439.98,215.027 1436.46,215.027 M1441.63,242.417 L1420.95,243.627 L1420.95,248.357 L1426.56,248.357 C1430.74,248.467 1431.29,249.127 1431.29,253.857 L1431.29,285.317 C1431.18,286.967 1431.07,287.627 1430.63,288.177 C1429.86,289.167 1427.77,289.607 1423.04,289.717 L1422.27,289.717 L1422.27,293.677 L1450.76,293.677 L1450.76,289.717 L1449.99,289.717 C1442.62,289.497 1441.63,288.947 1441.63,284.987 L1441.63,242.417 M1496.18,277.507 C1492.66,285.427 1488.92,288.617 1483.2,288.617 C1474.4,288.617 1468.9,280.587 1468.9,267.717 C1468.9,254.297 1474.29,245.497 1482.43,245.497 C1485.73,245.497 1488.59,247.037 1488.59,248.797 C1488.59,249.127 1488.48,249.457 1487.93,250.117 C1486.17,252.207 1485.73,253.307 1485.73,255.177 C1485.73,258.807 1488.48,261.337 1492.33,261.337 C1496.29,261.337 1499.04,258.257 1499.04,253.857 C1499.04,246.377 1491.67,240.767 1481.88,240.767 C1467.58,240.767 1457.35,252.427 1457.35,268.927 C1457.35,284.547 1466.7,295.327 1480.34,295.327 C1490.13,295.327 1495.74,290.817 1500.47,279.157 L1496.18,277.507 M1603.31,213.487 L1599.13,213.487 L1594.73,219.977 C1586.7,214.147 1582.63,212.607 1575.04,212.607 C1564.59,212.607 1555.68,217.007 1548.31,225.807 C1541.27,234.167 1537.97,243.407 1537.97,254.737 C1537.97,278.497 1553.48,295.327 1575.15,295.327 C1592.75,295.327 1603.97,284.987 1606.5,266.507 L1601.33,265.627 C1598.36,282.017 1590,290.157 1576.47,290.157 C1560.19,290.157 1552.49,278.937 1552.49,255.177 C1552.49,242.637 1554.14,234.387 1557.88,227.787 C1561.29,221.627 1568,217.777 1575.15,217.777 C1582.85,217.777 1589.67,221.847 1593.85,228.887 C1595.94,232.517 1597.48,236.587 1600.12,245.277 L1604.96,245.277 L1603.31,213.487 M1645.3,279.707 L1633.2,251.437 C1632.76,250.337 1632.54,249.787 1632.54,249.237 C1632.54,247.147 1633.86,246.377 1637.6,246.377 L1639.91,246.377 L1639.91,242.417 L1613.73,242.417 L1613.73,246.377 L1614.94,246.377 C1618.68,246.487 1620.11,247.587 1622.42,252.317 L1640.35,292.907 L1638.48,296.757 C1634.52,305.117 1629.35,310.947 1625.83,310.947 C1624.84,310.947 1624.07,310.507 1624.07,309.847 C1624.07,309.627 1624.18,309.297 1624.29,308.857 C1624.62,307.867 1624.84,306.877 1624.84,305.997 C1624.84,303.137 1622.53,301.047 1619.23,301.047 C1615.38,301.047 1612.63,303.907 1612.63,307.867 C1612.63,312.817 1616.81,316.337 1622.64,316.337 C1628.47,316.337 1633.42,313.477 1637.82,307.537 C1641.23,303.027 1643.43,298.407 1648.27,286.417 L1660.81,255.287 C1663.34,248.907 1665.76,246.487 1670.05,246.377 L1670.71,246.377 L1670.71,242.417 L1648.71,242.417 L1648.71,246.377 L1650.47,246.377 C1654.65,246.377 1656.41,247.587 1656.41,250.447 C1656.41,251.657 1656.08,252.977 1655.31,254.847 L1645.3,279.707 M1710.84,277.507 C1707.32,285.427 1703.58,288.617 1697.86,288.617 C1689.06,288.617 1683.56,280.587 1683.56,267.717 C1683.56,254.297 1688.95,245.497 1697.09,245.497 C1700.39,245.497 1703.25,247.037 1703.25,248.797 C1703.25,249.127 1703.14,249.457 1702.59,250.117 C1700.83,252.207 1700.39,253.307 1700.39,255.177 C1700.39,258.807 1703.14,261.337 1706.99,261.337 C1710.95,261.337 1713.7,258.257 1713.7,253.857 C1713.7,246.377 1706.33,240.767 1696.54,240.767 C1682.24,240.767 1672.01,252.427 1672.01,268.927 C1672.01,284.547 1681.36,295.327 1695,295.327 C1704.79,295.327 1710.4,290.817 1715.13,279.157 L1710.84,277.507 M1737.88,212.607 L1717.53,213.817 L1717.53,218.547 L1722.92,218.547 C1726.99,218.657 1727.54,219.317 1727.54,224.047 L1727.54,285.317 C1727.43,286.967 1727.32,287.627 1726.88,288.177 C1726.11,289.167 1724.02,289.607 1719.29,289.717 L1718.52,289.717 L1718.52,293.677 L1747.01,293.677 L1747.01,289.717 L1746.24,289.717 C1738.87,289.497 1737.88,288.947 1737.88,284.987 L1737.88,212.607 M1801.23,268.927 C1801.34,252.427 1791.99,240.767 1778.57,240.767 C1764.49,240.767 1753.93,252.977 1753.93,269.477 C1753.93,284.987 1763.94,295.327 1778.79,295.327 C1789.35,295.327 1796.72,290.157 1801.23,279.707 L1797.38,277.617 C1792.87,286.087 1788.25,289.387 1780.88,289.387 C1775.27,289.387 1771.2,287.077 1768.34,282.127 C1766.36,278.827 1765.48,274.977 1765.59,268.927 L1801.23,268.927 M1765.7,264.197 C1765.7,256.497 1769.22,245.497 1778.46,245.497 C1785.06,245.497 1789.46,251.327 1789.46,260.237 C1789.46,263.317 1788.47,264.197 1784.95,264.197 L1765.7,264.197 "
     id="path18" />
  <polyline
     class="BarLine"
     fill="none"
     stroke="#000000"
     stroke-width="4.46"
     stroke-linejoin="bevel"
     points="2638.37,2666.43 2638.37,2768.36"
     id="polyline21"
     transform="translate(0,340)" />
  <polyline
     class="BarLine"
     fill="none"
     stroke="#000000"
     stroke-width="4.46"
     stroke-linejoin="bevel"
     points="2390.31,3663.12 2390.31,3765.04"
     id="polyline22" />
  <polyline
     class="BarLine"
     fill="none"
     stroke="#000000"
     stroke-width="4.46"
     stroke-linejoin="bevel"
     points="2041.07,3663.12 2041.07,3765.04"
     id="polyline24" />
  <polyline
     class="BarLine"
     fill="none"
     stroke="#000000"
     stroke-width="4.46"
     stroke-linejoin="bevel"
     points="1691.83,3663.12 1691.83,3765.04"
     id="polyline26" />
  <polyline
     class="BarLine"
     fill="none"
     stroke="#000000"
     stroke-width="4.46"
     stroke-linejoin="bevel"
     points="2739.55,3663.12 2739.55,3765.04"
     id="polyline27" />
  <polyline
     class="BarLine"
     fill="none"
     stroke="#000000"
     stroke-width="13.64"
     stroke-linejoin="bevel"
     points="2757.78,3663.12 2757.78,3765.04"
     id="polyline28" />
  <polyline
     class="BarLine"
     fill="none"
     stroke="#000000"
     stroke-width="4.46"
     stroke-linejoin="bevel"
     points="1342.59,3663.12 1342.59,3765.04"
     id="polyline29" />
  <polyline
     class="BarLine"
     fill="none"
     stroke="#000000"
     stroke-width="4.46"
     stroke-linejoin="bevel"
     points="993.353,3663.12 993.353,3765.04"
     id="polyline32" />
  <polyline
     class="BarLine"
     fill="none"
     stroke="#000000"
     stroke-width="4.46"
     stroke-linejoin="bevel"
     points="644.113,3663.12 644.113,3765.04"
     id="polyline35" />
  <polyline
     class="BarLine"
     fill="none"
     stroke="#000000"
     stroke-width="4.46"
     stroke-linejoin="bevel"
     points="754.764,3338.37 754.764,3440.3"
     id="polyline37" />
  <polyline
     class="BarLine"
     fill="none"
     stroke="#000000"
     stroke-width="4.46"
     stroke-linejoin="bevel"
     points="2638.37,2145.63 2638.37,2247.56"
     id="polyline38"
     transform="translate(0,700)" />
  <polyline
     class="BarLine"
     fill="none"
     stroke="#000000"
     stroke-width="4.46"
     stroke-linejoin="bevel"
     points="420.565,3338.37 420.565,3440.3"
     id="polyline39" />
  <path
     class="Clef"
     d="m 232.4876,3032.4016 c -0.6944,0 -1.2896,0.5952 -1.2896,1.2896 v 47.4176 c 0,0.6944 0.5952,1.2896 1.2896,1.2896 h 10.912 c 0.6944,0 1.2896,-0.5952 1.2896,-1.2896 v -47.4176 c 0,-0.6944 -0.5952,-1.2896 -1.2896,-1.2896 h -10.912 m 21.4272,0 c -0.6944,0 -1.2896,0.5952 -1.2896,1.2896 v 47.4176 c 0,0.6944 0.5952,1.2896 1.2896,1.2896 h 10.912 c 0.6944,0 1.2896,-0.5952 1.2896,-1.2896 v -47.4176 c 0,-0.6944 -0.5952,-1.2896 -1.2896,-1.2896 h -10.912"
     id="path154"
     style="stroke-width:0.992" />
  <path
     class="Clef"
     d="m 232.4876,2871.6016 c -0.6944,0 -1.2896,0.5952 -1.2896,1.2896 v 47.4176 c 0,0.6944 0.5952,1.2896 1.2896,1.2896 h 10.912 c 0.6944,0 1.2896,-0.5952 1.2896,-1.2896 v -47.4176 c 0,-0.6944 -0.5952,-1.2896 -1.2896,-1.2896 h -10.912 m 21.4272,0 c -0.6944,0 -1.2896,0.5952 -1.2896,1.2896 v 47.4176 c 0,0.6944 0.5952,1.2896 1.2896,1.2896 h 10.912 c 0.6944,0 1.2896,-0.5952 1.2896,-1.2896 v -47.4176 c 0,-0.6944 -0.5952,-1.2896 -1.2896,-1.2896 h -10.912"
     id="path157"
     style="stroke-width:0.992" />
  <path
     class="Clef"
     transform="matrix(0.992,0,0,0.992,565.397,3389.34)"
     d="M1.3,-25.2 C0.6,-25.2 0,-24.6 0,-23.9 L0,23.9 C0,24.6 0.6,25.2 1.3,25.2 L12.3,25.2 C13,25.2 13.6,24.6 13.6,23.9 L13.6,-23.9 C13.6,-24.6 13,-25.2 12.3,-25.2 L1.3,-25.2 M22.9,-25.2 C22.2,-25.2 21.6,-24.6 21.6,-23.9 L21.6,23.9 C21.6,24.6 22.2,25.2 22.9,25.2 L33.9,25.2 C34.6,25.2 35.2,24.6 35.2,23.9 L35.2,-23.9 C35.2,-24.6 34.6,-25.2 33.9,-25.2 L22.9,-25.2 "
     id="path163" />
  <path
     class="Clef"
     transform="matrix(0.992,0,0,0.992,231.198,3714.08)"
     d="M1.3,-25.2 C0.6,-25.2 0,-24.6 0,-23.9 L0,23.9 C0,24.6 0.6,25.2 1.3,25.2 L12.3,25.2 C13,25.2 13.6,24.6 13.6,23.9 L13.6,-23.9 C13.6,-24.6 13,-25.2 12.3,-25.2 L1.3,-25.2 M22.9,-25.2 C22.2,-25.2 21.6,-24.6 21.6,-23.9 L21.6,23.9 C21.6,24.6 22.2,25.2 22.9,25.2 L33.9,25.2 C34.6,25.2 35.2,24.6 35.2,23.9 L35.2,-23.9 C35.2,-24.6 34.6,-25.2 33.9,-25.2 L22.9,-25.2 "
     id="path167" />
  <path
     class="Clef"
     transform="matrix(0.992,0,0,0.992,231.198,3389.34)"
     d="M1.3,-25.2 C0.6,-25.2 0,-24.6 0,-23.9 L0,23.9 C0,24.6 0.6,25.2 1.3,25.2 L12.3,25.2 C13,25.2 13.6,24.6 13.6,23.9 L13.6,-23.9 C13.6,-24.6 13,-25.2 12.3,-25.2 L1.3,-25.2 M22.9,-25.2 C22.2,-25.2 21.6,-24.6 21.6,-23.9 L21.6,23.9 C21.6,24.6 22.2,25.2 22.9,25.2 L33.9,25.2 C34.6,25.2 35.2,24.6 35.2,23.9 L35.2,-23.9 C35.2,-24.6 34.6,-25.2 33.9,-25.2 L22.9,-25.2 "
     id="path168" />
  <path
     class="TimeSig"
     d="m 310.1586,2884.3984 v 7.3408 h -8.2336 c -0.6944,0 -1.3888,0.5952 -1.3888,1.3888 v 1.8848 c 0,0.7936 0.6944,1.3888 1.3888,1.3888 h 30.0576 c 0.7936,0 1.3888,-0.5952 1.3888,-1.3888 v -1.8848 c 0,-0.7936 -0.5952,-1.3888 -1.3888,-1.3888 h -8.8288 v -7.3408 h 8.8288 c 0.7936,0 1.3888,-0.6944 1.3888,-1.488 v -1.8848 c 0,-0.6944 -0.5952,-1.3888 -1.3888,-1.3888 h -8.8288 v -15.7728 c 0,-0.5952 -0.2976,-1.0912 -0.7936,-1.2896 l -1.1904,-0.5952 c -0.1984,-0.099 -0.496,-0.1984 -0.6944,-0.1984 -0.2976,0.099 -0.6944,0.1984 -0.8928,0.3968 l -9.0272,8.2336 c -0.2976,0.2976 -0.3968,0.6944 -0.3968,1.0912 v 8.1344 h -11.408 c 0,0 11.0112,-11.904 22.7168,-27.5776 0.3968,-0.496 0.496,-0.992 0.496,-1.3888 0,-0.496 -0.1984,-0.8928 -0.2976,-0.992 l -2.1824,-2.1824 c -0.1984,-0.1984 -0.5952,-0.3968 -0.992,-0.3968 -0.5952,0 -13.9872,0 -14.6816,0 -0.7936,0 -1.2896,0.5952 -1.3888,1.1904 0,0 -0.496,7.3408 -3.0752,15.376 -2.5792,8.0352 -5.5552,12.9952 -8.1344,16.6656 0,0 -0.2976,0.496 -0.2976,1.0912 0,0.1984 0,0.3968 0.0992,0.5952 0.3968,0.6944 0.992,1.7856 0.992,1.7856 0,0 0.1984,0.5952 1.0912,0.5952 h 17.0624"
     id="path185"
     style="stroke-width:0.992" />
  <path
     class="TimeSig"
     d="m 310.1586,2933.9984 v 7.3408 h -8.2336 c -0.6944,0 -1.3888,0.5952 -1.3888,1.3888 v 1.8848 c 0,0.7936 0.6944,1.3888 1.3888,1.3888 h 30.0576 c 0.7936,0 1.3888,-0.5952 1.3888,-1.3888 v -1.8848 c 0,-0.7936 -0.5952,-1.3888 -1.3888,-1.3888 h -8.8288 v -7.3408 h 8.8288 c 0.7936,0 1.3888,-0.6944 1.3888,-1.488 v -1.8848 c 0,-0.6944 -0.5952,-1.3888 -1.3888,-1.3888 h -8.8288 v -15.7728 c 0,-0.5952 -0.2976,-1.0912 -0.7936,-1.2896 l -1.1904,-0.5952 c -0.1984,-0.099 -0.496,-0.1984 -0.6944,-0.1984 -0.2976,0.099 -0.6944,0.1984 -0.8928,0.3968 l -9.0272,8.2336 c -0.2976,0.2976 -0.3968,0.6944 -0.3968,1.0912 v 8.1344 h -11.408 c 0,0 11.0112,-11.904 22.7168,-27.5776 0.3968,-0.496 0.496,-0.992 0.496,-1.3888 0,-0.496 -0.1984,-0.8928 -0.2976,-0.992 l -2.1824,-2.1824 c -0.1984,-0.1984 -0.5952,-0.3968 -0.992,-0.3968 -0.5952,0 -13.9872,0 -14.6816,0 -0.7936,0 -1.2896,0.5952 -1.3888,1.1904 0,0 -0.496,7.3408 -3.0752,15.376 -2.5792,8.0352 -5.5552,12.9952 -8.1344,16.6656 0,0 -0.2976,0.496 -0.2976,1.0912 0,0.1984 0,0.3968 0.0992,0.5952 0.3968,0.6944 0.992,1.7856 0.992,1.7856 0,0 0.1984,0.5952 1.0912,0.5952 h 17.0624"
     id="path186"
     style="stroke-width:0.992" />
  <path
     class="Rest"
     transform="matrix(0.992,0,0,0.992,326.106,3389.34)"
     d="M1.4,-0.5 C0.6,-0.5 0,0.1 0,0.9 L0,11.7 C0,12.5 0.6,13.1 1.4,13.1 L31.1,13.1 C31.9,13.1 32.5,12.5 32.5,11.7 L32.5,0.9 C32.5,0.1 31.9,-0.5 31.1,-0.5 L1.4,-0.5 "
     id="path192" />
  <path
     class="Rest"
     transform="matrix(0.992,0,0,0.992,2548.82,3714.08)"
     d="M1.4,-0.5 C0.6,-0.5 0,0.1 0,0.9 L0,11.7 C0,12.5 0.6,13.1 1.4,13.1 L31.1,13.1 C31.9,13.1 32.5,12.5 32.5,11.7 L32.5,0.9 C32.5,0.1 31.9,-0.5 31.1,-0.5 L1.4,-0.5 "
     id="path193" />
  <path
     class="Rest"
     transform="matrix(0.992,0,0,0.992,2199.58,3714.08)"
     d="M1.4,-0.5 C0.6,-0.5 0,0.1 0,0.9 L0,11.7 C0,12.5 0.6,13.1 1.4,13.1 L31.1,13.1 C31.9,13.1 32.5,12.5 32.5,11.7 L32.5,0.9 C32.5,0.1 31.9,-0.5 31.1,-0.5 L1.4,-0.5 "
     id="path196" />
  <path
     class="Rest"
     transform="matrix(0.992,0,0,0.992,660.305,3389.34)"
     d="M1.4,-0.5 C0.6,-0.5 0,0.1 0,0.9 L0,11.7 C0,12.5 0.6,13.1 1.4,13.1 L31.1,13.1 C31.9,13.1 32.5,12.5 32.5,11.7 L32.5,0.9 C32.5,0.1 31.9,-0.5 31.1,-0.5 L1.4,-0.5 "
     id="path198" />
  <path
     class="Rest"
     transform="matrix(0.992,0,0,0.992,1850.34,3714.08)"
     d="M1.4,-0.5 C0.6,-0.5 0,0.1 0,0.9 L0,11.7 C0,12.5 0.6,13.1 1.4,13.1 L31.1,13.1 C31.9,13.1 32.5,12.5 32.5,11.7 L32.5,0.9 C32.5,0.1 31.9,-0.5 31.1,-0.5 L1.4,-0.5 "
     id="path199" />
  <path
     class="Rest"
     transform="matrix(0.992,0,0,0.992,1501.1,3714.08)"
     d="M1.4,-0.5 C0.6,-0.5 0,0.1 0,0.9 L0,11.7 C0,12.5 0.6,13.1 1.4,13.1 L31.1,13.1 C31.9,13.1 32.5,12.5 32.5,11.7 L32.5,0.9 C32.5,0.1 31.9,-0.5 31.1,-0.5 L1.4,-0.5 "
     id="path201" />
  <path
     class="Rest"
     transform="matrix(0.992,0,0,0.992,1151.86,3714.08)"
     d="M1.4,-0.5 C0.6,-0.5 0,0.1 0,0.9 L0,11.7 C0,12.5 0.6,13.1 1.4,13.1 L31.1,13.1 C31.9,13.1 32.5,12.5 32.5,11.7 L32.5,0.9 C32.5,0.1 31.9,-0.5 31.1,-0.5 L1.4,-0.5 "
     id="path203" />
  <path
     class="Rest"
     transform="matrix(0.992,0,0,0.992,437.88,3714.08)"
     d="M1.4,-0.5 C0.6,-0.5 0,0.1 0,0.9 L0,11.7 C0,12.5 0.6,13.1 1.4,13.1 L31.1,13.1 C31.9,13.1 32.5,12.5 32.5,11.7 L32.5,0.9 C32.5,0.1 31.9,-0.5 31.1,-0.5 L1.4,-0.5 "
     id="path204" />
  <path
     class="MeasureRepeat"
     transform="matrix(0.992,0,0,0.992,794.878,3714.03)"
     d="M48.1,-25 L35.5,-25 L0,25 L12.6,25 L48.1,-25 M12.7,-12.5 C12.7,-16 9.8,-18.8 6.4,-18.8 C2.9,-18.8 0.1,-16 0.1,-12.5 C0.1,-9 2.9,-6.2 6.4,-6.2 C9.8,-6.2 12.7,-9 12.7,-12.5 M48.1,12.6 C48.1,9.1 45.2,6.3 41.8,6.3 C38.3,6.3 35.5,9.1 35.5,12.6 C35.5,16.1 38.3,18.9 41.8,18.9 C45.2,18.9 48.1,16.1 48.1,12.6"
     id="path205" />
  <g
     inkscape:groupmode="layer"
     id="layer4"
     inkscape:label="Layer 2">
    <path
       style="fill:none;stroke:#808080;stroke-width:5;stroke-dasharray:10, 20;stroke-dashoffset:0"
       d="M 797.17199,525.7287 V 2131.4713"
       id="path220"
       inkscape:export-filename="metricCycle_a.pdf"
       inkscape:export-xdpi="96"
       inkscape:export-ydpi="96" />
    <path
       style="fill:none;stroke:#808080;stroke-width:3;stroke-dasharray:6,12;stroke-dashoffset:0"
       d="M 995.17199,525.7287 V 2131.4713"
       id="path1"
       inkscape:export-filename="metricCycle_a.pdf"
       inkscape:export-xdpi="96"
       inkscape:export-ydpi="96" />
    <path
       style="fill:none;stroke:#808080;stroke-width:3;stroke-dasharray:6,12;stroke-dashoffset:0"
       d="M 599.17199,525.7287 V 2131.4713"
       id="path2"
       inkscape:export-filename="metricCycle_a.pdf"
       inkscape:export-xdpi="96"
       inkscape:export-ydpi="96" />
    <path
       style="fill:none;stroke:#808080;stroke-width:2;stroke-dasharray:4,8;stroke-dashoffset:0"
       d="M 697.17199,525.7287 V 2131.4713"
       id="path3"
       inkscape:export-filename="metricCycle_a.pdf"
       inkscape:export-xdpi="96"
       inkscape:export-ydpi="96" />
    <path
       style="fill:none;stroke:#808080;stroke-width:2;stroke-dasharray:4, 8;stroke-dashoffset:0"
       d="M 1193.172,525.7287 V 2131.4713"
       id="path4"
       inkscape:export-filename="metricCycle_a.pdf"
       inkscape:export-xdpi="96"
       inkscape:export-ydpi="96" />
  </g>
  <g
     inkscape:groupmode="layer"
     id="layer3"
     inkscape:label="Layer 1">
    <polyline
       class="StaffLines"
       fill="none"
       stroke="#000000"
       stroke-width="2.73"
       stroke-linejoin="bevel"
       points="212.598,634.198 780.602,634.198"
       id="polyline1"
       inkscape:export-filename="metricCycle_a.pdf"
       inkscape:export-xdpi="96"
       inkscape:export-ydpi="96" />
    <polyline
       class="StaffLines"
       fill="none"
       stroke="#000000"
       stroke-width="2.73"
       stroke-linejoin="bevel"
       points="212.598,807.798 979.002,807.798"
       id="polyline2" />
    <polyline
       class="StaffLines"
       fill="none"
       stroke="#000000"
       stroke-width="2.73"
       stroke-linejoin="bevel"
       points="212.598,981.398 1177.4,981.398"
       id="polyline3" />
    <polyline
       class="StaffLines"
       fill="none"
       stroke="#000000"
       stroke-width="2.73"
       stroke-linejoin="bevel"
       points="212.598,1155 1574.2,1155"
       id="polyline4" />
    <polyline
       class="StaffLines"
       fill="none"
       stroke="#000000"
       stroke-width="2.73"
       stroke-linejoin="bevel"
       points="212.598,1328.6 979.002,1328.6"
       id="polyline5" />
    <polyline
       class="StaffLines"
       fill="none"
       stroke="#000000"
       stroke-width="2.73"
       stroke-linejoin="bevel"
       points="212.598,1502.2 1276.6,1502.2"
       id="polyline6" />
    <polyline
       class="StaffLines"
       fill="none"
       stroke="#000000"
       stroke-width="2.73"
       stroke-linejoin="bevel"
       points="212.598,1675.8 1576.68,1675.8"
       id="polyline7" />
    <polyline
       class="StaffLines"
       fill="none"
       stroke="#000000"
       stroke-width="2.73"
       stroke-linejoin="bevel"
       points="212.598,1849.4 1375.8,1849.4"
       id="polyline8" />
    <polyline
       class="StaffLines"
       fill="none"
       stroke="#000000"
       stroke-width="2.73"
       stroke-linejoin="bevel"
       points="212.598,2023 1073.24,2023"
       id="polyline9" />
    <polyline
       class="BarLine"
       fill="none"
       stroke="#000000"
       stroke-width="4.46"
       stroke-linejoin="bevel"
       points="1571.97,1104.03 1571.97,1205.96"
       id="polyline20" />
    <polyline
       class="BarLine"
       fill="none"
       stroke="#000000"
       stroke-width="4.46"
       stroke-linejoin="bevel"
       points="976.77,1277.63 976.77,1379.56"
       id="polyline23" />
    <polyline
       class="BarLine"
       fill="none"
       stroke="#000000"
       stroke-width="4.46"
       stroke-linejoin="bevel"
       points="1274.37,1451.23 1274.37,1553.16"
       id="polyline25" />
    <polyline
       class="BarLine"
       fill="none"
       stroke="#000000"
       stroke-width="4.46"
       stroke-linejoin="bevel"
       points="1574.45,1624.83 1574.45,1726.76"
       id="polyline30" />
    <polyline
       class="BarLine"
       fill="none"
       stroke="#000000"
       stroke-width="4.46"
       stroke-linejoin="bevel"
       points="778.37,583.234 778.37,685.162"
       id="polyline31" />
    <polyline
       class="BarLine"
       fill="none"
       stroke="#000000"
       stroke-width="4.46"
       stroke-linejoin="bevel"
       points="1175.17,930.434 1175.17,1032.36"
       id="polyline33" />
    <polyline
       class="BarLine"
       fill="none"
       stroke="#000000"
       stroke-width="4.46"
       stroke-linejoin="bevel"
       points="1373.57,1798.43 1373.57,1900.36"
       id="polyline34" />
    <polyline
       class="BarLine"
       fill="none"
       stroke="#000000"
       stroke-width="4.46"
       stroke-linejoin="bevel"
       points="1071.01,1972.03 1071.01,2073.96"
       id="polyline36" />
    <polyline
       class="BarLine"
       fill="none"
       stroke="#000000"
       stroke-width="4.46"
       stroke-linejoin="bevel"
       points="976.77,756.834 976.77,858.762"
       id="polyline44" />
    <polyline
       class="Stem"
       fill="none"
       stroke="#000000"
       stroke-width="2.48"
       stroke-linejoin="bevel"
       points="1103.96,1671.83 1103.96,1613.8"
       id="polyline45"
       transform="translate(2.274,-0.0496)" />
    <polyline
       class="Stem"
       fill="none"
       stroke="#000000"
       stroke-width="2.48"
       stroke-linejoin="bevel"
       points="1203.78,1498.23 1203.78,1440.2"
       id="polyline46"
       transform="translate(1.3499764,-0.0496)" />
    <polyline
       class="Stem"
       fill="none"
       stroke="#000000"
       stroke-width="2.48"
       stroke-linejoin="bevel"
       points="1006.97,1845.43 1006.97,1787.4"
       id="polyline47"
       transform="translate(0.36200035,-0.0496)" />
    <polyline
       class="Stem"
       fill="none"
       stroke="#000000"
       stroke-width="2.48"
       stroke-linejoin="bevel"
       points="1007.33,1151.03 1007.33,1093"
       id="polyline48"
       transform="translate(3.523827e-7,-0.0496)" />
    <polyline
       class="Stem"
       fill="none"
       stroke="#000000"
       stroke-width="2.48"
       stroke-linejoin="bevel"
       points="413.943,630.23 413.943,572.198"
       id="polyline49" />
    <polyline
       class="Stem"
       fill="none"
       stroke="#000000"
       stroke-width="2.48"
       stroke-linejoin="bevel"
       points="1205.13,1151.03 1205.13,1093"
       id="polyline50"
       transform="translate(-2.3570579e-5,-3.7191111e-5)" />
    <polyline
       class="Stem"
       fill="none"
       stroke="#000000"
       stroke-width="2.48"
       stroke-linejoin="bevel"
       points="1402.93,1151.03 1402.93,1093"
       id="polyline52" />
    <polyline
       class="Stem"
       fill="none"
       stroke="#000000"
       stroke-width="2.48"
       stroke-linejoin="bevel"
       points="413.943,803.83 413.943,745.798"
       id="polyline53"
       transform="translate(0,0.0496)" />
    <polyline
       class="Stem"
       fill="none"
       stroke="#000000"
       stroke-width="2.48"
       stroke-linejoin="bevel"
       points="413.943,977.43 413.943,919.398"
       id="polyline56"
       transform="translate(0,-0.248)" />
    <polyline
       class="Stem"
       fill="none"
       stroke="#000000"
       stroke-width="2.48"
       stroke-linejoin="bevel"
       points="611.74,1151.03 611.74,1093"
       id="polyline57"
       transform="translate(1.045)" />
    <polyline
       class="Stem"
       fill="none"
       stroke="#000000"
       stroke-width="2.48"
       stroke-linejoin="bevel"
       points="808.933,977.43 808.933,919.398"
       id="polyline59"
       transform="translate(0.60399427,-0.0496)" />
    <polyline
       class="Stem"
       fill="none"
       stroke="#000000"
       stroke-width="2.48"
       stroke-linejoin="bevel"
       points="1001.08,2019.03 1001.08,1961"
       id="polyline60"
       transform="translate(6.2510004,-0.0496)" />
    <polyline
       class="Stem"
       fill="none"
       stroke="#000000"
       stroke-width="2.48"
       stroke-linejoin="bevel"
       points="408.999,1324.63 408.999,1266.6"
       id="polyline61"
       transform="translate(4.945,0.0972)" />
    <polyline
       class="Stem"
       fill="none"
       stroke="#000000"
       stroke-width="2.48"
       stroke-linejoin="bevel"
       points="902.401,2019.03 902.401,1961"
       id="polyline62"
       transform="translate(6.9839827,-0.0496)" />
    <polyline
       class="Stem"
       fill="none"
       stroke="#000000"
       stroke-width="2.48"
       stroke-linejoin="bevel"
       points="803.721,2019.03 803.721,1961"
       id="polyline63"
       transform="translate(5.8159943,-0.0496)" />
    <polyline
       class="Stem"
       fill="none"
       stroke="#000000"
       stroke-width="2.48"
       stroke-linejoin="bevel"
       points="508.419,1324.63 508.419,1266.6"
       id="polyline64"
       transform="translate(5.3730001,-0.0496)" />
    <polyline
       class="Stem"
       fill="none"
       stroke="#000000"
       stroke-width="2.48"
       stroke-linejoin="bevel"
       points="705.04,2019.03 705.04,1961"
       id="polyline65"
       transform="translate(5.8159943,-0.0496)" />
    <polyline
       class="Stem"
       fill="none"
       stroke="#000000"
       stroke-width="2.48"
       stroke-linejoin="bevel"
       points="607.84,1324.63 607.84,1266.6"
       id="polyline66"
       transform="translate(4.945,0.0972)" />
    <polyline
       class="Stem"
       fill="none"
       stroke="#000000"
       stroke-width="2.48"
       stroke-linejoin="bevel"
       points="606.36,2019.03 606.36,1961"
       id="polyline67"
       transform="translate(6.4249982,-0.0496)" />
    <polyline
       class="Stem"
       fill="none"
       stroke="#000000"
       stroke-width="2.48"
       stroke-linejoin="bevel"
       points="707.26,1324.63 707.26,1266.6"
       id="polyline68"
       transform="translate(2.4279905,-0.0496)" />
    <polyline
       class="Stem"
       fill="none"
       stroke="#000000"
       stroke-width="2.48"
       stroke-linejoin="bevel"
       points="507.679,2019.03 507.679,1961"
       id="polyline69"
       transform="translate(6.1130001,-0.0496)" />
    <polyline
       class="Stem"
       fill="none"
       stroke="#000000"
       stroke-width="2.48"
       stroke-linejoin="bevel"
       points="408.999,2019.03 408.999,1961"
       id="polyline70"
       transform="translate(4.945,0.0972)" />
    <polyline
       class="Stem"
       fill="none"
       stroke="#000000"
       stroke-width="2.48"
       stroke-linejoin="bevel"
       points="806.681,1324.63 806.681,1266.6"
       id="polyline71"
       transform="translate(2.8549943,-0.0496)" />
    <polyline
       class="Stem"
       fill="none"
       stroke="#000000"
       stroke-width="2.48"
       stroke-linejoin="bevel"
       points="1006.43,977.43 1006.43,919.398"
       id="polyline72"
       transform="translate(0.90500035,-0.0496)" />
    <polyline
       class="Stem"
       fill="none"
       stroke="#000000"
       stroke-width="2.48"
       stroke-linejoin="bevel"
       points="906.102,1324.63 906.102,1266.6"
       id="polyline73"
       transform="translate(3.2839866,-0.0496)" />
    <polyline
       class="Stem"
       fill="none"
       stroke="#000000"
       stroke-width="2.48"
       stroke-linejoin="bevel"
       points="809.536,1151.03 809.536,1093"
       id="polyline74" />
    <polyline
       class="Stem"
       fill="none"
       stroke="#000000"
       stroke-width="2.48"
       stroke-linejoin="bevel"
       points="1204.65,1845.43 1204.65,1787.4"
       id="polyline75"
       transform="translate(0.47997639,-0.0496)" />
    <polyline
       class="Stem"
       fill="none"
       stroke="#000000"
       stroke-width="2.48"
       stroke-linejoin="bevel"
       points="809.295,1845.43 809.295,1787.4"
       id="polyline76"
       transform="translate(0.24199427,-0.0496)" />
    <polyline
       class="Stem"
       fill="none"
       stroke="#000000"
       stroke-width="2.48"
       stroke-linejoin="bevel"
       points="611.619,1845.43 611.619,1787.4"
       id="polyline77"
       transform="translate(1.1649982,-0.0496)" />
    <polyline
       class="Stem"
       fill="none"
       stroke="#000000"
       stroke-width="2.48"
       stroke-linejoin="bevel"
       points="413.943,1151.03 413.943,1093"
       id="polyline78"
       transform="translate(0,0.0496)" />
    <polyline
       class="Stem"
       fill="none"
       stroke="#000000"
       stroke-width="2.48"
       stroke-linejoin="bevel"
       points="413.943,1845.43 413.943,1787.4"
       id="polyline79"
       transform="translate(0,0.0496)" />
    <polyline
       class="Stem"
       fill="none"
       stroke="#000000"
       stroke-width="2.48"
       stroke-linejoin="bevel"
       points="1503.35,1671.83 1503.35,1613.8"
       id="polyline80"
       transform="translate(-0.58002748,-0.0496)" />
    <polyline
       class="Stem"
       fill="none"
       stroke="#000000"
       stroke-width="2.48"
       stroke-linejoin="bevel"
       points="1403.5,1671.83 1403.5,1613.8"
       id="polyline81"
       transform="translate(-0.58002748,-0.0496)" />
    <polyline
       class="Stem"
       fill="none"
       stroke="#000000"
       stroke-width="2.48"
       stroke-linejoin="bevel"
       points="408.999,1498.23 408.999,1440.2"
       id="polyline82"
       transform="translate(4.945,0.0972)" />
    <polyline
       class="Stem"
       fill="none"
       stroke="#000000"
       stroke-width="2.48"
       stroke-linejoin="bevel"
       points="1303.66,1671.83 1303.66,1613.8"
       id="polyline83"
       transform="translate(-0.58002748,-0.0496)" />
    <polyline
       class="Stem"
       fill="none"
       stroke="#000000"
       stroke-width="2.48"
       stroke-linejoin="bevel"
       points="1203.81,1671.83 1203.81,1613.8"
       id="polyline84"
       transform="translate(1.3199282,-0.0496)" />
    <polyline
       class="Stem"
       fill="none"
       stroke="#000000"
       stroke-width="2.48"
       stroke-linejoin="bevel"
       points="508.346,1498.23 508.346,1440.2"
       id="polyline85"
       transform="translate(5.4470001,-0.0496)" />
    <polyline
       class="Stem"
       fill="none"
       stroke="#000000"
       stroke-width="2.48"
       stroke-linejoin="bevel"
       points="1004.11,1671.83 1004.11,1613.8"
       id="polyline86"
       transform="translate(3.2240004,-0.0496)" />
    <polyline
       class="Stem"
       fill="none"
       stroke="#000000"
       stroke-width="2.48"
       stroke-linejoin="bevel"
       points="607.693,1498.23 607.693,1440.2"
       id="polyline87"
       transform="translate(5.0919982,-0.0496)" />
    <polyline
       class="Stem"
       fill="none"
       stroke="#000000"
       stroke-width="2.48"
       stroke-linejoin="bevel"
       points="904.26,1671.83 904.26,1613.8"
       id="polyline88"
       transform="translate(5.1259943,-0.0496)" />
    <polyline
       class="Stem"
       fill="none"
       stroke="#000000"
       stroke-width="2.48"
       stroke-linejoin="bevel"
       points="707.04,1498.23 707.04,1440.2"
       id="polyline89"
       transform="translate(2.6489905,-0.0496)" />
    <polyline
       class="Stem"
       fill="none"
       stroke="#000000"
       stroke-width="2.48"
       stroke-linejoin="bevel"
       points="804.411,1671.83 804.411,1613.8"
       id="polyline90"
       transform="translate(5.1259943,-0.0496)" />
    <polyline
       class="Stem"
       fill="none"
       stroke="#000000"
       stroke-width="2.48"
       stroke-linejoin="bevel"
       points="704.562,1671.83 704.562,1613.8"
       id="polyline91"
       transform="translate(5.1259943,-0.0496)" />
    <polyline
       class="Stem"
       fill="none"
       stroke="#000000"
       stroke-width="2.48"
       stroke-linejoin="bevel"
       points="806.387,1498.23 806.387,1440.2"
       id="polyline92"
       transform="translate(3.1499943,-0.0496)" />
    <polyline
       class="Stem"
       fill="none"
       stroke="#000000"
       stroke-width="2.48"
       stroke-linejoin="bevel"
       points="604.713,1671.83 604.713,1613.8"
       id="polyline93"
       transform="translate(8.0709982,-0.0496)" />
    <polyline
       class="Stem"
       fill="none"
       stroke="#000000"
       stroke-width="2.48"
       stroke-linejoin="bevel"
       points="905.734,1498.23 905.734,1440.2"
       id="polyline94"
       transform="translate(3.6509866,-0.0496)" />
    <polyline
       class="Stem"
       fill="none"
       stroke="#000000"
       stroke-width="2.48"
       stroke-linejoin="bevel"
       points="504.864,1671.83 504.864,1613.8"
       id="polyline95"
       transform="translate(8.928,-0.254)" />
    <polyline
       class="Stem"
       fill="none"
       stroke="#000000"
       stroke-width="2.48"
       stroke-linejoin="bevel"
       points="1005.08,1498.23 1005.08,1440.2"
       id="polyline96"
       transform="translate(2.2510004,-0.0496)" />
    <polyline
       class="Stem"
       fill="none"
       stroke="#000000"
       stroke-width="2.48"
       stroke-linejoin="bevel"
       points="405.015,1671.83 405.015,1613.8"
       id="polyline97"
       transform="translate(8.928,-0.254)" />
    <polyline
       class="Stem"
       fill="none"
       stroke="#000000"
       stroke-width="2.48"
       stroke-linejoin="bevel"
       points="1104.43,1498.23 1104.43,1440.2"
       id="polyline98"
       transform="translate(1.8040023,-0.0496)" />
    <path
       class="Note"
       transform="matrix(0.992,0,0,0.992,778.552,1155)"
       d="m 0,4.2 c 0,4.3 3.1,9.1 11.2,9.1 10.4,0 21.3,-8.5 21.3,-17.3 0,-5.9 -5,-9.2 -11.2,-9.2 C 11.6,-13.2 0,-5 0,4.2"
       id="path98" />
    <path
       class="Note"
       d="m 878.40098,1332.7168 c 0,4.2656 3.0752,9.0272 11.1104,9.0272 10.3168,0 21.1296,-8.432 21.1296,-17.1616 0,-5.8528 -4.96,-9.1264 -11.1104,-9.1264 -9.6224,0 -21.1296,8.1344 -21.1296,17.2608"
       id="path99"
       style="stroke-width:0.992" />
    <path
       class="Note"
       d="m 976.348,2027.1168 c 0,4.2656 3.0752,9.0272 11.1104,9.0272 10.3168,0 21.1296,-8.432 21.1296,-17.1616 0,-5.8528 -4.96,-9.1264 -11.1104,-9.1264 -9.6224,0 -21.1296,8.1344 -21.1296,17.2608"
       id="path100"
       style="stroke-width:0.992" />
    <path
       class="Note"
       d="m 1174.14,1506.3168 c 0,4.2656 3.0752,9.0272 11.1104,9.0272 10.3168,0 21.1296,-8.432 21.1296,-17.1616 0,-5.8528 -4.96,-9.1264 -11.1104,-9.1264 -9.6224,0 -21.1296,8.1344 -21.1296,17.2608"
       id="path101"
       style="stroke-width:0.992" />
    <path
       class="Note"
       d="m 976.348,1159.1168 c 0,4.2656 3.0752,9.0272 11.1104,9.0272 10.3168,0 21.1296,-8.432 21.1296,-17.1616 0,-5.8528 -4.96,-9.1264 -11.1104,-9.1264 -9.6224,0 -21.1296,8.1344 -21.1296,17.2608"
       id="path102"
       style="stroke-width:0.992" />
    <path
       class="Note"
       transform="matrix(0.992,0,0,0.992,382.959,634.198)"
       d="m 0,4.2 c 0,4.3 3.1,9.1 11.2,9.1 10.4,0 21.3,-8.5 21.3,-17.3 0,-5.9 -5,-9.2 -11.2,-9.2 C 11.6,-13.2 0,-5 0,4.2"
       id="path103" />
    <path
       class="Note"
       d="m 1174.14,1159.1664 c 0,4.2656 3.0752,9.0272 11.1104,9.0272 10.3168,0 21.1296,-8.432 21.1296,-17.1616 0,-5.8528 -4.96,-9.1264 -11.1104,-9.1264 -9.6224,0 -21.1296,8.1344 -21.1296,17.2608"
       id="path104"
       style="stroke-width:0.992" />
    <g
       id="g221"
       transform="translate(2.2519982,-0.0496)">
      <polyline
         class="Stem"
         fill="none"
         stroke="#000000"
         stroke-width="2.48"
         stroke-linejoin="bevel"
         points="610.533,630.23 610.533,572.198"
         id="polyline51" />
      <path
         class="Note"
         d="m 0,4.2 c 0,4.3 3.1,9.1 11.2,9.1 10.4,0 21.3,-8.5 21.3,-17.3 0,-5.9 -5,-9.2 -11.2,-9.2 C 11.6,-13.2 0,-5 0,4.2"
         id="path105"
         transform="matrix(0.992,0,0,0.992,579.548,634.198)" />
    </g>
    <path
       class="Note"
       transform="matrix(0.992,0,0,0.992,1371.94,1155)"
       d="m 0,4.2 c 0,4.3 3.1,9.1 11.2,9.1 10.4,0 21.3,-8.5 21.3,-17.3 0,-5.9 -5,-9.2 -11.2,-9.2 C 11.6,-13.2 0,-5 0,4.2"
       id="path106" />
    <path
       class="Note"
       d="m 382.959,812.014 c 0,4.2656 3.0752,9.0272 11.1104,9.0272 10.3168,0 21.1296,-8.432 21.1296,-17.1616 0,-5.8528 -4.96,-9.1264 -11.1104,-9.1264 -9.6224,0 -21.1296,8.1344 -21.1296,17.2608"
       id="path107"
       style="stroke-width:0.992" />
    <path
       class="Note"
       d="m 581.8,1159.1664 c 0,4.2656 3.0752,9.0272 11.1104,9.0272 10.3168,0 21.1296,-8.432 21.1296,-17.1616 0,-5.8528 -4.96,-9.1264 -11.1104,-9.1264 -9.6224,0 -21.1296,8.1344 -21.1296,17.2608"
       id="path108"
       style="stroke-width:0.992" />
    <path
       class="Note"
       d="m 976.348,1506.3168 c 0,4.2656 3.0752,9.0272 11.1104,9.0272 10.3168,0 21.1296,-8.432 21.1296,-17.1616 0,-5.8528 -4.96,-9.1264 -11.1104,-9.1264 -9.6224,0 -21.1296,8.1344 -21.1296,17.2608"
       id="path109"
       style="stroke-width:0.992" />
    <path
       class="Note"
       d="m 382.959,1679.7124 c 0,4.2656 3.0752,9.0272 11.1104,9.0272 10.3168,0 21.1296,-8.432 21.1296,-17.1616 0,-5.8528 -4.96,-9.1264 -11.1104,-9.1264 -9.6224,0 -21.1296,8.1344 -21.1296,17.2608"
       id="path110"
       style="stroke-width:0.992" />
    <g
       id="g220"
       transform="translate(0.11999817)">
      <polyline
         class="Stem"
         fill="none"
         stroke="#000000"
         stroke-width="2.48"
         stroke-linejoin="bevel"
         points="611.136,803.83 611.136,745.798"
         id="polyline54"
         transform="translate(1.528,-0.0496)" />
      <path
         class="Note"
         d="m 581.68,811.9148 c 0,4.2656 3.0752,9.0272 11.1104,9.0272 10.3168,0 21.1296,-8.432 21.1296,-17.1616 0,-5.8528 -4.96,-9.1264 -11.1104,-9.1264 -9.6224,0 -21.1296,8.1344 -21.1296,17.2608"
         id="path111"
         style="stroke-width:0.992" />
    </g>
    <path
       class="Note"
       d="m 878.40098,1506.3168 c 0,4.2656 3.0752,9.0272 11.1104,9.0272 10.3168,0 21.1296,-8.432 21.1296,-17.1616 0,-5.8528 -4.96,-9.1264 -11.1104,-9.1264 -9.6224,0 -21.1296,8.1344 -21.1296,17.2608"
       id="path112"
       style="stroke-width:0.992" />
    <path
       class="Note"
       d="m 482.808,1679.7124 c 0,4.2656 3.0752,9.0272 11.1104,9.0272 10.3168,0 21.1296,-8.432 21.1296,-17.1616 0,-5.8528 -4.96,-9.1264 -11.1104,-9.1264 -9.6224,0 -21.1296,8.1344 -21.1296,17.2608"
       id="path113"
       style="stroke-width:0.992" />
    <path
       class="Note"
       d="m 778.55199,1506.3168 c 0,4.2656 3.0752,9.0272 11.1104,9.0272 10.3168,0 21.1296,-8.432 21.1296,-17.1616 0,-5.8528 -4.96,-9.1264 -11.1104,-9.1264 -9.6224,0 -21.1296,8.1344 -21.1296,17.2608"
       id="path114"
       style="stroke-width:0.992" />
    <path
       class="Note"
       d="m 581.8,1679.9168 c 0,4.2656 3.0752,9.0272 11.1104,9.0272 10.3168,0 21.1296,-8.432 21.1296,-17.1616 0,-5.8528 -4.96,-9.1264 -11.1104,-9.1264 -9.6224,0 -21.1296,8.1344 -21.1296,17.2608"
       id="path115"
       style="stroke-width:0.992" />
    <g
       id="g222"
       transform="translate(1.2069943,-0.0496)">
      <polyline
         class="Stem"
         fill="none"
         stroke="#000000"
         stroke-width="2.48"
         stroke-linejoin="bevel"
         points="808.329,803.83 808.329,745.798"
         id="polyline55" />
      <path
         class="Note"
         transform="matrix(0.992,0,0,0.992,777.345,807.798)"
         d="m 0,4.2 c 0,4.3 3.1,9.1 11.2,9.1 10.4,0 21.3,-8.5 21.3,-17.3 0,-5.9 -5,-9.2 -11.2,-9.2 C 11.6,-13.2 0,-5 0,4.2"
         id="path116" />
    </g>
    <path
       class="Note"
       d="m 678.70399,1679.9168 c 0,4.2656 3.0752,9.0272 11.1104,9.0272 10.3168,0 21.1296,-8.432 21.1296,-17.1616 0,-5.8528 -4.96,-9.1264 -11.1104,-9.1264 -9.6224,0 -21.1296,8.1344 -21.1296,17.2608"
       id="path117"
       style="stroke-width:0.992" />
    <path
       class="Note"
       d="m 382.959,985.3164 c 0,4.2656 3.0752,9.0272 11.1104,9.0272 10.3168,0 21.1296,-8.432 21.1296,-17.1616 0,-5.8528 -4.96,-9.1264 -11.1104,-9.1264 -9.6224,0 -21.1296,8.1344 -21.1296,17.2608"
       id="path118"
       style="stroke-width:0.992" />
    <path
       class="Note"
       d="m 678.70399,1506.3168 c 0,4.2656 3.0752,9.0272 11.1104,9.0272 10.3168,0 21.1296,-8.432 21.1296,-17.1616 0,-5.8528 -4.96,-9.1264 -11.1104,-9.1264 -9.6224,0 -21.1296,8.1344 -21.1296,17.2608"
       id="path119"
       style="stroke-width:0.992" />
    <path
       class="Note"
       d="m 778.55199,1679.9168 c 0,4.2656 3.0752,9.0272 11.1104,9.0272 10.3168,0 21.1296,-8.432 21.1296,-17.1616 0,-5.8528 -4.96,-9.1264 -11.1104,-9.1264 -9.6224,0 -21.1296,8.1344 -21.1296,17.2608"
       id="path120"
       style="stroke-width:0.992" />
    <path
       class="Note"
       d="m 581.8,1506.3168 c 0,4.2656 3.0752,9.0272 11.1104,9.0272 10.3168,0 21.1296,-8.432 21.1296,-17.1616 0,-5.8528 -4.96,-9.1264 -11.1104,-9.1264 -9.6224,0 -21.1296,8.1344 -21.1296,17.2608"
       id="path121"
       style="stroke-width:0.992" />
    <path
       class="Note"
       d="m 878.40099,1679.9168 c 0,4.2656 3.0752,9.0272 11.1104,9.0272 10.3168,0 21.1296,-8.432 21.1296,-17.1616 0,-5.8528 -4.96,-9.1264 -11.1104,-9.1264 -9.6224,0 -21.1296,8.1344 -21.1296,17.2608"
       id="path122"
       style="stroke-width:0.992" />
    <path
       class="Note"
       d="m 482.808,1506.3168 c 0,4.2656 3.0752,9.0272 11.1104,9.0272 10.3168,0 21.1296,-8.432 21.1296,-17.1616 0,-5.8528 -4.96,-9.1264 -11.1104,-9.1264 -9.6224,0 -21.1296,8.1344 -21.1296,17.2608"
       id="path123"
       style="stroke-width:0.992" />
    <g
       id="g219"
       transform="translate(-0.12)">
      <polyline
         class="Stem"
         fill="none"
         stroke="#000000"
         stroke-width="2.48"
         stroke-linejoin="bevel"
         points="611.438,977.43 611.438,919.398"
         id="polyline58"
         transform="translate(1.346,-0.0496)" />
      <path
         class="Note"
         d="m 581.8,985.5148 c 0,4.2656 3.0752,9.0272 11.1104,9.0272 10.3168,0 21.1296,-8.432 21.1296,-17.1616 0,-5.8528 -4.96,-9.1264 -11.1104,-9.1264 -9.6224,0 -21.1296,8.1344 -21.1296,17.2608"
         id="path124"
         style="stroke-width:0.992" />
    </g>
    <path
       class="Note"
       d="m 1075.244,1506.3168 c 0,4.2656 3.0752,9.0272 11.1104,9.0272 10.3168,0 21.1296,-8.432 21.1296,-17.1616 0,-5.8528 -4.96,-9.1264 -11.1104,-9.1264 -9.6224,0 -21.1296,8.1344 -21.1296,17.2608"
       id="path125"
       style="stroke-width:0.992" />
    <path
       class="Note"
       d="m 976.348,1679.9168 c 0,4.2656 3.0752,9.0272 11.1104,9.0272 10.3168,0 21.1296,-8.432 21.1296,-17.1616 0,-5.8528 -4.96,-9.1264 -11.1104,-9.1264 -9.6224,0 -21.1296,8.1344 -21.1296,17.2608"
       id="path126"
       style="stroke-width:0.992" />
    <path
       class="Note"
       d="m 1075.244,1679.9168 c 0,4.2656 3.0752,9.0272 11.1104,9.0272 10.3168,0 21.1296,-8.432 21.1296,-17.1616 0,-5.8528 -4.96,-9.1264 -11.1104,-9.1264 -9.6224,0 -21.1296,8.1344 -21.1296,17.2608"
       id="path127"
       style="stroke-width:0.992" />
    <path
       class="Note"
       d="m 878.40098,2027.1168 c 0,4.2656 3.0752,9.0272 11.1104,9.0272 10.3168,0 21.1296,-8.432 21.1296,-17.1616 0,-5.8528 -4.96,-9.1264 -11.1104,-9.1264 -9.6224,0 -21.1296,8.1344 -21.1296,17.2608"
       id="path128"
       style="stroke-width:0.992" />
    <path
       class="Note"
       d="m 1174.14,1679.9168 c 0,4.2656 3.0752,9.0272 11.1104,9.0272 10.3168,0 21.1296,-8.432 21.1296,-17.1616 0,-5.8528 -4.96,-9.1264 -11.1104,-9.1264 -9.6224,0 -21.1296,8.1344 -21.1296,17.2608"
       id="path129"
       style="stroke-width:0.992" />
    <path
       class="Note"
       d="m 382.959,1506.4636 c 0,4.2656 3.0752,9.0272 11.1104,9.0272 10.3168,0 21.1296,-8.432 21.1296,-17.1616 0,-5.8528 -4.96,-9.1264 -11.1104,-9.1264 -9.6224,0 -21.1296,8.1344 -21.1296,17.2608"
       id="path130"
       style="stroke-width:0.992" />
    <path
       class="Note"
       d="m 1272.09,1679.9168 c 0,4.2656 3.0752,9.0272 11.1104,9.0272 10.3168,0 21.1296,-8.432 21.1296,-17.1616 0,-5.8528 -4.96,-9.1264 -11.1104,-9.1264 -9.6224,0 -21.1296,8.1344 -21.1296,17.2608"
       id="path131"
       style="stroke-width:0.992" />
    <path
       class="Note"
       d="m 382.959,1332.8636 c 0,4.2656 3.0752,9.0272 11.1104,9.0272 10.3168,0 21.1296,-8.432 21.1296,-17.1616 0,-5.8528 -4.96,-9.1264 -11.1104,-9.1264 -9.6224,0 -21.1296,8.1344 -21.1296,17.2608"
       id="path132"
       style="stroke-width:0.992" />
    <path
       class="Note"
       d="m 778.55199,2027.1168 c 0,4.2656 3.0752,9.0272 11.1104,9.0272 10.3168,0 21.1296,-8.432 21.1296,-17.1616 0,-5.8528 -4.96,-9.1264 -11.1104,-9.1264 -9.6224,0 -21.1296,8.1344 -21.1296,17.2608"
       id="path133"
       style="stroke-width:0.992" />
    <path
       class="Note"
       d="m 1371.94,1679.9168 c 0,4.2656 3.0752,9.0272 11.1104,9.0272 10.3168,0 21.1296,-8.432 21.1296,-17.1616 0,-5.8528 -4.96,-9.1264 -11.1104,-9.1264 -9.6224,0 -21.1296,8.1344 -21.1296,17.2608"
       id="path134"
       style="stroke-width:0.992" />
    <path
       class="Note"
       d="m 679.87199,2027.1168 c 0,4.2656 3.0752,9.0272 11.1104,9.0272 10.3168,0 21.1296,-8.432 21.1296,-17.1616 0,-5.8528 -4.96,-9.1264 -11.1104,-9.1264 -9.6224,0 -21.1296,8.1344 -21.1296,17.2608"
       id="path135"
       style="stroke-width:0.992" />
    <path
       class="Note"
       d="m 1471.79,1679.9168 c 0,4.2656 3.0752,9.0272 11.1104,9.0272 10.3168,0 21.1296,-8.432 21.1296,-17.1616 0,-5.8528 -4.96,-9.1264 -11.1104,-9.1264 -9.6224,0 -21.1296,8.1344 -21.1296,17.2608"
       id="path136"
       style="stroke-width:0.992" />
    <path
       class="Note"
       d="m 482.808,1332.7168 c 0,4.2656 3.0752,9.0272 11.1104,9.0272 10.3168,0 21.1296,-8.432 21.1296,-17.1616 0,-5.8528 -4.96,-9.1264 -11.1104,-9.1264 -9.6224,0 -21.1296,8.1344 -21.1296,17.2608"
       id="path137"
       style="stroke-width:0.992" />
    <path
       class="Note"
       d="m 581.8,2027.1168 c 0,4.2656 3.0752,9.0272 11.1104,9.0272 10.3168,0 21.1296,-8.432 21.1296,-17.1616 0,-5.8528 -4.96,-9.1264 -11.1104,-9.1264 -9.6224,0 -21.1296,8.1344 -21.1296,17.2608"
       id="path138"
       style="stroke-width:0.992" />
    <path
       class="Note"
       d="m 581.8,1332.8636 c 0,4.2656 3.0752,9.0272 11.1104,9.0272 10.3168,0 21.1296,-8.432 21.1296,-17.1616 0,-5.8528 -4.96,-9.1264 -11.1104,-9.1264 -9.6224,0 -21.1296,8.1344 -21.1296,17.2608"
       id="path139"
       style="stroke-width:0.992" />
    <path
       class="Note"
       d="m 976.348,985.5148 c 0,4.2656 3.0752,9.0272 11.1104,9.0272 10.3168,0 21.1296,-8.432 21.1296,-17.1616 0,-5.8528 -4.96,-9.1264 -11.1104,-9.1264 -9.6224,0 -21.1296,8.1344 -21.1296,17.2608"
       id="path140"
       style="stroke-width:0.992" />
    <path
       class="Note"
       d="m 482.808,2027.1168 c 0,4.2656 3.0752,9.0272 11.1104,9.0272 10.3168,0 21.1296,-8.432 21.1296,-17.1616 0,-5.8528 -4.96,-9.1264 -11.1104,-9.1264 -9.6224,0 -21.1296,8.1344 -21.1296,17.2608"
       id="path141"
       style="stroke-width:0.992" />
    <path
       class="Note"
       d="m 678.70399,1332.7168 c 0,4.2656 3.0752,9.0272 11.1104,9.0272 10.3168,0 21.1296,-8.432 21.1296,-17.1616 0,-5.8528 -4.96,-9.1264 -11.1104,-9.1264 -9.6224,0 -21.1296,8.1344 -21.1296,17.2608"
       id="path142"
       style="stroke-width:0.992" />
    <path
       class="Note"
       d="m 382.959,2027.2636 c 0,4.2656 3.0752,9.0272 11.1104,9.0272 10.3168,0 21.1296,-8.432 21.1296,-17.1616 0,-5.8528 -4.96,-9.1264 -11.1104,-9.1264 -9.6224,0 -21.1296,8.1344 -21.1296,17.2608"
       id="path143"
       style="stroke-width:0.992" />
    <path
       class="Note"
       d="m 778.55199,985.5148 c 0,4.2656 3.0752,9.0272 11.1104,9.0272 10.3168,0 21.1296,-8.432 21.1296,-17.1616 0,-5.8528 -4.96,-9.1264 -11.1104,-9.1264 -9.6224,0 -21.1296,8.1344 -21.1296,17.2608"
       id="path144"
       style="stroke-width:0.992" />
    <path
       class="Note"
       d="m 382.959,1853.616 c 0,4.2656 3.0752,9.0272 11.1104,9.0272 10.3168,0 21.1296,-8.432 21.1296,-17.1616 0,-5.8528 -4.96,-9.1264 -11.1104,-9.1264 -9.6224,0 -21.1296,8.1344 -21.1296,17.2608"
       id="path145"
       style="stroke-width:0.992" />
    <path
       class="Note"
       d="m 778.55199,1332.7168 c 0,4.2656 3.0752,9.0272 11.1104,9.0272 10.3168,0 21.1296,-8.432 21.1296,-17.1616 0,-5.8528 -4.96,-9.1264 -11.1104,-9.1264 -9.6224,0 -21.1296,8.1344 -21.1296,17.2608"
       id="path146"
       style="stroke-width:0.992" />
    <path
       class="Note"
       d="m 581.8,1853.5168 c 0,4.2656 3.0752,9.0272 11.1104,9.0272 10.3168,0 21.1296,-8.432 21.1296,-17.1616 0,-5.8528 -4.96,-9.1264 -11.1104,-9.1264 -9.6224,0 -21.1296,8.1344 -21.1296,17.2608"
       id="path147"
       style="stroke-width:0.992" />
    <path
       class="Note"
       d="m 1174.14,1853.5168 c 0,4.2656 3.0752,9.0272 11.1104,9.0272 10.3168,0 21.1296,-8.432 21.1296,-17.1616 0,-5.8528 -4.96,-9.1264 -11.1104,-9.1264 -9.6224,0 -21.1296,8.1344 -21.1296,17.2608"
       id="path148"
       style="stroke-width:0.992" />
    <path
       class="Note"
       d="m 778.55199,1853.5168 c 0,4.2656 3.0752,9.0272 11.1104,9.0272 10.3168,0 21.1296,-8.432 21.1296,-17.1616 0,-5.8528 -4.96,-9.1264 -11.1104,-9.1264 -9.6224,0 -21.1296,8.1344 -21.1296,17.2608"
       id="path149"
       style="stroke-width:0.992" />
    <path
       class="Note"
       d="m 382.959,1159.216 c 0,4.2656 3.0752,9.0272 11.1104,9.0272 10.3168,0 21.1296,-8.432 21.1296,-17.1616 0,-5.8528 -4.96,-9.1264 -11.1104,-9.1264 -9.6224,0 -21.1296,8.1344 -21.1296,17.2608"
       id="path150"
       style="stroke-width:0.992" />
    <path
       class="Note"
       d="m 976.348,1853.5168 c 0,4.2656 3.0752,9.0272 11.1104,9.0272 10.3168,0 21.1296,-8.432 21.1296,-17.1616 0,-5.8528 -4.96,-9.1264 -11.1104,-9.1264 -9.6224,0 -21.1296,8.1344 -21.1296,17.2608"
       id="path151"
       style="stroke-width:0.992" />
    <path
       class="Clef"
       transform="matrix(0.992,0,0,0.992,231.198,1328.6)"
       d="m 1.3,-25.2 c -0.7,0 -1.3,0.6 -1.3,1.3 v 47.8 c 0,0.7 0.6,1.3 1.3,1.3 h 11 c 0.7,0 1.3,-0.6 1.3,-1.3 v -47.8 c 0,-0.7 -0.6,-1.3 -1.3,-1.3 h -11 m 21.6,0 c -0.7,0 -1.3,0.6 -1.3,1.3 v 47.8 c 0,0.7 0.6,1.3 1.3,1.3 h 11 c 0.7,0 1.3,-0.6 1.3,-1.3 v -47.8 c 0,-0.7 -0.6,-1.3 -1.3,-1.3 h -11"
       id="path152" />
    <path
       class="Clef"
       transform="matrix(0.992,0,0,0.992,231.198,1502.2)"
       d="m 1.3,-25.2 c -0.7,0 -1.3,0.6 -1.3,1.3 v 47.8 c 0,0.7 0.6,1.3 1.3,1.3 h 11 c 0.7,0 1.3,-0.6 1.3,-1.3 v -47.8 c 0,-0.7 -0.6,-1.3 -1.3,-1.3 h -11 m 21.6,0 c -0.7,0 -1.3,0.6 -1.3,1.3 v 47.8 c 0,0.7 0.6,1.3 1.3,1.3 h 11 c 0.7,0 1.3,-0.6 1.3,-1.3 v -47.8 c 0,-0.7 -0.6,-1.3 -1.3,-1.3 h -11"
       id="path153" />
    <path
       class="Clef"
       transform="matrix(0.992,0,0,0.992,231.198,634.198)"
       d="m 1.3,-25.2 c -0.7,0 -1.3,0.6 -1.3,1.3 v 47.8 c 0,0.7 0.6,1.3 1.3,1.3 h 11 c 0.7,0 1.3,-0.6 1.3,-1.3 v -47.8 c 0,-0.7 -0.6,-1.3 -1.3,-1.3 h -11 m 21.6,0 c -0.7,0 -1.3,0.6 -1.3,1.3 v 47.8 c 0,0.7 0.6,1.3 1.3,1.3 h 11 c 0.7,0 1.3,-0.6 1.3,-1.3 v -47.8 c 0,-0.7 -0.6,-1.3 -1.3,-1.3 h -11"
       id="path156" />
    <path
       class="Clef"
       transform="matrix(0.992,0,0,0.992,231.198,981.398)"
       d="m 1.3,-25.2 c -0.7,0 -1.3,0.6 -1.3,1.3 v 47.8 c 0,0.7 0.6,1.3 1.3,1.3 h 11 c 0.7,0 1.3,-0.6 1.3,-1.3 v -47.8 c 0,-0.7 -0.6,-1.3 -1.3,-1.3 h -11 m 21.6,0 c -0.7,0 -1.3,0.6 -1.3,1.3 v 47.8 c 0,0.7 0.6,1.3 1.3,1.3 h 11 c 0.7,0 1.3,-0.6 1.3,-1.3 v -47.8 c 0,-0.7 -0.6,-1.3 -1.3,-1.3 h -11"
       id="path158" />
    <path
       class="Clef"
       transform="matrix(0.992,0,0,0.992,231.198,2023)"
       d="m 1.3,-25.2 c -0.7,0 -1.3,0.6 -1.3,1.3 v 47.8 c 0,0.7 0.6,1.3 1.3,1.3 h 11 c 0.7,0 1.3,-0.6 1.3,-1.3 v -47.8 c 0,-0.7 -0.6,-1.3 -1.3,-1.3 h -11 m 21.6,0 c -0.7,0 -1.3,0.6 -1.3,1.3 v 47.8 c 0,0.7 0.6,1.3 1.3,1.3 h 11 c 0.7,0 1.3,-0.6 1.3,-1.3 v -47.8 c 0,-0.7 -0.6,-1.3 -1.3,-1.3 h -11"
       id="path159" />
    <path
       class="Clef"
       transform="matrix(0.992,0,0,0.992,231.198,1155)"
       d="m 1.3,-25.2 c -0.7,0 -1.3,0.6 -1.3,1.3 v 47.8 c 0,0.7 0.6,1.3 1.3,1.3 h 11 c 0.7,0 1.3,-0.6 1.3,-1.3 v -47.8 c 0,-0.7 -0.6,-1.3 -1.3,-1.3 h -11 m 21.6,0 c -0.7,0 -1.3,0.6 -1.3,1.3 v 47.8 c 0,0.7 0.6,1.3 1.3,1.3 h 11 c 0.7,0 1.3,-0.6 1.3,-1.3 v -47.8 c 0,-0.7 -0.6,-1.3 -1.3,-1.3 h -11"
       id="path160" />
    <path
       class="Clef"
       transform="matrix(0.992,0,0,0.992,231.198,807.798)"
       d="m 1.3,-25.2 c -0.7,0 -1.3,0.6 -1.3,1.3 v 47.8 c 0,0.7 0.6,1.3 1.3,1.3 h 11 c 0.7,0 1.3,-0.6 1.3,-1.3 v -47.8 c 0,-0.7 -0.6,-1.3 -1.3,-1.3 h -11 m 21.6,0 c -0.7,0 -1.3,0.6 -1.3,1.3 v 47.8 c 0,0.7 0.6,1.3 1.3,1.3 h 11 c 0.7,0 1.3,-0.6 1.3,-1.3 v -47.8 c 0,-0.7 -0.6,-1.3 -1.3,-1.3 h -11"
       id="path162" />
    <path
       class="Clef"
       transform="matrix(0.992,0,0,0.992,231.198,1849.4)"
       d="m 1.3,-25.2 c -0.7,0 -1.3,0.6 -1.3,1.3 v 47.8 c 0,0.7 0.6,1.3 1.3,1.3 h 11 c 0.7,0 1.3,-0.6 1.3,-1.3 v -47.8 c 0,-0.7 -0.6,-1.3 -1.3,-1.3 h -11 m 21.6,0 c -0.7,0 -1.3,0.6 -1.3,1.3 v 47.8 c 0,0.7 0.6,1.3 1.3,1.3 h 11 c 0.7,0 1.3,-0.6 1.3,-1.3 v -47.8 c 0,-0.7 -0.6,-1.3 -1.3,-1.3 h -11"
       id="path164" />
    <path
       class="Clef"
       transform="matrix(0.992,0,0,0.992,231.198,1675.8)"
       d="m 1.3,-25.2 c -0.7,0 -1.3,0.6 -1.3,1.3 v 47.8 c 0,0.7 0.6,1.3 1.3,1.3 h 11 c 0.7,0 1.3,-0.6 1.3,-1.3 v -47.8 c 0,-0.7 -0.6,-1.3 -1.3,-1.3 h -11 m 21.6,0 c -0.7,0 -1.3,0.6 -1.3,1.3 v 47.8 c 0,0.7 0.6,1.3 1.3,1.3 h 11 c 0.7,0 1.3,-0.6 1.3,-1.3 v -47.8 c 0,-0.7 -0.6,-1.3 -1.3,-1.3 h -11"
       id="path166" />
    <path
       class="TimeSig"
       transform="matrix(0.992,0,0,0.992,292.299,1130.69)"
       d="m 24.7,-4.8 c -6.1,0 -8.3,1.8 -9.7,3.3 -0.3,-2.1 -0.5,-3.7 -0.5,-5.3 0,-5.7 2,-13.1 9,-13.1 2.5,0 4,0.8 5,1.9 -2.1,0.9 -3.8,3.6 -3.8,5.9 0,3.6 2.8,6.4 6.4,6.4 3.6,0 6.5,-2.8 6.5,-6.4 v -0.3 c 0,-0.9 -0.2,-2.4 -0.6,-3.2 -1.3,-3.6 -5.5,-8.9 -15.5,-8.9 -9,0 -15.5,8.6 -17.5,13.2 -1,2.4 -2.5,7.3 -2.5,12.9 0,6.1 1.7,13 7.6,18.2 5.8,4.4 9.5,4.6 13,4.6 3.5,0 16.6,-4.1 16.6,-15.7 0,-9.8 -7.7,-13.5 -14,-13.5 m -3.7,25 c -3.3,0 -6,-4.5 -6,-10.1 0,-5.6 2.7,-10.2 6,-10.2 3.3,0 6.1,4.6 6.1,10.2 0,5.6 -2.8,10.1 -6.1,10.1"
       id="path170" />
    <path
       class="TimeSig"
       transform="matrix(0.992,0,0,0.992,289.525,1179.8)"
       d="m 20.8,12.7 v 7.4 h -8.3 c -0.7,0 -1.4,0.6 -1.4,1.4 v 1.9 c 0,0.8 0.7,1.4 1.4,1.4 h 30.3 c 0.8,0 1.4,-0.6 1.4,-1.4 v -1.9 c 0,-0.8 -0.6,-1.4 -1.4,-1.4 h -8.9 v -7.4 h 8.9 c 0.8,0 1.4,-0.7 1.4,-1.5 V 9.3 C 44.2,8.6 43.6,7.9 42.8,7.9 H 33.9 V -8 c 0,-0.6 -0.3,-1.1 -0.8,-1.3 l -1.2,-0.6 c -0.2,-0.1 -0.5,-0.2 -0.7,-0.2 -0.3,0.1 -0.7,0.2 -0.9,0.4 l -9.1,8.3 c -0.3,0.3 -0.4,0.7 -0.4,1.1 V 7.9 H 9.3 c 0,0 11.1,-12 22.9,-27.8 0.4,-0.5 0.5,-1 0.5,-1.4 0,-0.5 -0.2,-0.9 -0.3,-1 l -2.2,-2.2 c -0.2,-0.2 -0.6,-0.4 -1,-0.4 -0.6,0 -14.1,0 -14.8,0 -0.8,0 -1.3,0.6 -1.4,1.2 0,0 -0.5,7.4 -3.1,15.5 -2.6,8.1 -5.6,13.1 -8.2,16.8 0,0 -0.3,0.5 -0.3,1.1 0,0.2 0,0.4 0.1,0.6 0.4,0.7 1,1.8 1,1.8 0,0 0.2,0.6 1.1,0.6 h 17.2"
       id="path171" />
    <path
       class="TimeSig"
       transform="matrix(0.992,0,0,0.992,292.795,609.894)"
       d="m 34.2,3.9 c -0.8,2.2 -2.8,9.4 -7.7,9.4 -6.5,0 -7.9,-4 -13.3,-4 -0.8,0 -1.6,0.1 -2.6,0.3 0,0 2.5,-3.8 13.1,-7.1 C 34.3,-0.8 37,-6 37,-12 c 0,-4.2 -1.9,-12.5 -17,-12.5 -15.1,0 -17.9,9.1 -17.9,13.7 0,4.1 3.4,7.4 7.5,7.4 4.1,0 7.4,-3.3 7.4,-7.4 0,-2.8 -2,-5.9 -4.6,-6.9 -0.3,-0.1 -0.7,-0.6 -0.7,-1.1 0,-0.6 0.5,-1.3 2.3,-1.8 0.5,-0.2 1.9,-0.5 3.4,-0.5 5.7,0 6.8,3.5 6.8,8.6 0,11.7 -13.9,14.2 -19.7,22.9 0,0 -3,4.2 -3,8.9 0,4.7 2.4,5 3.6,5 1.6,0 3.3,-1.3 3.3,-3.1 0,-0.4 -0.1,-0.8 -0.3,-1.3 -0.6,-1.4 -0.8,-2.5 -0.8,-3.3 0,-0.3 0,-0.6 0.1,-0.9 0.1,-0.6 0.9,-1.6 3.3,-1.6 2.9,0 4,3.4 5.8,6 1.8,2.6 4.6,4.2 7.8,4.2 3.2,0 7.5,-2.3 9.3,-6 1.8,-3.7 4.1,-11.2 4.1,-13.9 0,-1.3 -0.8,-1.9 -1.7,-1.9 -0.7,0 -1.4,0.4 -1.8,1.4"
       id="path172" />
    <path
       class="TimeSig"
       transform="matrix(0.992,0,0,0.992,289.525,658.998)"
       d="m 20.8,12.7 v 7.4 h -8.3 c -0.7,0 -1.4,0.6 -1.4,1.4 v 1.9 c 0,0.8 0.7,1.4 1.4,1.4 h 30.3 c 0.8,0 1.4,-0.6 1.4,-1.4 v -1.9 c 0,-0.8 -0.6,-1.4 -1.4,-1.4 h -8.9 v -7.4 h 8.9 c 0.8,0 1.4,-0.7 1.4,-1.5 V 9.3 C 44.2,8.6 43.6,7.9 42.8,7.9 H 33.9 V -8 c 0,-0.6 -0.3,-1.1 -0.8,-1.3 l -1.2,-0.6 c -0.2,-0.1 -0.5,-0.2 -0.7,-0.2 -0.3,0.1 -0.7,0.2 -0.9,0.4 l -9.1,8.3 c -0.3,0.3 -0.4,0.7 -0.4,1.1 V 7.9 H 9.3 c 0,0 11.1,-12 22.9,-27.8 0.4,-0.5 0.5,-1 0.5,-1.4 0,-0.5 -0.2,-0.9 -0.3,-1 l -2.2,-2.2 c -0.2,-0.2 -0.6,-0.4 -1,-0.4 -0.6,0 -14.1,0 -14.8,0 -0.8,0 -1.3,0.6 -1.4,1.2 0,0 -0.5,7.4 -3.1,15.5 -2.6,8.1 -5.6,13.1 -8.2,16.8 0,0 -0.3,0.5 -0.3,1.1 0,0.2 0,0.4 0.1,0.6 0.4,0.7 1,1.8 1,1.8 0,0 0.2,0.6 1.1,0.6 h 17.2"
       id="path173" />
    <path
       class="TimeSig"
       transform="matrix(0.992,0,0,0.992,289.726,1477.89)"
       d="m 15.5,4.7 c 6.1,0 8.3,-1.8 9.7,-3.3 0.3,2.1 0.5,3.7 0.5,5.3 0,5.7 -2,13.1 -9,13.1 -2.5,0 -4,-0.8 -5,-1.9 C 13.8,17 15.5,14.3 15.5,12 15.5,8.4 12.7,5.6 9.1,5.6 5.5,5.6 2.6,8.4 2.6,12 v 0.3 c 0,0.9 0.2,2.4 0.6,3.2 1.3,3.6 5.5,8.9 15.5,8.9 9,0 15.5,-8.6 17.5,-13.2 1,-2.4 2.5,-7.3 2.5,-12.9 0,-6.1 -1.7,-13 -7.6,-18.2 -5.8,-4.4 -9.5,-4.6 -13,-4.6 -3.5,0 -16.6,4.1 -16.6,15.7 0,9.8 7.7,13.5 14,13.5 m 3.7,-25.1 c 3.3,0 6,4.6 6,10.2 0,5.6 -2.7,10.1 -6,10.1 -3.3,0 -6.1,-4.5 -6.1,-10.1 0,-5.6 2.8,-10.2 6.1,-10.2"
       id="path174" />
    <path
       class="TimeSig"
       transform="matrix(0.992,0,0,0.992,289.432,1526.75)"
       d="m 32.4,-1.8 c 3.3,-2.5 5.6,-5.7 5.6,-9.7 0,-7.2 -7.9,-13.1 -17.6,-13.1 -9.7,0 -17.6,5.9 -17.6,13.1 0,4 1,7.6 5.7,10.6 -4.5,2.6 -7,6.3 -7,11.1 0,8.1 8.5,14.6 18.9,14.6 10.4,0 18.9,-6.5 18.9,-14.6 0,-4.8 -1.7,-9.3 -6.9,-12 M 26.8,-4.5 C 20,-6.7 12.5,-10 12.5,-14.5 c 0,-3.9 3.6,-5.5 7.9,-5.5 6.2,0 10.4,2.9 10.4,7.5 0,4.8 -2.2,7.1 -4,8 M 20.4,19.2 C 14,19.2 8.5,15.7 8.5,10.1 c 0,-6.7 5.2,-8.3 5.2,-8.3 6.8,2.3 16.5,5.7 16.5,11.2 0,2.7 -3.4,6.2 -9.8,6.2"
       id="path175" />
    <path
       class="TimeSig"
       transform="matrix(0.992,0,0,0.992,289.432,1651.49)"
       d="m 24.9,19.7 v -43 c 0,-0.7 -0.5,-1.2 -1.2,-1.2 h -9.9 c -0.2,0 -0.4,0.1 -0.6,0.2 -0.1,0.1 -0.3,0.3 -0.4,0.4 L 1.6,-4.5 c -0.1,0.2 -0.1,0.4 -0.1,0.6 0,0.4 0.3,0.8 0.6,1 L 4,-1.8 c 0.2,0.1 0.4,0.2 0.6,0.2 0.4,0 0.8,-0.3 1,-0.6 l 7.1,-12.2 V 19.7 H 5.1 c -0.7,0 -1.2,0.5 -1.2,1.2 v 2.2 c 0,0.7 0.5,1.2 1.2,1.2 h 27.4 c 0.7,0 1.1,-0.5 1.1,-1.2 v -2.2 c 0,-0.7 -0.4,-1.2 -1.1,-1.2 h -7.6"
       id="path176" />
    <path
       class="TimeSig"
       transform="matrix(0.992,0,0,0.992,324.245,1651.49)"
       d="m 34.2,3.9 c -0.8,2.2 -2.8,9.4 -7.7,9.4 -6.5,0 -7.9,-4 -13.3,-4 -0.8,0 -1.6,0.1 -2.6,0.3 0,0 2.5,-3.8 13.1,-7.1 C 34.3,-0.8 37,-6 37,-12 c 0,-4.2 -1.9,-12.5 -17,-12.5 -15.1,0 -17.9,9.1 -17.9,13.7 0,4.1 3.4,7.4 7.5,7.4 4.1,0 7.4,-3.3 7.4,-7.4 0,-2.8 -2,-5.9 -4.6,-6.9 -0.3,-0.1 -0.7,-0.6 -0.7,-1.1 0,-0.6 0.5,-1.3 2.3,-1.8 0.5,-0.2 1.9,-0.5 3.4,-0.5 5.7,0 6.8,3.5 6.8,8.6 0,11.7 -13.9,14.2 -19.7,22.9 0,0 -3,4.2 -3,8.9 0,4.7 2.4,5 3.6,5 1.6,0 3.3,-1.3 3.3,-3.1 0,-0.4 -0.1,-0.8 -0.3,-1.3 -0.6,-1.4 -0.8,-2.5 -0.8,-3.3 0,-0.3 0,-0.6 0.1,-0.9 0.1,-0.6 0.9,-1.6 3.3,-1.6 2.9,0 4,3.4 5.8,6 1.8,2.6 4.6,4.2 7.8,4.2 3.2,0 7.5,-2.3 9.3,-6 1.8,-3.7 4.1,-11.2 4.1,-13.9 0,-1.3 -0.8,-1.9 -1.7,-1.9 -0.7,0 -1.4,0.4 -1.8,1.4"
       id="path177" />
    <path
       class="TimeSig"
       transform="matrix(0.992,0,0,0.992,306.032,1700.35)"
       d="m 32.4,-1.8 c 3.3,-2.5 5.6,-5.7 5.6,-9.7 0,-7.2 -7.9,-13.1 -17.6,-13.1 -9.7,0 -17.6,5.9 -17.6,13.1 0,4 1,7.6 5.7,10.6 -4.5,2.6 -7,6.3 -7,11.1 0,8.1 8.5,14.6 18.9,14.6 10.4,0 18.9,-6.5 18.9,-14.6 0,-4.8 -1.7,-9.3 -6.9,-12 M 26.8,-4.5 C 20,-6.7 12.5,-10 12.5,-14.5 c 0,-3.9 3.6,-5.5 7.9,-5.5 6.2,0 10.4,2.9 10.4,7.5 0,4.8 -2.2,7.1 -4,8 M 20.4,19.2 C 14,19.2 8.5,15.7 8.5,10.1 c 0,-6.7 5.2,-8.3 5.2,-8.3 6.8,2.3 16.5,5.7 16.5,11.2 0,2.7 -3.4,6.2 -9.8,6.2"
       id="path178" />
    <path
       class="TimeSig"
       transform="matrix(0.992,0,0,0.992,293.431,783.494)"
       d="m 27.2,-1.6 c 5,-1.9 8.5,-5.1 8.5,-10.6 0,-0.9 -0.3,-12.2 -17.5,-12.2 C 1,-24.4 1.5,-12.2 1.5,-12.2 H 1.6 L 1.5,-12 c 0,3.6 2.9,6.4 6.5,6.4 3.6,0 6.4,-2.8 6.4,-6.4 0,-2.9 -2.2,-5.7 -5,-6.3 0.1,-0.1 0.2,-0.2 0.3,-0.3 1.4,-1 3.3,-1.5 5.2,-1.5 4.2,0 8.7,2.5 8.7,7.9 0,6.3 -4.7,7.2 -5.9,7.4 -1.2,0.2 -6.8,0.6 -8,0.6 -1.2,0 -1.3,1.4 -1.3,1.4 v 2 c 0,0 0.2,1.1 1.3,1.2 1.7,0.1 4,0.1 7.2,0.6 4.4,0.6 6.7,3.6 6.7,10.6 0,6.7 -4.5,8.5 -8.7,8.5 -2.8,0 -5.4,-0.8 -6.5,-1.6 3.3,-0.2 6,-3.1 6,-6.4 0,-3.6 -2.8,-6.5 -6.4,-6.5 -3.6,0 -6.5,2.9 -6.5,6.5 0,8.2 7.5,12.3 14.9,12.3 9.6,0 20,-3.3 20,-14.2 0,-7.3 -5,-10.4 -9.4,-11.8 h 0.2"
       id="path179" />
    <path
       class="TimeSig"
       transform="matrix(0.992,0,0,0.992,289.525,832.598)"
       d="m 20.8,12.7 v 7.4 h -8.3 c -0.7,0 -1.4,0.6 -1.4,1.4 v 1.9 c 0,0.8 0.7,1.4 1.4,1.4 h 30.3 c 0.8,0 1.4,-0.6 1.4,-1.4 v -1.9 c 0,-0.8 -0.6,-1.4 -1.4,-1.4 h -8.9 v -7.4 h 8.9 c 0.8,0 1.4,-0.7 1.4,-1.5 V 9.3 C 44.2,8.6 43.6,7.9 42.8,7.9 H 33.9 V -8 c 0,-0.6 -0.3,-1.1 -0.8,-1.3 l -1.2,-0.6 c -0.2,-0.1 -0.5,-0.2 -0.7,-0.2 -0.3,0.1 -0.7,0.2 -0.9,0.4 l -9.1,8.3 c -0.3,0.3 -0.4,0.7 -0.4,1.1 V 7.9 H 9.3 c 0,0 11.1,-12 22.9,-27.8 0.4,-0.5 0.5,-1 0.5,-1.4 0,-0.5 -0.2,-0.9 -0.3,-1 l -2.2,-2.2 c -0.2,-0.2 -0.6,-0.4 -1,-0.4 -0.6,0 -14.1,0 -14.8,0 -0.8,0 -1.3,0.6 -1.4,1.2 0,0 -0.5,7.4 -3.1,15.5 -2.6,8.1 -5.6,13.1 -8.2,16.8 0,0 -0.3,0.5 -0.3,1.1 0,0.2 0,0.4 0.1,0.6 0.4,0.7 1,1.8 1,1.8 0,0 0.2,0.6 1.1,0.6 h 17.2"
       id="path180" />
    <path
       class="TimeSig"
       transform="matrix(0.992,0,0,0.992,293.539,1825.09)"
       d="m 2.7,-21.8 c 0,0 0.5,4.8 0.5,10 0,4.5 -0.2,9 -0.5,13.5 0,0 0,0.1 0,0.3 0,0.5 0.1,1.2 0.7,1.3 0.9,0.2 3,0.7 3.5,0.8 0.2,0 0.3,0.1 0.5,0.1 0.4,0 0.8,-0.2 1,-0.8 0.5,-1.3 1.6,-6.5 7.9,-6.5 7.1,0 8.4,6.1 8.4,10.9 0,5.9 -1.9,12.5 -9,12.5 -2.3,0 -3.6,-0.3 -4.2,-0.7 C 11.2,19.5 11,19.2 11,19 c 0,-0.3 0.1,-0.5 0.4,-0.7 0.9,-0.6 4,-1.7 4,-6.6 0,-4.9 -3.4,-6.8 -7.3,-6.8 -3.9,0 -6.6,3.6 -6.6,7 0,8.8 8.3,12.5 16,12.5 10.2,0 18.7,-6.1 18.7,-16.8 C 36.2,-3 28.8,-8.6 18.8,-8.6 15.5,-8.6 12,-7.8 9.1,-5.8 9,-5.7 8.8,-5.7 8.7,-5.7 8.3,-5.7 8,-6 8,-6.4 v -6.3 c 0,-0.6 0.5,-1.1 1.1,-1.1 h 0.1 c 1.5,0.1 4.8,0.5 8.3,0.5 7.2,0 12.6,-1.5 15.4,-8.9 0.1,-0.3 0.2,-0.7 0.2,-1 0,-0.8 -0.5,-1.4 -1.8,-1.4 -0.4,0 -0.8,0.1 -1.4,0.2 -4.9,1.2 -8.7,1.6 -12.4,1.6 -3.6,0 -7.1,-0.4 -11.4,-1 0,0 -0.5,-0.1 -1.2,-0.1 -1.5,0 -2.2,0.5 -2.2,2.1"
       id="path181" />
    <path
       class="TimeSig"
       transform="matrix(0.992,0,0,0.992,289.525,1874.2)"
       d="m 20.8,12.7 v 7.4 h -8.3 c -0.7,0 -1.4,0.6 -1.4,1.4 v 1.9 c 0,0.8 0.7,1.4 1.4,1.4 h 30.3 c 0.8,0 1.4,-0.6 1.4,-1.4 v -1.9 c 0,-0.8 -0.6,-1.4 -1.4,-1.4 h -8.9 v -7.4 h 8.9 c 0.8,0 1.4,-0.7 1.4,-1.5 V 9.3 C 44.2,8.6 43.6,7.9 42.8,7.9 H 33.9 V -8 c 0,-0.6 -0.3,-1.1 -0.8,-1.3 l -1.2,-0.6 c -0.2,-0.1 -0.5,-0.2 -0.7,-0.2 -0.3,0.1 -0.7,0.2 -0.9,0.4 l -9.1,8.3 c -0.3,0.3 -0.4,0.7 -0.4,1.1 V 7.9 H 9.3 c 0,0 11.1,-12 22.9,-27.8 0.4,-0.5 0.5,-1 0.5,-1.4 0,-0.5 -0.2,-0.9 -0.3,-1 l -2.2,-2.2 c -0.2,-0.2 -0.6,-0.4 -1,-0.4 -0.6,0 -14.1,0 -14.8,0 -0.8,0 -1.3,0.6 -1.4,1.2 0,0 -0.5,7.4 -3.1,15.5 -2.6,8.1 -5.6,13.1 -8.2,16.8 0,0 -0.3,0.5 -0.3,1.1 0,0.2 0,0.4 0.1,0.6 0.4,0.7 1,1.8 1,1.8 0,0 0.2,0.6 1.1,0.6 h 17.2"
       id="path182" />
    <path
       class="TimeSig"
       transform="matrix(0.992,0,0,0.992,289.726,1304.29)"
       d="m 24.7,-4.8 c -6.1,0 -8.3,1.8 -9.7,3.3 -0.3,-2.1 -0.5,-3.7 -0.5,-5.3 0,-5.7 2,-13.1 9,-13.1 2.5,0 4,0.8 5,1.9 -2.1,0.9 -3.8,3.6 -3.8,5.9 0,3.6 2.8,6.4 6.4,6.4 3.6,0 6.5,-2.8 6.5,-6.4 v -0.3 c 0,-0.9 -0.2,-2.4 -0.6,-3.2 -1.3,-3.6 -5.5,-8.9 -15.5,-8.9 -9,0 -15.5,8.6 -17.5,13.2 -1,2.4 -2.5,7.3 -2.5,12.9 0,6.1 1.7,13 7.6,18.2 5.8,4.4 9.5,4.6 13,4.6 3.5,0 16.6,-4.1 16.6,-15.7 0,-9.8 -7.7,-13.5 -14,-13.5 m -3.7,25 c -3.3,0 -6,-4.5 -6,-10.1 0,-5.6 2.7,-10.2 6,-10.2 3.3,0 6.1,4.6 6.1,10.2 0,5.6 -2.8,10.1 -6.1,10.1"
       id="path183" />
    <path
       class="TimeSig"
       transform="matrix(0.992,0,0,0.992,289.432,1353.15)"
       d="m 32.4,-1.8 c 3.3,-2.5 5.6,-5.7 5.6,-9.7 0,-7.2 -7.9,-13.1 -17.6,-13.1 -9.7,0 -17.6,5.9 -17.6,13.1 0,4 1,7.6 5.7,10.6 -4.5,2.6 -7,6.3 -7,11.1 0,8.1 8.5,14.6 18.9,14.6 10.4,0 18.9,-6.5 18.9,-14.6 0,-4.8 -1.7,-9.3 -6.9,-12 M 26.8,-4.5 C 20,-6.7 12.5,-10 12.5,-14.5 c 0,-3.9 3.6,-5.5 7.9,-5.5 6.2,0 10.4,2.9 10.4,7.5 0,4.8 -2.2,7.1 -4,8 M 20.4,19.2 C 14,19.2 8.5,15.7 8.5,10.1 c 0,-6.7 5.2,-8.3 5.2,-8.3 6.8,2.3 16.5,5.7 16.5,11.2 0,2.7 -3.4,6.2 -9.8,6.2"
       id="path184" />
    <path
       class="TimeSig"
       transform="matrix(0.992,0,0,0.992,290.765,1998.15)"
       d="m 16.2,12.3 c -2.2,3.3 -5.1,7.3 -5.1,11 0,1.1 0.3,1.7 1.4,1.7 1.6,0 2.6,-0.4 5.8,-0.6 0.3,0 0.7,0 1.1,0 2.8,-0.1 5.5,0.6 6.2,0.6 0.9,0 2.6,-1.1 2.5,-2 0,-0.1 0,-0.2 0,-0.3 0,-0.2 -0.6,-3.3 -0.6,-7 0,-2.1 0.2,-4.5 0.8,-6.7 1.2,-4.7 4.4,-13.2 6.6,-19.5 1.1,-3.1 1.7,-8.7 1.7,-10.9 0,-0.9 0,-1.4 -0.1,-2.3 -0.1,-1 -0.5,-1.4 -1.1,-1.4 -0.5,0 -1.3,0 -1.8,0 -0.5,0 -1.2,0.3 -1.2,1.4 0,1 -0.2,7.8 -4.2,7.8 -4.2,0 -5.4,-8.5 -11.9,-8.5 -6.2,0 -10,6.3 -10.3,6.9 v -4.8 c 0,-0.6 -0.5,-1.1 -1.1,-1.1 H 2.6 c -0.6,0 -1.1,0.5 -1.1,1.1 v 18.5 c 0,0.6 0.5,1.1 1.1,1.1 H 4.9 C 5.5,-2.7 6,-3.2 6,-3.8 V -7 c 0,-2.3 1.5,-5.4 5,-5.4 3.5,0 3.8,3.8 11.8,3.8 2,0 5.7,-0.4 6.7,-1.3 -0.8,1.5 -11,18.9 -13.3,22.2"
       id="path187" />
    <path
       class="TimeSig"
       transform="matrix(0.992,0,0,0.992,289.432,2047.55)"
       d="m 32.4,-1.8 c 3.3,-2.5 5.6,-5.7 5.6,-9.7 0,-7.2 -7.9,-13.1 -17.6,-13.1 -9.7,0 -17.6,5.9 -17.6,13.1 0,4 1,7.6 5.7,10.6 -4.5,2.6 -7,6.3 -7,11.1 0,8.1 8.5,14.6 18.9,14.6 10.4,0 18.9,-6.5 18.9,-14.6 0,-4.8 -1.7,-9.3 -6.9,-12 M 26.8,-4.5 C 20,-6.7 12.5,-10 12.5,-14.5 c 0,-3.9 3.6,-5.5 7.9,-5.5 6.2,0 10.4,2.9 10.4,7.5 0,4.8 -2.2,7.1 -4,8 M 20.4,19.2 C 14,19.2 8.5,15.7 8.5,10.1 c 0,-6.7 5.2,-8.3 5.2,-8.3 6.8,2.3 16.5,5.7 16.5,11.2 0,2.7 -3.4,6.2 -9.8,6.2"
       id="path188" />
    <path
       class="TimeSig"
       transform="matrix(0.992,0,0,0.992,289.525,956.598)"
       d="m 20.8,12.7 v 7.4 h -8.3 c -0.7,0 -1.4,0.6 -1.4,1.4 v 1.9 c 0,0.8 0.7,1.4 1.4,1.4 h 30.3 c 0.8,0 1.4,-0.6 1.4,-1.4 v -1.9 c 0,-0.8 -0.6,-1.4 -1.4,-1.4 h -8.9 v -7.4 h 8.9 c 0.8,0 1.4,-0.7 1.4,-1.5 V 9.3 C 44.2,8.6 43.6,7.9 42.8,7.9 H 33.9 V -8 c 0,-0.6 -0.3,-1.1 -0.8,-1.3 l -1.2,-0.6 c -0.2,-0.1 -0.5,-0.2 -0.7,-0.2 -0.3,0.1 -0.7,0.2 -0.9,0.4 l -9.1,8.3 c -0.3,0.3 -0.4,0.7 -0.4,1.1 V 7.9 H 9.3 c 0,0 11.1,-12 22.9,-27.8 0.4,-0.5 0.5,-1 0.5,-1.4 0,-0.5 -0.2,-0.9 -0.3,-1 l -2.2,-2.2 c -0.2,-0.2 -0.6,-0.4 -1,-0.4 -0.6,0 -14.1,0 -14.8,0 -0.8,0 -1.3,0.6 -1.4,1.2 0,0 -0.5,7.4 -3.1,15.5 -2.6,8.1 -5.6,13.1 -8.2,16.8 0,0 -0.3,0.5 -0.3,1.1 0,0.2 0,0.4 0.1,0.6 0.4,0.7 1,1.8 1,1.8 0,0 0.2,0.6 1.1,0.6 h 17.2"
       id="path189" />
    <path
       class="TimeSig"
       transform="matrix(0.992,0,0,0.992,289.525,1006.2)"
       d="m 20.8,12.7 v 7.4 h -8.3 c -0.7,0 -1.4,0.6 -1.4,1.4 v 1.9 c 0,0.8 0.7,1.4 1.4,1.4 h 30.3 c 0.8,0 1.4,-0.6 1.4,-1.4 v -1.9 c 0,-0.8 -0.6,-1.4 -1.4,-1.4 h -8.9 v -7.4 h 8.9 c 0.8,0 1.4,-0.7 1.4,-1.5 V 9.3 C 44.2,8.6 43.6,7.9 42.8,7.9 H 33.9 V -8 c 0,-0.6 -0.3,-1.1 -0.8,-1.3 l -1.2,-0.6 c -0.2,-0.1 -0.5,-0.2 -0.7,-0.2 -0.3,0.1 -0.7,0.2 -0.9,0.4 l -9.1,8.3 c -0.3,0.3 -0.4,0.7 -0.4,1.1 V 7.9 H 9.3 c 0,0 11.1,-12 22.9,-27.8 0.4,-0.5 0.5,-1 0.5,-1.4 0,-0.5 -0.2,-0.9 -0.3,-1 l -2.2,-2.2 c -0.2,-0.2 -0.6,-0.4 -1,-0.4 -0.6,0 -14.1,0 -14.8,0 -0.8,0 -1.3,0.6 -1.4,1.2 0,0 -0.5,7.4 -3.1,15.5 -2.6,8.1 -5.6,13.1 -8.2,16.8 0,0 -0.3,0.5 -0.3,1.1 0,0.2 0,0.4 0.1,0.6 0.4,0.7 1,1.8 1,1.8 0,0 0.2,0.6 1.1,0.6 h 17.2"
       id="path190" />
    <path
       class="Beam"
       fill-rule="evenodd"
       d="m 709.61599,1954.7504 h 101.161 v 12.4 h -101.161 v -12.4"
       id="path206" />
    <path
       class="Beam"
       fill-rule="evenodd"
       d="m 412.704,1260.4972 h 201.321 v 12.4 H 412.704 v -12.4"
       id="path207" />
    <path
       class="Beam"
       fill-rule="evenodd"
       d="m 412.70401,1954.8972 h 201.321 v 12.4 h -201.321 v -12.4"
       id="path208"
       style="stroke-width:1" />
    <path
       class="Beam"
       fill-rule="evenodd"
       d="M 708.44802,1260.3504 H 910.626 v 12.4 H 708.44802 v -12.4"
       id="path209"
       style="stroke-width:1" />
    <path
       class="Beam"
       fill-rule="evenodd"
       d="m 1301.84,1607.5504 h 202.17 v 12.4 h -202.17 v -12.4"
       id="path210" />
    <path
       class="Beam"
       fill-rule="evenodd"
       d="m 708.44799,1607.5504 h 202.178 v 12.4 h -202.178 v -12.4"
       id="path211" />
    <path
       class="Beam"
       fill-rule="evenodd"
       d="m 412.703,1607.346 h 201.321 v 12.4 H 412.703 v -12.4"
       id="path212"
       style="stroke-width:1" />
    <path
       class="Beam"
       fill-rule="evenodd"
       d="m 412.704,1434.0972 h 201.174 v 12.4 H 412.704 v -12.4"
       id="path213" />
    <path
       class="Beam"
       fill-rule="evenodd"
       d="M 908.14498,1954.7504 H 1008.571 v 12.4 H 908.14498 v -12.4"
       id="path214"
       style="stroke-width:0.999997" />
    <path
       class="Beam"
       fill-rule="evenodd"
       d="m 708.44902,1433.9504 h 202.17599 v 12.4 H 708.44902 v -12.4"
       id="path215"
       style="stroke-width:1" />
    <path
       class="Beam"
       fill-rule="evenodd"
       d="m 1006.091,1434 h 200.2789 v 12.4 H 1006.091 V 1434"
       id="path216"
       style="stroke-width:0.999998" />
    <path
       class="Beam"
       fill-rule="evenodd"
       d="m 1006.094,1607.6 h 200.276 v 12.4 h -200.276 v -12.4"
       id="path217"
       style="stroke-width:1" />
  </g>
</svg>
