<?xml version="1.0" encoding="UTF-8" standalone="no"?>
<svg
   width="2977.2px"
   height="4208.4px"
   viewBox="0 0 2977.2 4208.4"
   version="1.2"
   id="svg217"
   sodipodi:docname="Metric Cycle v2.svg"
   inkscape:version="1.4 (e7c3feb1, 2024-10-09)"
   xmlns:inkscape="http://www.inkscape.org/namespaces/inkscape"
   xmlns:sodipodi="http://sodipodi.sourceforge.net/DTD/sodipodi-0.dtd"
   xmlns="http://www.w3.org/2000/svg"
   xmlns:svg="http://www.w3.org/2000/svg">
  <defs
     id="defs217" />
  <sodipodi:namedview
     id="namedview217"
     pagecolor="#ffffff"
     bordercolor="#000000"
     borderopacity="0.25"
     inkscape:showpageshadow="2"
     inkscape:pageopacity="0.0"
     inkscape:pagecheckerboard="0"
     inkscape:deskcolor="#d1d1d1"
     inkscape:zoom="0.21137061"
     inkscape:cx="929.64677"
     inkscape:cy="1341.2461"
     inkscape:window-width="1512"
     inkscape:window-height="916"
     inkscape:window-x="0"
     inkscape:window-y="38"
     inkscape:window-maximized="1"
     inkscape:current-layer="layer2"
     showguides="false">
    <sodipodi:guide
       position="523.07902,3574.1524"
       orientation="1,0"
       id="guide217"
       inkscape:locked="false" />
    <sodipodi:guide
       position="1091.67,3574.1524"
       orientation="1,0"
       id="guide218"
       inkscape:locked="false" />
    <sodipodi:guide
       position="902.13803,3400.5514"
       orientation="1,0"
       id="guide219"
       inkscape:locked="false" />
    <sodipodi:guide
       position="1281.2,3400.5514"
       orientation="1,0"
       id="guide220"
       inkscape:locked="false" />
  </sodipodi:namedview>
  <title
     id="title1">Metric Cycle v2</title>
  <desc
     id="desc1">Generated by MuseScore Studio 4.4.4</desc>
  <polyline
     class="StaffLines"
     fill="none"
     stroke="#000000"
     stroke-width="2.73"
     stroke-linejoin="bevel"
     points="336.599,2196.6 2640.6,2196.6"
     id="polyline10"
     transform="translate(0,540)" />
  <polyline
     class="StaffLines"
     fill="none"
     stroke="#000000"
     stroke-width="2.73"
     stroke-linejoin="bevel"
     points="336.599,2891 2640.6,2891"
     id="polyline14" />
  <polyline
     class="StaffLines"
     fill="none"
     stroke="#000000"
     stroke-width="2.73"
     stroke-linejoin="bevel"
     points="336.599,3064.6 2640.6,3064.6"
     id="polyline15" />
  <polyline
     class="StaffLines"
     fill="none"
     stroke="#000000"
     stroke-width="2.73"
     stroke-linejoin="bevel"
     points="336.599,3389.34 1488.6,3389.34"
     id="polyline16" />
  <polyline
     class="StaffLines"
     fill="none"
     stroke="#000000"
     stroke-width="2.73"
     stroke-linejoin="bevel"
     points="1612.6,3389.34 2764.6,3389.34"
     id="polyline17" />
  <polyline
     class="StaffLines"
     fill="none"
     stroke="#000000"
     stroke-width="2.73"
     stroke-linejoin="bevel"
     points="336.599,3714.08 2764.6,3714.08"
     id="polyline18" />
  <path
     class="Text"
     d="M1200.12,214.256 L1171.74,214.256 L1171.74,219.426 L1173.83,219.426 C1180.1,219.536 1182.19,219.866 1182.96,220.966 C1183.73,221.956 1183.73,222.066 1183.73,227.786 L1183.73,269.916 C1183.73,284.876 1181.64,287.956 1170.97,288.506 L1170.97,293.676 L1202.32,293.676 L1202.32,288.506 C1191.76,287.956 1189.67,284.876 1189.67,269.916 L1189.67,221.296 L1215.85,293.676 L1220.25,293.676 L1244.78,221.296 L1244.78,280.146 C1244.78,285.756 1244.78,285.976 1244.12,287.076 C1243.24,288.176 1241.15,288.506 1234.88,288.506 L1232.9,288.506 L1232.9,293.676 L1268.98,293.676 L1268.98,288.506 L1267,288.506 C1260.73,288.506 1258.64,288.176 1257.76,287.076 C1257.1,285.976 1257.1,285.866 1257.1,280.146 L1257.1,227.786 C1257.1,222.176 1257.1,221.956 1257.76,220.966 C1258.64,219.866 1260.73,219.536 1267,219.426 L1268.98,219.426 L1268.98,214.256 L1241.37,214.256 L1221.24,272.886 L1200.12,214.256 M1323.53,268.926 C1323.64,252.426 1314.29,240.766 1300.87,240.766 C1286.79,240.766 1276.23,252.976 1276.23,269.476 C1276.23,284.986 1286.24,295.326 1301.09,295.326 C1311.65,295.326 1319.02,290.156 1323.53,279.706 L1319.68,277.616 C1315.17,286.086 1310.55,289.386 1303.18,289.386 C1297.57,289.386 1293.5,287.076 1290.64,282.126 C1288.66,278.826 1287.78,274.976 1287.89,268.926 L1323.53,268.926 M1288,264.196 C1288,256.496 1291.52,245.496 1300.76,245.496 C1307.36,245.496 1311.76,251.326 1311.76,260.236 C1311.76,263.316 1310.77,264.196 1307.25,264.196 L1288,264.196 M1346.52,242.416 L1346.52,220.636 L1342.01,220.636 C1340.91,234.936 1336.07,242.196 1327.16,242.856 L1327.16,247.146 L1336.18,247.146 L1336.18,275.196 C1336.18,282.896 1336.4,285.646 1337.5,288.176 C1339.26,292.796 1343.66,295.326 1350.04,295.326 C1359.94,295.326 1366.32,287.846 1366.32,276.186 C1366.32,275.526 1366.32,274.756 1366.21,273.656 L1361.59,273.656 C1361.26,283.556 1358.4,288.616 1353.01,288.616 C1350.48,288.616 1348.28,287.296 1347.51,285.426 C1346.85,283.886 1346.52,281.136 1346.52,277.176 L1346.52,247.146 L1362.69,247.146 L1362.69,242.416 L1346.52,242.416 M1389.74,242.416 L1370.27,243.626 L1370.27,248.356 L1374.78,248.356 C1378.96,248.466 1379.51,249.126 1379.51,253.856 L1379.51,285.316 C1379.4,286.966 1379.29,287.626 1378.85,288.176 C1378.08,289.166 1375.88,289.606 1371.15,289.716 L1370.71,289.716 L1370.71,293.676 L1400.08,293.676 L1400.08,289.716 L1398.1,289.716 C1390.73,289.496 1389.74,288.946 1389.74,284.986 L1389.74,279.046 C1389.85,260.566 1396.45,246.486 1405.03,246.046 C1403.49,247.806 1403.05,248.906 1403.05,250.996 C1403.05,254.516 1405.58,257.046 1409.1,257.046 C1413.17,257.046 1415.81,254.076 1415.81,249.676 C1415.81,244.286 1412.07,240.766 1406.24,240.766 C1399.31,240.766 1393.37,246.266 1389.74,256.056 L1389.74,242.416 M1436.46,215.026 C1432.94,215.026 1430.08,217.886 1430.08,221.406 C1430.08,224.926 1432.94,227.786 1436.35,227.786 C1439.98,227.786 1442.84,224.926 1442.84,221.406 C1442.84,217.886 1439.98,215.026 1436.46,215.026 M1441.63,242.416 L1420.95,243.626 L1420.95,248.356 L1426.56,248.356 C1430.74,248.466 1431.29,249.126 1431.29,253.856 L1431.29,285.316 C1431.18,286.966 1431.07,287.626 1430.63,288.176 C1429.86,289.166 1427.77,289.606 1423.04,289.716 L1422.27,289.716 L1422.27,293.676 L1450.76,293.676 L1450.76,289.716 L1449.99,289.716 C1442.62,289.496 1441.63,288.946 1441.63,284.986 L1441.63,242.416 M1496.18,277.506 C1492.66,285.426 1488.92,288.616 1483.2,288.616 C1474.4,288.616 1468.9,280.586 1468.9,267.716 C1468.9,254.296 1474.29,245.496 1482.43,245.496 C1485.73,245.496 1488.59,247.036 1488.59,248.796 C1488.59,249.126 1488.48,249.456 1487.93,250.116 C1486.17,252.206 1485.73,253.306 1485.73,255.176 C1485.73,258.806 1488.48,261.336 1492.33,261.336 C1496.29,261.336 1499.04,258.256 1499.04,253.856 C1499.04,246.376 1491.67,240.766 1481.88,240.766 C1467.58,240.766 1457.35,252.426 1457.35,268.926 C1457.35,284.546 1466.7,295.326 1480.34,295.326 C1490.13,295.326 1495.74,290.816 1500.47,279.156 L1496.18,277.506 M1603.31,213.486 L1599.13,213.486 L1594.73,219.976 C1586.7,214.146 1582.63,212.606 1575.04,212.606 C1564.59,212.606 1555.68,217.006 1548.31,225.806 C1541.27,234.166 1537.97,243.406 1537.97,254.736 C1537.97,278.496 1553.48,295.326 1575.15,295.326 C1592.75,295.326 1603.97,284.986 1606.5,266.506 L1601.33,265.626 C1598.36,282.016 1590,290.156 1576.47,290.156 C1560.19,290.156 1552.49,278.936 1552.49,255.176 C1552.49,242.636 1554.14,234.386 1557.88,227.786 C1561.29,221.626 1568,217.776 1575.15,217.776 C1582.85,217.776 1589.67,221.846 1593.85,228.886 C1595.94,232.516 1597.48,236.586 1600.12,245.276 L1604.96,245.276 L1603.31,213.486 M1645.3,279.706 L1633.2,251.436 C1632.76,250.336 1632.54,249.786 1632.54,249.236 C1632.54,247.146 1633.86,246.376 1637.6,246.376 L1639.91,246.376 L1639.91,242.416 L1613.73,242.416 L1613.73,246.376 L1614.94,246.376 C1618.68,246.486 1620.11,247.586 1622.42,252.316 L1640.35,292.906 L1638.48,296.756 C1634.52,305.116 1629.35,310.946 1625.83,310.946 C1624.84,310.946 1624.07,310.506 1624.07,309.846 C1624.07,309.626 1624.18,309.296 1624.29,308.856 C1624.62,307.866 1624.84,306.876 1624.84,305.996 C1624.84,303.136 1622.53,301.046 1619.23,301.046 C1615.38,301.046 1612.63,303.906 1612.63,307.866 C1612.63,312.816 1616.81,316.336 1622.64,316.336 C1628.47,316.336 1633.42,313.476 1637.82,307.536 C1641.23,303.026 1643.43,298.406 1648.27,286.416 L1660.81,255.286 C1663.34,248.906 1665.76,246.486 1670.05,246.376 L1670.71,246.376 L1670.71,242.416 L1648.71,242.416 L1648.71,246.376 L1650.47,246.376 C1654.65,246.376 1656.41,247.586 1656.41,250.446 C1656.41,251.656 1656.08,252.976 1655.31,254.846 L1645.3,279.706 M1710.84,277.506 C1707.32,285.426 1703.58,288.616 1697.86,288.616 C1689.06,288.616 1683.56,280.586 1683.56,267.716 C1683.56,254.296 1688.95,245.496 1697.09,245.496 C1700.39,245.496 1703.25,247.036 1703.25,248.796 C1703.25,249.126 1703.14,249.456 1702.59,250.116 C1700.83,252.206 1700.39,253.306 1700.39,255.176 C1700.39,258.806 1703.14,261.336 1706.99,261.336 C1710.95,261.336 1713.7,258.256 1713.7,253.856 C1713.7,246.376 1706.33,240.766 1696.54,240.766 C1682.24,240.766 1672.01,252.426 1672.01,268.926 C1672.01,284.546 1681.36,295.326 1695,295.326 C1704.79,295.326 1710.4,290.816 1715.13,279.156 L1710.84,277.506 M1737.88,212.606 L1717.53,213.816 L1717.53,218.546 L1722.92,218.546 C1726.99,218.656 1727.54,219.316 1727.54,224.046 L1727.54,285.316 C1727.43,286.966 1727.32,287.626 1726.88,288.176 C1726.11,289.166 1724.02,289.606 1719.29,289.716 L1718.52,289.716 L1718.52,293.676 L1747.01,293.676 L1747.01,289.716 L1746.24,289.716 C1738.87,289.496 1737.88,288.946 1737.88,284.986 L1737.88,212.606 M1801.23,268.926 C1801.34,252.426 1791.99,240.766 1778.57,240.766 C1764.49,240.766 1753.93,252.976 1753.93,269.476 C1753.93,284.986 1763.94,295.326 1778.79,295.326 C1789.35,295.326 1796.72,290.156 1801.23,279.706 L1797.38,277.616 C1792.87,286.086 1788.25,289.386 1780.88,289.386 C1775.27,289.386 1771.2,287.076 1768.34,282.126 C1766.36,278.826 1765.48,274.976 1765.59,268.926 L1801.23,268.926 M1765.7,264.196 C1765.7,256.496 1769.22,245.496 1778.46,245.496 C1785.06,245.496 1789.46,251.326 1789.46,260.236 C1789.46,263.316 1788.47,264.196 1784.95,264.196 L1765.7,264.196 "
     id="path18" />
  <polyline
     class="BarLine"
     fill="none"
     stroke="#000000"
     stroke-width="4.46"
     stroke-linejoin="bevel"
     points="2408.03,3663.12 2408.03,3765.04"
     id="polyline22" />
  <polyline
     class="BarLine"
     fill="none"
     stroke="#000000"
     stroke-width="4.46"
     stroke-linejoin="bevel"
     points="2076.5,3663.12 2076.5,3765.04"
     id="polyline24" />
  <polyline
     class="BarLine"
     fill="none"
     stroke="#000000"
     stroke-width="4.46"
     stroke-linejoin="bevel"
     points="1744.98,3663.12 1744.98,3765.04"
     id="polyline26" />
  <polyline
     class="BarLine"
     fill="none"
     stroke="#000000"
     stroke-width="4.46"
     stroke-linejoin="bevel"
     points="2739.55,3663.12 2739.55,3765.04"
     id="polyline27" />
  <polyline
     class="BarLine"
     fill="none"
     stroke="#000000"
     stroke-width="13.64"
     stroke-linejoin="bevel"
     points="2757.78,3663.12 2757.78,3765.04"
     id="polyline28" />
  <polyline
     class="BarLine"
     fill="none"
     stroke="#000000"
     stroke-width="4.46"
     stroke-linejoin="bevel"
     points="1413.45,3663.12 1413.45,3765.04"
     id="polyline29" />
  <polyline
     class="BarLine"
     fill="none"
     stroke="#000000"
     stroke-width="4.46"
     stroke-linejoin="bevel"
     points="1081.92,3663.12 1081.92,3765.04"
     id="polyline32" />
  <polyline
     class="BarLine"
     fill="none"
     stroke="#000000"
     stroke-width="4.46"
     stroke-linejoin="bevel"
     points="750.399,3663.12 750.399,3765.04"
     id="polyline35" />
  <polyline
     class="BarLine"
     fill="none"
     stroke="#000000"
     stroke-width="4.46"
     stroke-linejoin="bevel"
     points="2762.37,3338.38 2762.37,3440.3"
     id="polyline37" />
  <polyline
     class="BarLine"
     fill="none"
     stroke="#000000"
     stroke-width="4.46"
     stroke-linejoin="bevel"
     points="2638.37,2145.64 2638.37,2247.56"
     id="polyline38"
     transform="translate(0,540)" />
  <polyline
     class="BarLine"
     fill="none"
     stroke="#000000"
     stroke-width="4.46"
     stroke-linejoin="bevel"
     points="1486.37,3338.38 1486.37,3440.3"
     id="polyline39" />
  <polyline
     class="BarLine"
     fill="none"
     stroke="#000000"
     stroke-width="4.46"
     stroke-linejoin="bevel"
     points="2638.37,3013.64 2638.37,3115.57"
     id="polyline41" />
  <polyline
     class="BarLine"
     fill="none"
     stroke="#000000"
     stroke-width="4.46"
     stroke-linejoin="bevel"
     points="2638.37,2840.04 2638.37,2941.97"
     id="polyline43" />
  <path
     class="Clef"
     transform="matrix(0.992001,0,0,0.992001,355.199,3064.6)"
     d="M1.3,-25.2 C0.6,-25.2 0,-24.6 0,-23.9 L0,23.9 C0,24.6 0.6,25.2 1.3,25.2 L12.3,25.2 C13,25.2 13.6,24.6 13.6,23.9 L13.6,-23.9 C13.6,-24.6 13,-25.2 12.3,-25.2 L1.3,-25.2 M22.9,-25.2 C22.2,-25.2 21.6,-24.6 21.6,-23.9 L21.6,23.9 C21.6,24.6 22.2,25.2 22.9,25.2 L33.9,25.2 C34.6,25.2 35.2,24.6 35.2,23.9 L35.2,-23.9 C35.2,-24.6 34.6,-25.2 33.9,-25.2 L22.9,-25.2 "
     id="path155" />
  <path
     class="Clef"
     d="m 356.4886,2711.6016 c -0.6944,0 -1.2896,0.5952 -1.2896,1.2896 v 47.4176 c 0,0.6944 0.5952,1.2896 1.2896,1.2896 h 10.91201 c 0.6944,0 1.2896,-0.5952 1.2896,-1.2896 v -47.4176 c 0,-0.6944 -0.5952,-1.2896 -1.2896,-1.2896 H 356.4886 m 21.42722,0 c -0.6944,0 -1.2896,0.5952 -1.2896,1.2896 v 47.4176 c 0,0.6944 0.5952,1.2896 1.2896,1.2896 h 10.91201 c 0.6944,0 1.28961,-0.5952 1.28961,-1.2896 v -47.4176 c 0,-0.6944 -0.59521,-1.2896 -1.28961,-1.2896 h -10.91201"
     id="path157"
     style="stroke-width:0.992001" />
  <path
     class="Clef"
     transform="matrix(0.992001,0,0,0.992001,1631.2,3389.34)"
     d="M1.3,-25.2 C0.6,-25.2 0,-24.6 0,-23.9 L0,23.9 C0,24.6 0.6,25.2 1.3,25.2 L12.3,25.2 C13,25.2 13.6,24.6 13.6,23.9 L13.6,-23.9 C13.6,-24.6 13,-25.2 12.3,-25.2 L1.3,-25.2 M22.9,-25.2 C22.2,-25.2 21.6,-24.6 21.6,-23.9 L21.6,23.9 C21.6,24.6 22.2,25.2 22.9,25.2 L33.9,25.2 C34.6,25.2 35.2,24.6 35.2,23.9 L35.2,-23.9 C35.2,-24.6 34.6,-25.2 33.9,-25.2 L22.9,-25.2 "
     id="path163" />
  <path
     class="Clef"
     transform="matrix(0.992001,0,0,0.992001,355.199,3714.08)"
     d="M1.3,-25.2 C0.6,-25.2 0,-24.6 0,-23.9 L0,23.9 C0,24.6 0.6,25.2 1.3,25.2 L12.3,25.2 C13,25.2 13.6,24.6 13.6,23.9 L13.6,-23.9 C13.6,-24.6 13,-25.2 12.3,-25.2 L1.3,-25.2 M22.9,-25.2 C22.2,-25.2 21.6,-24.6 21.6,-23.9 L21.6,23.9 C21.6,24.6 22.2,25.2 22.9,25.2 L33.9,25.2 C34.6,25.2 35.2,24.6 35.2,23.9 L35.2,-23.9 C35.2,-24.6 34.6,-25.2 33.9,-25.2 L22.9,-25.2 "
     id="path167" />
  <path
     class="Clef"
     transform="matrix(0.992001,0,0,0.992001,355.199,3389.34)"
     d="M1.3,-25.2 C0.6,-25.2 0,-24.6 0,-23.9 L0,23.9 C0,24.6 0.6,25.2 1.3,25.2 L12.3,25.2 C13,25.2 13.6,24.6 13.6,23.9 L13.6,-23.9 C13.6,-24.6 13,-25.2 12.3,-25.2 L1.3,-25.2 M22.9,-25.2 C22.2,-25.2 21.6,-24.6 21.6,-23.9 L21.6,23.9 C21.6,24.6 22.2,25.2 22.9,25.2 L33.9,25.2 C34.6,25.2 35.2,24.6 35.2,23.9 L35.2,-23.9 C35.2,-24.6 34.6,-25.2 33.9,-25.2 L22.9,-25.2 "
     id="path168" />
  <path
     class="Clef"
     transform="matrix(0.992001,0,0,0.992001,355.199,2891)"
     d="M1.3,-25.2 C0.6,-25.2 0,-24.6 0,-23.9 L0,23.9 C0,24.6 0.6,25.2 1.3,25.2 L12.3,25.2 C13,25.2 13.6,24.6 13.6,23.9 L13.6,-23.9 C13.6,-24.6 13,-25.2 12.3,-25.2 L1.3,-25.2 M22.9,-25.2 C22.2,-25.2 21.6,-24.6 21.6,-23.9 L21.6,23.9 C21.6,24.6 22.2,25.2 22.9,25.2 L33.9,25.2 C34.6,25.2 35.2,24.6 35.2,23.9 L35.2,-23.9 C35.2,-24.6 34.6,-25.2 33.9,-25.2 L22.9,-25.2 "
     id="path169" />
  <path
     class="TimeSig"
     d="m 434.15862,2724.3984 v 7.3408 h -8.23361 c -0.6944,0 -1.3888,0.5952 -1.3888,1.3888 v 1.8848 c 0,0.7936 0.6944,1.3888 1.3888,1.3888 h 30.05763 c 0.7936,0 1.3888,-0.5952 1.3888,-1.3888 v -1.8848 c 0,-0.7936 -0.5952,-1.3888 -1.3888,-1.3888 h -8.82881 v -7.3408 h 8.82881 c 0.7936,0 1.3888,-0.6944 1.3888,-1.488 v -1.8848 c 0,-0.6944 -0.5952,-1.3888 -1.3888,-1.3888 h -8.82881 v -15.7728 c 0,-0.5952 -0.2976,-1.0912 -0.7936,-1.2896 l -1.1904,-0.5952 c -0.1984,-0.099 -0.496,-0.1984 -0.6944,-0.1984 -0.2976,0.099 -0.6944,0.1984 -0.8928,0.3968 l -9.02721,8.2336 c -0.2976,0.2976 -0.3968,0.6944 -0.3968,1.0912 v 8.1344 h -11.40801 c 0,0 11.01121,-11.904 22.71682,-27.5776 0.3968,-0.496 0.496,-0.992 0.496,-1.3888 0,-0.496 -0.1984,-0.8928 -0.2976,-0.992 l -2.1824,-2.1824 c -0.1984,-0.1984 -0.5952,-0.3968 -0.992,-0.3968 -0.5952,0 -13.98721,0 -14.68162,0 -0.7936,0 -1.2896,0.5952 -1.3888,1.1904 0,0 -0.496,7.3408 -3.0752,15.376 -2.5792,8.0352 -5.55521,12.9952 -8.13441,16.6656 0,0 -0.2976,0.496 -0.2976,1.0912 0,0.1984 0,0.3968 0.0992,0.5952 0.3968,0.6944 0.992,1.7856 0.992,1.7856 0,0 0.1984,0.5952 1.0912,0.5952 h 17.06242"
     id="path185"
     style="stroke-width:0.992001" />
  <path
     class="TimeSig"
     d="m 434.15862,2773.9984 v 7.3408 h -8.23361 c -0.6944,0 -1.3888,0.5952 -1.3888,1.3888 v 1.8848 c 0,0.7936 0.6944,1.3888 1.3888,1.3888 h 30.05763 c 0.7936,0 1.3888,-0.5952 1.3888,-1.3888 v -1.8848 c 0,-0.7936 -0.5952,-1.3888 -1.3888,-1.3888 h -8.82881 v -7.3408 h 8.82881 c 0.7936,0 1.3888,-0.6944 1.3888,-1.488 v -1.8848 c 0,-0.6944 -0.5952,-1.3888 -1.3888,-1.3888 h -8.82881 v -15.7728 c 0,-0.5952 -0.2976,-1.0912 -0.7936,-1.2896 l -1.1904,-0.5952 c -0.1984,-0.099 -0.496,-0.1984 -0.6944,-0.1984 -0.2976,0.099 -0.6944,0.1984 -0.8928,0.3968 l -9.02721,8.2336 c -0.2976,0.2976 -0.3968,0.6944 -0.3968,1.0912 v 8.1344 h -11.40801 c 0,0 11.01121,-11.904 22.71682,-27.5776 0.3968,-0.496 0.496,-0.992 0.496,-1.3888 0,-0.496 -0.1984,-0.8928 -0.2976,-0.992 l -2.1824,-2.1824 c -0.1984,-0.1984 -0.5952,-0.3968 -0.992,-0.3968 -0.5952,0 -13.98721,0 -14.68162,0 -0.7936,0 -1.2896,0.5952 -1.3888,1.1904 0,0 -0.496,7.3408 -3.0752,15.376 -2.5792,8.0352 -5.55521,12.9952 -8.13441,16.6656 0,0 -0.2976,0.496 -0.2976,1.0912 0,0.1984 0,0.3968 0.0992,0.5952 0.3968,0.6944 0.992,1.7856 0.992,1.7856 0,0 0.1984,0.5952 1.0912,0.5952 h 17.06242"
     id="path186"
     style="stroke-width:0.992001" />
  <path
     class="Rest"
     transform="matrix(0.992001,0,0,0.992001,900.049,3714.08)"
     d="M1.4,-0.5 C0.6,-0.5 0,0.1 0,0.9 L0,11.7 C0,12.5 0.6,13.1 1.4,13.1 L31.1,13.1 C31.9,13.1 32.5,12.5 32.5,11.7 L32.5,0.9 C32.5,0.1 31.9,-0.5 31.1,-0.5 L1.4,-0.5 "
     id="path191" />
  <path
     class="Rest"
     transform="matrix(0.992001,0,0,0.992001,1231.58,3714.08)"
     d="M1.4,-0.5 C0.6,-0.5 0,0.1 0,0.9 L0,11.7 C0,12.5 0.6,13.1 1.4,13.1 L31.1,13.1 C31.9,13.1 32.5,12.5 32.5,11.7 L32.5,0.9 C32.5,0.1 31.9,-0.5 31.1,-0.5 L1.4,-0.5 "
     id="path192" />
  <path
     class="Rest"
     transform="matrix(0.992001,0,0,0.992001,2557.68,3714.08)"
     d="M1.4,-0.5 C0.6,-0.5 0,0.1 0,0.9 L0,11.7 C0,12.5 0.6,13.1 1.4,13.1 L31.1,13.1 C31.9,13.1 32.5,12.5 32.5,11.7 L32.5,0.9 C32.5,0.1 31.9,-0.5 31.1,-0.5 L1.4,-0.5 "
     id="path193" />
  <path
     class="Rest"
     transform="matrix(0.992001,0,0,0.992001,2226.15,3714.08)"
     d="M1.4,-0.5 C0.6,-0.5 0,0.1 0,0.9 L0,11.7 C0,12.5 0.6,13.1 1.4,13.1 L31.1,13.1 C31.9,13.1 32.5,12.5 32.5,11.7 L32.5,0.9 C32.5,0.1 31.9,-0.5 31.1,-0.5 L1.4,-0.5 "
     id="path197" />
  <path
     class="Rest"
     transform="matrix(0.992001,0,0,0.992001,2197.01,3389.34)"
     d="M1.4,-0.5 C0.6,-0.5 0,0.1 0,0.9 L0,11.7 C0,12.5 0.6,13.1 1.4,13.1 L31.1,13.1 C31.9,13.1 32.5,12.5 32.5,11.7 L32.5,0.9 C32.5,0.1 31.9,-0.5 31.1,-0.5 L1.4,-0.5 "
     id="path198" />
  <path
     class="Rest"
     transform="matrix(0.992001,0,0,0.992001,1894.63,3714.08)"
     d="M1.4,-0.5 C0.6,-0.5 0,0.1 0,0.9 L0,11.7 C0,12.5 0.6,13.1 1.4,13.1 L31.1,13.1 C31.9,13.1 32.5,12.5 32.5,11.7 L32.5,0.9 C32.5,0.1 31.9,-0.5 31.1,-0.5 L1.4,-0.5 "
     id="path200" />
  <path
     class="Rest"
     transform="matrix(0.992001,0,0,0.992001,1563.1,3714.08)"
     d="M1.4,-0.5 C0.6,-0.5 0,0.1 0,0.9 L0,11.7 C0,12.5 0.6,13.1 1.4,13.1 L31.1,13.1 C31.9,13.1 32.5,12.5 32.5,11.7 L32.5,0.9 C32.5,0.1 31.9,-0.5 31.1,-0.5 L1.4,-0.5 "
     id="path203" />
  <path
     class="Rest"
     transform="matrix(0.992001,0,0,0.992001,921.008,3389.34)"
     d="M1.4,-0.5 C0.6,-0.5 0,0.1 0,0.9 L0,11.7 C0,12.5 0.6,13.1 1.4,13.1 L31.1,13.1 C31.9,13.1 32.5,12.5 32.5,11.7 L32.5,0.9 C32.5,0.1 31.9,-0.5 31.1,-0.5 L1.4,-0.5 "
     id="path204" />
  <path
     class="Rest"
     transform="matrix(0.992001,0,0,0.992001,553.023,3714.08)"
     d="M1.4,-0.5 C0.6,-0.5 0,0.1 0,0.9 L0,11.7 C0,12.5 0.6,13.1 1.4,13.1 L31.1,13.1 C31.9,13.1 32.5,12.5 32.5,11.7 L32.5,0.9 C32.5,0.1 31.9,-0.5 31.1,-0.5 L1.4,-0.5 "
     id="path205" />
  <g
     inkscape:groupmode="layer"
     id="layer2"
     inkscape:label="Layer 2">
    <path
       style="fill:none;stroke:#808080;stroke-width:5;stroke-dasharray:10,20;stroke-dashoffset:0"
       d="M 1091.67,525.7287 V 2131.4713"
       id="path220"
       inkscape:export-filename="metricCycle_b.pdf"
       inkscape:export-xdpi="96"
       inkscape:export-ydpi="96" />
    <path
       style="fill:none;stroke:#808080;stroke-width:4;stroke-dasharray:8,16;stroke-dashoffset:0"
       d="M 807.67,525.7287 V 2131.4713"
       id="path221" />
    <path
       style="fill:none;stroke:#808080;stroke-width:4;stroke-dasharray:8,16;stroke-dashoffset:0"
       d="M 1375.67,525.7287 V 2131.4713"
       id="path222" />
    <path
       style="fill:none;stroke:#808080;stroke-width:3;stroke-dasharray:6,12;stroke-dashoffset:0"
       d="M 1281.67,525.7287 V 2131.4713"
       id="path223" />
    <path
       style="fill:none;stroke:#808080;stroke-width:3;stroke-dasharray:6,12;stroke-dashoffset:0"
       d="M 901.67,525.7287 V 2131.4713"
       id="path224" />
    <path
       style="fill:none;stroke:#808080;stroke-width:2;stroke-dasharray:4,8;stroke-dashoffset:0"
       d="M 711.67,525.7287 V 2131.4713"
       id="path225" />
    <path
       style="fill:none;stroke:#808080;stroke-width:2;stroke-dasharray:4,8;stroke-dashoffset:0"
       d="M 1471.67,525.7287 V 2131.4713"
       id="path226" />
  </g>
  <g
     inkscape:groupmode="layer"
     id="layer1"
     inkscape:label="Layer 1">
    <polyline
       class="StaffLines"
       fill="none"
       stroke="#000000"
       stroke-width="2.73"
       stroke-linejoin="bevel"
       points="336.599,634.198 1648.6,634.198"
       id="polyline1" />
    <polyline
       class="StaffLines"
       fill="none"
       stroke="#000000"
       stroke-width="2.73"
       stroke-linejoin="bevel"
       points="336.599,807.799 1648.6,807.799"
       id="polyline2" />
    <polyline
       class="StaffLines"
       fill="none"
       stroke="#000000"
       stroke-width="2.73"
       stroke-linejoin="bevel"
       points="336.599,981.399 1648.6,981.399"
       id="polyline3" />
    <polyline
       class="StaffLines"
       fill="none"
       stroke="#000000"
       stroke-width="2.73"
       stroke-linejoin="bevel"
       points="336.599,1155 1648.6,1155"
       id="polyline4" />
    <polyline
       class="StaffLines"
       fill="none"
       stroke="#000000"
       stroke-width="2.73"
       stroke-linejoin="bevel"
       points="336.599,1328.6 1648.6,1328.6"
       id="polyline5" />
    <polyline
       class="StaffLines"
       fill="none"
       stroke="#000000"
       stroke-width="2.73"
       stroke-linejoin="bevel"
       points="336.599,1502.2 1648.6,1502.2"
       id="polyline6" />
    <polyline
       class="StaffLines"
       fill="none"
       stroke="#000000"
       stroke-width="2.73"
       stroke-linejoin="bevel"
       points="336.599,1675.8 1648.6,1675.8"
       id="polyline7" />
    <polyline
       class="StaffLines"
       fill="none"
       stroke="#000000"
       stroke-width="2.73"
       stroke-linejoin="bevel"
       points="336.599,1849.4 1648.6,1849.4"
       id="polyline8" />
    <polyline
       class="StaffLines"
       fill="none"
       stroke="#000000"
       stroke-width="2.73"
       stroke-linejoin="bevel"
       points="336.599,2023 1648.6,2023"
       id="polyline9" />
    <polyline
       class="BarLine"
       fill="none"
       stroke="#000000"
       stroke-width="4.46"
       stroke-linejoin="bevel"
       points="1646.37,1104.03 1646.37,1205.96"
       id="polyline20" />
    <polyline
       class="BarLine"
       fill="none"
       stroke="#000000"
       stroke-width="4.46"
       stroke-linejoin="bevel"
       points="1646.37,1277.64 1646.37,1379.56"
       id="polyline23" />
    <polyline
       class="BarLine"
       fill="none"
       stroke="#000000"
       stroke-width="4.46"
       stroke-linejoin="bevel"
       points="1646.37,1451.24 1646.37,1553.16"
       id="polyline25" />
    <polyline
       class="BarLine"
       fill="none"
       stroke="#000000"
       stroke-width="4.46"
       stroke-linejoin="bevel"
       points="1646.37,1624.84 1646.37,1726.76"
       id="polyline30" />
    <polyline
       class="BarLine"
       fill="none"
       stroke="#000000"
       stroke-width="4.46"
       stroke-linejoin="bevel"
       points="1646.37,583.234 1646.37,685.162"
       id="polyline31" />
    <polyline
       class="BarLine"
       fill="none"
       stroke="#000000"
       stroke-width="4.46"
       stroke-linejoin="bevel"
       points="1646.37,930.435 1646.37,1032.36"
       id="polyline33" />
    <polyline
       class="BarLine"
       fill="none"
       stroke="#000000"
       stroke-width="4.46"
       stroke-linejoin="bevel"
       points="1646.37,1798.44 1646.37,1900.36"
       id="polyline34" />
    <polyline
       class="BarLine"
       fill="none"
       stroke="#000000"
       stroke-width="4.46"
       stroke-linejoin="bevel"
       points="1646.37,1972.04 1646.37,2073.96"
       id="polyline36" />
    <polyline
       class="BarLine"
       fill="none"
       stroke="#000000"
       stroke-width="4.46"
       stroke-linejoin="bevel"
       points="1646.37,756.835 1646.37,858.763"
       id="polyline44" />
    <polyline
       class="Stem"
       fill="none"
       stroke="#000000"
       stroke-width="2.48"
       stroke-linejoin="bevel"
       points="1197.58,1671.83 1197.58,1613.8"
       id="polyline45" />
    <polyline
       class="Stem"
       fill="none"
       stroke="#000000"
       stroke-width="2.48"
       stroke-linejoin="bevel"
       points="1548.22,1498.23 1548.22,1440.2"
       id="polyline46" />
    <polyline
       class="Stem"
       fill="none"
       stroke="#000000"
       stroke-width="2.48"
       stroke-linejoin="bevel"
       points="1220.25,1845.43 1220.25,1787.4"
       id="polyline47" />
    <polyline
       class="Stem"
       fill="none"
       stroke="#000000"
       stroke-width="2.48"
       stroke-linejoin="bevel"
       points="1106.53,1151.03 1106.53,1093"
       id="polyline48"
       transform="translate(-3.7869797e-5,-0.04960005)" />
    <polyline
       class="Stem"
       fill="none"
       stroke="#000000"
       stroke-width="2.48"
       stroke-linejoin="bevel"
       points="537.944,630.23 537.944,572.198"
       id="polyline49" />
    <polyline
       class="Stem"
       fill="none"
       stroke="#000000"
       stroke-width="2.48"
       stroke-linejoin="bevel"
       points="1296.06,1151.03 1296.06,1093"
       id="polyline50" />
    <polyline
       class="Stem"
       fill="none"
       stroke="#000000"
       stroke-width="2.48"
       stroke-linejoin="bevel"
       points="1106.53,630.23 1106.53,572.198"
       id="polyline51" />
    <polyline
       class="Stem"
       fill="none"
       stroke="#000000"
       stroke-width="2.48"
       stroke-linejoin="bevel"
       points="1485.59,1151.03 1485.59,1093"
       id="polyline52" />
    <polyline
       class="Stem"
       fill="none"
       stroke="#000000"
       stroke-width="2.48"
       stroke-linejoin="bevel"
       points="537.944,803.831 537.944,745.799"
       id="polyline53"
       transform="translate(-6.5978622e-6,-0.04960005)" />
    <polyline
       class="Stem"
       fill="none"
       stroke="#000000"
       stroke-width="2.48"
       stroke-linejoin="bevel"
       points="917.003,803.831 917.003,745.799"
       id="polyline54" />
    <polyline
       class="Stem"
       fill="none"
       stroke="#000000"
       stroke-width="2.48"
       stroke-linejoin="bevel"
       points="1296.06,803.831 1296.06,745.799"
       id="polyline55" />
    <polyline
       class="Stem"
       fill="none"
       stroke="#000000"
       stroke-width="2.48"
       stroke-linejoin="bevel"
       points="537.944,977.431 537.944,919.399"
       id="polyline56"
       transform="translate(-6.5978622e-6,-0.04960005)" />
    <polyline
       class="Stem"
       fill="none"
       stroke="#000000"
       stroke-width="2.48"
       stroke-linejoin="bevel"
       points="727.473,1151.03 727.473,1093"
       id="polyline57" />
    <polyline
       class="Stem"
       fill="none"
       stroke="#000000"
       stroke-width="2.48"
       stroke-linejoin="bevel"
       points="822.238,977.431 822.238,919.399"
       id="polyline58" />
    <polyline
       class="Stem"
       fill="none"
       stroke="#000000"
       stroke-width="2.48"
       stroke-linejoin="bevel"
       points="1106.53,977.431 1106.53,919.399"
       id="polyline59"
       transform="translate(-3.7869797e-5,-0.04960005)" />
    <polyline
       class="Stem"
       fill="none"
       stroke="#000000"
       stroke-width="2.48"
       stroke-linejoin="bevel"
       points="1511.96,2019.03 1511.96,1961"
       id="polyline60" />
    <polyline
       class="Stem"
       fill="none"
       stroke="#000000"
       stroke-width="2.48"
       stroke-linejoin="bevel"
       points="532.999,1324.63 532.999,1266.6"
       id="polyline61"
       transform="translate(4.9439934,-0.04960005)" />
    <polyline
       class="Stem"
       fill="none"
       stroke="#000000"
       stroke-width="2.48"
       stroke-linejoin="bevel"
       points="1348.8,2019.03 1348.8,1961"
       id="polyline62" />
    <polyline
       class="Stem"
       fill="none"
       stroke="#000000"
       stroke-width="2.48"
       stroke-linejoin="bevel"
       points="1185.64,2019.03 1185.64,1961"
       id="polyline63" />
    <polyline
       class="Stem"
       fill="none"
       stroke="#000000"
       stroke-width="2.48"
       stroke-linejoin="bevel"
       points="723.353,1324.63 723.353,1266.6"
       id="polyline64" />
    <polyline
       class="Stem"
       fill="none"
       stroke="#000000"
       stroke-width="2.48"
       stroke-linejoin="bevel"
       points="1022.48,2019.03 1022.48,1961"
       id="polyline65" />
    <polyline
       class="Stem"
       fill="none"
       stroke="#000000"
       stroke-width="2.48"
       stroke-linejoin="bevel"
       points="913.707,1324.63 913.707,1266.6"
       id="polyline66"
       transform="translate(3.2959959,-0.04960005)" />
    <polyline
       class="Stem"
       fill="none"
       stroke="#000000"
       stroke-width="2.48"
       stroke-linejoin="bevel"
       points="859.32,2019.03 859.32,1961"
       id="polyline67" />
    <polyline
       class="Stem"
       fill="none"
       stroke="#000000"
       stroke-width="2.48"
       stroke-linejoin="bevel"
       points="1104.06,1324.63 1104.06,1266.6"
       id="polyline68"
       transform="translate(2.4699621,-0.04960005)" />
    <polyline
       class="Stem"
       fill="none"
       stroke="#000000"
       stroke-width="2.48"
       stroke-linejoin="bevel"
       points="696.16,2019.03 696.16,1961"
       id="polyline69" />
    <polyline
       class="Stem"
       fill="none"
       stroke="#000000"
       stroke-width="2.48"
       stroke-linejoin="bevel"
       points="532.999,2019.03 532.999,1961"
       id="polyline70"
       transform="translate(4.9439934,-0.04960005)" />
    <polyline
       class="Stem"
       fill="none"
       stroke="#000000"
       stroke-width="2.48"
       stroke-linejoin="bevel"
       points="1294.41,1324.63 1294.41,1266.6"
       id="polyline71"
       transform="translate(1.6499584,-0.04960005)" />
    <polyline
       class="Stem"
       fill="none"
       stroke="#000000"
       stroke-width="2.48"
       stroke-linejoin="bevel"
       points="1390.83,977.431 1390.83,919.399"
       id="polyline72" />
    <polyline
       class="Stem"
       fill="none"
       stroke="#000000"
       stroke-width="2.48"
       stroke-linejoin="bevel"
       points="1484.77,1324.63 1484.77,1266.6"
       id="polyline73" />
    <polyline
       class="Stem"
       fill="none"
       stroke="#000000"
       stroke-width="2.48"
       stroke-linejoin="bevel"
       points="917.003,1151.03 917.003,1093"
       id="polyline74"
       transform="translate(-4.1387924e-6,-0.04960005)" />
    <polyline
       class="Stem"
       fill="none"
       stroke="#000000"
       stroke-width="2.48"
       stroke-linejoin="bevel"
       points="1447.69,1845.43 1447.69,1787.4"
       id="polyline75" />
    <polyline
       class="Stem"
       fill="none"
       stroke="#000000"
       stroke-width="2.48"
       stroke-linejoin="bevel"
       points="992.815,1845.43 992.815,1787.4"
       id="polyline76" />
    <polyline
       class="Stem"
       fill="none"
       stroke="#000000"
       stroke-width="2.48"
       stroke-linejoin="bevel"
       points="765.379,1845.43 765.379,1787.4"
       id="polyline77" />
    <polyline
       class="Stem"
       fill="none"
       stroke="#000000"
       stroke-width="2.48"
       stroke-linejoin="bevel"
       points="537.944,1151.03 537.944,1093"
       id="polyline78"
       transform="translate(-6.5978622e-6,-0.04960005)" />
    <polyline
       class="Stem"
       fill="none"
       stroke="#000000"
       stroke-width="2.48"
       stroke-linejoin="bevel"
       points="537.944,1845.43 537.944,1787.4"
       id="polyline79"
       transform="translate(-6.5978622e-6,-0.04960005)" />
    <polyline
       class="Stem"
       fill="none"
       stroke="#000000"
       stroke-width="2.48"
       stroke-linejoin="bevel"
       points="1579.61,1671.83 1579.61,1613.8"
       id="polyline80" />
    <polyline
       class="Stem"
       fill="none"
       stroke="#000000"
       stroke-width="2.48"
       stroke-linejoin="bevel"
       points="1484.1,1671.83 1484.1,1613.8"
       id="polyline81" />
    <polyline
       class="Stem"
       fill="none"
       stroke="#000000"
       stroke-width="2.48"
       stroke-linejoin="bevel"
       points="532.999,1498.23 532.999,1440.2"
       id="polyline82"
       transform="translate(4.9439934,-0.04960005)" />
    <polyline
       class="Stem"
       fill="none"
       stroke="#000000"
       stroke-width="2.48"
       stroke-linejoin="bevel"
       points="1388.6,1671.83 1388.6,1613.8"
       id="polyline83" />
    <polyline
       class="Stem"
       fill="none"
       stroke="#000000"
       stroke-width="2.48"
       stroke-linejoin="bevel"
       points="1293.09,1671.83 1293.09,1613.8"
       id="polyline84" />
    <polyline
       class="Stem"
       fill="none"
       stroke="#000000"
       stroke-width="2.48"
       stroke-linejoin="bevel"
       points="659.902,1498.23 659.902,1440.2"
       id="polyline85" />
    <polyline
       class="Stem"
       fill="none"
       stroke="#000000"
       stroke-width="2.48"
       stroke-linejoin="bevel"
       points="1102.07,1671.83 1102.07,1613.8"
       id="polyline86"
       transform="translate(4.4699772,-0.0496)" />
    <polyline
       class="Stem"
       fill="none"
       stroke="#000000"
       stroke-width="2.48"
       stroke-linejoin="bevel"
       points="786.804,1498.23 786.804,1440.2"
       id="polyline87" />
    <polyline
       class="Stem"
       fill="none"
       stroke="#000000"
       stroke-width="2.48"
       stroke-linejoin="bevel"
       points="1006.56,1671.83 1006.56,1613.8"
       id="polyline88" />
    <polyline
       class="Stem"
       fill="none"
       stroke="#000000"
       stroke-width="2.48"
       stroke-linejoin="bevel"
       points="913.707,1498.23 913.707,1440.2"
       id="polyline89"
       transform="translate(3.2959959,-0.04960005)" />
    <polyline
       class="Stem"
       fill="none"
       stroke="#000000"
       stroke-width="2.48"
       stroke-linejoin="bevel"
       points="911.051,1671.83 911.051,1613.8"
       id="polyline90" />
    <polyline
       class="Stem"
       fill="none"
       stroke="#000000"
       stroke-width="2.48"
       stroke-linejoin="bevel"
       points="815.542,1671.83 815.542,1613.8"
       id="polyline91" />
    <polyline
       class="Stem"
       fill="none"
       stroke="#000000"
       stroke-width="2.48"
       stroke-linejoin="bevel"
       points="1040.61,1498.23 1040.61,1440.2"
       id="polyline92" />
    <polyline
       class="Stem"
       fill="none"
       stroke="#000000"
       stroke-width="2.48"
       stroke-linejoin="bevel"
       points="720.033,1671.83 720.033,1613.8"
       id="polyline93" />
    <polyline
       class="Stem"
       fill="none"
       stroke="#000000"
       stroke-width="2.48"
       stroke-linejoin="bevel"
       points="1167.51,1498.23 1167.51,1440.2"
       id="polyline94" />
    <polyline
       class="Stem"
       fill="none"
       stroke="#000000"
       stroke-width="2.48"
       stroke-linejoin="bevel"
       points="624.525,1671.83 624.525,1613.8"
       id="polyline95" />
    <polyline
       class="Stem"
       fill="none"
       stroke="#000000"
       stroke-width="2.48"
       stroke-linejoin="bevel"
       points="1294.41,1498.23 1294.41,1440.2"
       id="polyline96"
       transform="translate(1.6499584,-0.04960005)" />
    <polyline
       class="Stem"
       fill="none"
       stroke="#000000"
       stroke-width="2.48"
       stroke-linejoin="bevel"
       points="529.016,1671.83 529.016,1613.8"
       id="polyline97"
       transform="translate(8.9279934,-0.04960005)" />
    <polyline
       class="Stem"
       fill="none"
       stroke="#000000"
       stroke-width="2.48"
       stroke-linejoin="bevel"
       points="1421.32,1498.23 1421.32,1440.2"
       id="polyline98" />
    <path
       class="Note"
       d="m 886.018,1159.1168 c 0,4.2656 3.0752,9.0272 11.11041,9.0272 10.31681,0 21.12962,-8.432 21.12962,-17.1616 0,-5.8528 -4.96001,-9.1264 -11.11041,-9.1264 -9.62241,0 -21.12962,8.1344 -21.12962,17.2608"
       id="path98"
       style="stroke-width:0.992001" />
    <path
       class="Note"
       d="m 506.95899,1159.1168 c 0,4.2656 3.07521,9.0272 11.11041,9.0272 10.31682,0 21.12963,-8.432 21.12963,-17.1616 0,-5.8528 -4.96001,-9.1264 -11.11042,-9.1264 -9.6224,0 -21.12962,8.1344 -21.12962,17.2608"
       id="path99"
       style="stroke-width:0.992001" />
    <path
       class="Note"
       transform="matrix(0.992001,0,0,0.992001,1480.98,2023)"
       d="m 0,4.2 c 0,4.3 3.1,9.1 11.2,9.1 10.4,0 21.3,-8.5 21.3,-17.3 0,-5.9 -5,-9.2 -11.2,-9.2 C 11.6,-13.2 0,-5 0,4.2"
       id="path100" />
    <path
       class="Note"
       transform="matrix(0.992001,0,0,0.992001,1517.23,1502.2)"
       d="m 0,4.2 c 0,4.3 3.1,9.1 11.2,9.1 10.4,0 21.3,-8.5 21.3,-17.3 0,-5.9 -5,-9.2 -11.2,-9.2 C 11.6,-13.2 0,-5 0,4.2"
       id="path101" />
    <path
       class="Note"
       d="m 1075.55,1159.1168 c 0,4.2656 3.0752,9.0272 11.1104,9.0272 10.3168,0 21.1296,-8.432 21.1296,-17.1616 0,-5.8528 -4.96,-9.1264 -11.1104,-9.1264 -9.6224,0 -21.1296,8.1344 -21.1296,17.2608"
       id="path102"
       style="stroke-width:0.992001" />
    <path
       class="Note"
       transform="matrix(0.992001,0,0,0.992001,506.959,634.198)"
       d="m 0,4.2 c 0,4.3 3.1,9.1 11.2,9.1 10.4,0 21.3,-8.5 21.3,-17.3 0,-5.9 -5,-9.2 -11.2,-9.2 C 11.6,-13.2 0,-5 0,4.2"
       id="path103" />
    <path
       class="Note"
       d="m 0,4.2 c 0,4.3 3.1,9.1 11.2,9.1 10.4,0 21.3,-8.5 21.3,-17.3 0,-5.9 -5,-9.2 -11.2,-9.2 C 11.6,-13.2 0,-5 0,4.2"
       id="path104"
       transform="matrix(0.992001,0,0,0.992001,1265.08,1155)" />
    <path
       class="Note"
       transform="matrix(0.992001,0,0,0.992001,1075.55,634.198)"
       d="m 0,4.2 c 0,4.3 3.1,9.1 11.2,9.1 10.4,0 21.3,-8.5 21.3,-17.3 0,-5.9 -5,-9.2 -11.2,-9.2 C 11.6,-13.2 0,-5 0,4.2"
       id="path105" />
    <path
       class="Note"
       transform="matrix(0.992001,0,0,0.992001,1454.61,1155)"
       d="m 0,4.2 c 0,4.3 3.1,9.1 11.2,9.1 10.4,0 21.3,-8.5 21.3,-17.3 0,-5.9 -5,-9.2 -11.2,-9.2 C 11.6,-13.2 0,-5 0,4.2"
       id="path106" />
    <path
       class="Note"
       d="m 506.95899,811.9158 c 0,4.26561 3.07521,9.02721 11.11041,9.02721 10.31682,0 21.12963,-8.43201 21.12963,-17.16161 0,-5.85281 -4.96001,-9.12641 -11.11042,-9.12641 -9.6224,0 -21.12962,8.1344 -21.12962,17.26081"
       id="path107"
       style="stroke-width:0.992001" />
    <path
       class="Note"
       transform="matrix(0.992001,0,0,0.992001,696.489,1155)"
       d="m 0,4.2 c 0,4.3 3.1,9.1 11.2,9.1 10.4,0 21.3,-8.5 21.3,-17.3 0,-5.9 -5,-9.2 -11.2,-9.2 C 11.6,-13.2 0,-5 0,4.2"
       id="path108" />
    <path
       class="Note"
       d="m 1265.08,1506.3168 c 0,4.2656 3.0752,9.0272 11.1104,9.0272 10.3168,0 21.1296,-8.432 21.1296,-17.1616 0,-5.8528 -4.96,-9.1264 -11.1104,-9.1264 -9.6224,0 -21.1296,8.1344 -21.1296,17.2608"
       id="path109"
       style="stroke-width:0.992001" />
    <path
       class="Note"
       d="m 506.95899,1679.9168 c 0,4.2656 3.07521,9.0272 11.11041,9.0272 10.31682,0 21.12963,-8.432 21.12963,-17.1616 0,-5.8528 -4.96001,-9.1264 -11.11042,-9.1264 -9.6224,0 -21.12962,8.1344 -21.12962,17.2608"
       id="path110"
       style="stroke-width:0.992001" />
    <path
       class="Note"
       transform="matrix(0.992001,0,0,0.992001,886.018,807.799)"
       d="m 0,4.2 c 0,4.3 3.1,9.1 11.2,9.1 10.4,0 21.3,-8.5 21.3,-17.3 0,-5.9 -5,-9.2 -11.2,-9.2 C 11.6,-13.2 0,-5 0,4.2"
       id="path111" />
    <path
       class="Note"
       transform="matrix(0.992001,0,0,0.992001,1136.53,1502.2)"
       d="m 0,4.2 c 0,4.3 3.1,9.1 11.2,9.1 10.4,0 21.3,-8.5 21.3,-17.3 0,-5.9 -5,-9.2 -11.2,-9.2 C 11.6,-13.2 0,-5 0,4.2"
       id="path112" />
    <path
       class="Note"
       transform="matrix(0.992001,0,0,0.992001,593.54,1675.8)"
       d="m 0,4.2 c 0,4.3 3.1,9.1 11.2,9.1 10.4,0 21.3,-8.5 21.3,-17.3 0,-5.9 -5,-9.2 -11.2,-9.2 C 11.6,-13.2 0,-5 0,4.2"
       id="path113" />
    <path
       class="Note"
       transform="matrix(0.992001,0,0,0.992001,1009.62,1502.2)"
       d="m 0,4.2 c 0,4.3 3.1,9.1 11.2,9.1 10.4,0 21.3,-8.5 21.3,-17.3 0,-5.9 -5,-9.2 -11.2,-9.2 C 11.6,-13.2 0,-5 0,4.2"
       id="path114" />
    <path
       class="Note"
       transform="matrix(0.992001,0,0,0.992001,689.049,1675.8)"
       d="m 0,4.2 c 0,4.3 3.1,9.1 11.2,9.1 10.4,0 21.3,-8.5 21.3,-17.3 0,-5.9 -5,-9.2 -11.2,-9.2 C 11.6,-13.2 0,-5 0,4.2"
       id="path115" />
    <path
       class="Note"
       transform="matrix(0.992001,0,0,0.992001,1265.08,807.799)"
       d="m 0,4.2 c 0,4.3 3.1,9.1 11.2,9.1 10.4,0 21.3,-8.5 21.3,-17.3 0,-5.9 -5,-9.2 -11.2,-9.2 C 11.6,-13.2 0,-5 0,4.2"
       id="path116" />
    <path
       class="Note"
       transform="matrix(0.992001,0,0,0.992001,784.558,1675.8)"
       d="m 0,4.2 c 0,4.3 3.1,9.1 11.2,9.1 10.4,0 21.3,-8.5 21.3,-17.3 0,-5.9 -5,-9.2 -11.2,-9.2 C 11.6,-13.2 0,-5 0,4.2"
       id="path117" />
    <path
       class="Note"
       d="m 506.95899,985.5158 c 0,4.26561 3.07521,9.02721 11.11041,9.02721 10.31682,0 21.12963,-8.43201 21.12963,-17.16161 0,-5.85281 -4.96001,-9.12641 -11.11042,-9.12641 -9.6224,0 -21.12962,8.1344 -21.12962,17.26081"
       id="path118"
       style="stroke-width:0.992001" />
    <path
       class="Note"
       d="m 886.018,1506.3168 c 0,4.2656 3.0752,9.0272 11.11041,9.0272 10.31681,0 21.12962,-8.432 21.12962,-17.1616 0,-5.8528 -4.96001,-9.1264 -11.11041,-9.1264 -9.62241,0 -21.12962,8.1344 -21.12962,17.2608"
       id="path119"
       style="stroke-width:0.992001" />
    <path
       class="Note"
       d="m 0,4.2 c 0,4.3 3.1,9.1 11.2,9.1 10.4,0 21.3,-8.5 21.3,-17.3 0,-5.9 -5,-9.2 -11.2,-9.2 C 11.6,-13.2 0,-5 0,4.2"
       id="path120"
       transform="matrix(0.992001,0,0,0.992001,880.066,1675.8)" />
    <path
       class="Note"
       transform="matrix(0.992001,0,0,0.992001,755.82,1502.2)"
       d="m 0,4.2 c 0,4.3 3.1,9.1 11.2,9.1 10.4,0 21.3,-8.5 21.3,-17.3 0,-5.9 -5,-9.2 -11.2,-9.2 C 11.6,-13.2 0,-5 0,4.2"
       id="path121" />
    <path
       class="Note"
       transform="matrix(0.992001,0,0,0.992001,975.575,1675.8)"
       d="m 0,4.2 c 0,4.3 3.1,9.1 11.2,9.1 10.4,0 21.3,-8.5 21.3,-17.3 0,-5.9 -5,-9.2 -11.2,-9.2 C 11.6,-13.2 0,-5 0,4.2"
       id="path122" />
    <path
       class="Note"
       transform="matrix(0.992001,0,0,0.992001,628.917,1502.2)"
       d="m 0,4.2 c 0,4.3 3.1,9.1 11.2,9.1 10.4,0 21.3,-8.5 21.3,-17.3 0,-5.9 -5,-9.2 -11.2,-9.2 C 11.6,-13.2 0,-5 0,4.2"
       id="path123" />
    <path
       class="Note"
       transform="matrix(0.992001,0,0,0.992001,791.254,981.399)"
       d="m 0,4.2 c 0,4.3 3.1,9.1 11.2,9.1 10.4,0 21.3,-8.5 21.3,-17.3 0,-5.9 -5,-9.2 -11.2,-9.2 C 11.6,-13.2 0,-5 0,4.2"
       id="path124" />
    <path
       class="Note"
       transform="matrix(0.992001,0,0,0.992001,1390.33,1502.2)"
       d="m 0,4.2 c 0,4.3 3.1,9.1 11.2,9.1 10.4,0 21.3,-8.5 21.3,-17.3 0,-5.9 -5,-9.2 -11.2,-9.2 C 11.6,-13.2 0,-5 0,4.2"
       id="path125" />
    <path
       class="Note"
       d="m 1075.5499,1679.9168 c 0,4.2656 3.0752,9.0272 11.1104,9.0272 10.3168,0 21.1297,-8.432 21.1297,-17.1616 0,-5.8528 -4.9601,-9.1264 -11.1105,-9.1264 -9.6224,0 -21.1296,8.1344 -21.1296,17.2608"
       id="path126"
       style="stroke-width:0.992001" />
    <path
       class="Note"
       transform="matrix(0.992001,0,0,0.992001,1166.59,1675.8)"
       d="m 0,4.2 c 0,4.3 3.1,9.1 11.2,9.1 10.4,0 21.3,-8.5 21.3,-17.3 0,-5.9 -5,-9.2 -11.2,-9.2 C 11.6,-13.2 0,-5 0,4.2"
       id="path127" />
    <path
       class="Note"
       transform="matrix(0.992001,0,0,0.992001,1317.82,2023)"
       d="m 0,4.2 c 0,4.3 3.1,9.1 11.2,9.1 10.4,0 21.3,-8.5 21.3,-17.3 0,-5.9 -5,-9.2 -11.2,-9.2 C 11.6,-13.2 0,-5 0,4.2"
       id="path128" />
    <path
       class="Note"
       transform="matrix(0.992001,0,0,0.992001,1262.1,1675.8)"
       d="m 0,4.2 c 0,4.3 3.1,9.1 11.2,9.1 10.4,0 21.3,-8.5 21.3,-17.3 0,-5.9 -5,-9.2 -11.2,-9.2 C 11.6,-13.2 0,-5 0,4.2"
       id="path129" />
    <path
       class="Note"
       d="m 506.95899,1506.3168 c 0,4.2656 3.07521,9.0272 11.11041,9.0272 10.31682,0 21.12963,-8.432 21.12963,-17.1616 0,-5.8528 -4.96001,-9.1264 -11.11042,-9.1264 -9.6224,0 -21.12962,8.1344 -21.12962,17.2608"
       id="path130"
       style="stroke-width:0.992001" />
    <path
       class="Note"
       transform="matrix(0.992001,0,0,0.992001,1357.61,1675.8)"
       d="m 0,4.2 c 0,4.3 3.1,9.1 11.2,9.1 10.4,0 21.3,-8.5 21.3,-17.3 0,-5.9 -5,-9.2 -11.2,-9.2 C 11.6,-13.2 0,-5 0,4.2"
       id="path131" />
    <path
       class="Note"
       transform="matrix(0.992001,0,0,0.992001,1453.78,1328.6)"
       d="m 0,4.2 c 0,4.3 3.1,9.1 11.2,9.1 10.4,0 21.3,-8.5 21.3,-17.3 0,-5.9 -5,-9.2 -11.2,-9.2 C 11.6,-13.2 0,-5 0,4.2"
       id="path132" />
    <path
       class="Note"
       transform="matrix(0.992001,0,0,0.992001,1154.66,2023)"
       d="m 0,4.2 c 0,4.3 3.1,9.1 11.2,9.1 10.4,0 21.3,-8.5 21.3,-17.3 0,-5.9 -5,-9.2 -11.2,-9.2 C 11.6,-13.2 0,-5 0,4.2"
       id="path133" />
    <path
       class="Note"
       transform="matrix(0.992001,0,0,0.992001,1453.12,1675.8)"
       d="m 0,4.2 c 0,4.3 3.1,9.1 11.2,9.1 10.4,0 21.3,-8.5 21.3,-17.3 0,-5.9 -5,-9.2 -11.2,-9.2 C 11.6,-13.2 0,-5 0,4.2"
       id="path134" />
    <path
       class="Note"
       transform="matrix(0.992001,0,0,0.992001,991.496,2023)"
       d="m 0,4.2 c 0,4.3 3.1,9.1 11.2,9.1 10.4,0 21.3,-8.5 21.3,-17.3 0,-5.9 -5,-9.2 -11.2,-9.2 C 11.6,-13.2 0,-5 0,4.2"
       id="path135" />
    <path
       class="Note"
       transform="matrix(0.992001,0,0,0.992001,1548.63,1675.8)"
       d="m 0,4.2 c 0,4.3 3.1,9.1 11.2,9.1 10.4,0 21.3,-8.5 21.3,-17.3 0,-5.9 -5,-9.2 -11.2,-9.2 C 11.6,-13.2 0,-5 0,4.2"
       id="path136" />
    <path
       class="Note"
       transform="matrix(0.992001,0,0,0.992001,692.368,1328.6)"
       d="m 0,4.2 c 0,4.3 3.1,9.1 11.2,9.1 10.4,0 21.3,-8.5 21.3,-17.3 0,-5.9 -5,-9.2 -11.2,-9.2 C 11.6,-13.2 0,-5 0,4.2"
       id="path137" />
    <path
       class="Note"
       transform="matrix(0.992001,0,0,0.992001,828.335,2023)"
       d="m 0,4.2 c 0,4.3 3.1,9.1 11.2,9.1 10.4,0 21.3,-8.5 21.3,-17.3 0,-5.9 -5,-9.2 -11.2,-9.2 C 11.6,-13.2 0,-5 0,4.2"
       id="path138" />
    <path
       class="Note"
       d="m 886.018,1332.7168 c 0,4.2656 3.0752,9.0272 11.11041,9.0272 10.31681,0 21.12962,-8.432 21.12962,-17.1616 0,-5.8528 -4.96001,-9.1264 -11.11041,-9.1264 -9.62241,0 -21.12962,8.1344 -21.12962,17.2608"
       id="path139"
       style="stroke-width:0.992001" />
    <path
       class="Note"
       transform="matrix(0.992001,0,0,0.992001,1359.84,981.399)"
       d="m 0,4.2 c 0,4.3 3.1,9.1 11.2,9.1 10.4,0 21.3,-8.5 21.3,-17.3 0,-5.9 -5,-9.2 -11.2,-9.2 C 11.6,-13.2 0,-5 0,4.2"
       id="path140" />
    <path
       class="Note"
       transform="matrix(0.992001,0,0,0.992001,665.175,2023)"
       d="m 0,4.2 c 0,4.3 3.1,9.1 11.2,9.1 10.4,0 21.3,-8.5 21.3,-17.3 0,-5.9 -5,-9.2 -11.2,-9.2 C 11.6,-13.2 0,-5 0,4.2"
       id="path141" />
    <path
       class="Note"
       d="m 1075.55,1332.7168 c 0,4.2656 3.0752,9.0272 11.1104,9.0272 10.3168,0 21.1296,-8.432 21.1296,-17.1616 0,-5.8528 -4.96,-9.1264 -11.1104,-9.1264 -9.6224,0 -21.1296,8.1344 -21.1296,17.2608"
       id="path142"
       style="stroke-width:0.992001" />
    <path
       class="Note"
       d="m 506.95899,2027.1168 c 0,4.2656 3.07521,9.0272 11.11041,9.0272 10.31682,0 21.12963,-8.432 21.12963,-17.1616 0,-5.8528 -4.96001,-9.1264 -11.11042,-9.1264 -9.6224,0 -21.12962,8.1344 -21.12962,17.2608"
       id="path143"
       style="stroke-width:0.992001" />
    <path
       class="Note"
       d="m 1075.55,985.5158 c 0,4.26561 3.0752,9.02721 11.1104,9.02721 10.3168,0 21.1296,-8.43201 21.1296,-17.16161 0,-5.85281 -4.96,-9.12641 -11.1104,-9.12641 -9.6224,0 -21.1296,8.1344 -21.1296,17.26081"
       id="path144"
       style="stroke-width:0.992001" />
    <path
       class="Note"
       d="m 506.95899,1853.5168 c 0,4.2656 3.07521,9.0272 11.11041,9.0272 10.31682,0 21.12963,-8.432 21.12963,-17.1616 0,-5.8528 -4.96001,-9.1264 -11.11042,-9.1264 -9.6224,0 -21.12962,8.1344 -21.12962,17.2608"
       id="path145"
       style="stroke-width:0.992001" />
    <path
       class="Note"
       d="m 1265.08,1332.7168 c 0,4.2656 3.0752,9.0272 11.1104,9.0272 10.3168,0 21.1296,-8.432 21.1296,-17.1616 0,-5.8528 -4.96,-9.1264 -11.1104,-9.1264 -9.6224,0 -21.1296,8.1344 -21.1296,17.2608"
       id="path146"
       style="stroke-width:0.992001" />
    <path
       class="Note"
       transform="matrix(0.992001,0,0,0.992001,734.395,1849.4)"
       d="m 0,4.2 c 0,4.3 3.1,9.1 11.2,9.1 10.4,0 21.3,-8.5 21.3,-17.3 0,-5.9 -5,-9.2 -11.2,-9.2 C 11.6,-13.2 0,-5 0,4.2"
       id="path147" />
    <path
       class="Note"
       transform="matrix(0.992001,0,0,0.992001,1416.7,1849.4)"
       d="m 0,4.2 c 0,4.3 3.1,9.1 11.2,9.1 10.4,0 21.3,-8.5 21.3,-17.3 0,-5.9 -5,-9.2 -11.2,-9.2 C 11.6,-13.2 0,-5 0,4.2"
       id="path148" />
    <path
       class="Note"
       transform="matrix(0.992001,0,0,0.992001,961.83,1849.4)"
       d="m 0,4.2 c 0,4.3 3.1,9.1 11.2,9.1 10.4,0 21.3,-8.5 21.3,-17.3 0,-5.9 -5,-9.2 -11.2,-9.2 C 11.6,-13.2 0,-5 0,4.2"
       id="path149" />
    <path
       class="Note"
       transform="matrix(0.992001,0,0,0.992001,1189.27,1849.4)"
       d="m 0,4.2 c 0,4.3 3.1,9.1 11.2,9.1 10.4,0 21.3,-8.5 21.3,-17.3 0,-5.9 -5,-9.2 -11.2,-9.2 C 11.6,-13.2 0,-5 0,4.2"
       id="path150" />
    <path
       class="Note"
       d="m 506.95899,1332.7168 c 0,4.2656 3.07521,9.0272 11.11041,9.0272 10.31682,0 21.12963,-8.432 21.12963,-17.1616 0,-5.8528 -4.96001,-9.1264 -11.11042,-9.1264 -9.6224,0 -21.12962,8.1344 -21.12962,17.2608"
       id="path151"
       style="stroke-width:0.992001" />
    <path
       class="Clef"
       transform="matrix(0.992001,0,0,0.992001,355.199,1328.6)"
       d="m 1.3,-25.2 c -0.7,0 -1.3,0.6 -1.3,1.3 v 47.8 c 0,0.7 0.6,1.3 1.3,1.3 h 11 c 0.7,0 1.3,-0.6 1.3,-1.3 v -47.8 c 0,-0.7 -0.6,-1.3 -1.3,-1.3 h -11 m 21.6,0 c -0.7,0 -1.3,0.6 -1.3,1.3 v 47.8 c 0,0.7 0.6,1.3 1.3,1.3 h 11 c 0.7,0 1.3,-0.6 1.3,-1.3 v -47.8 c 0,-0.7 -0.6,-1.3 -1.3,-1.3 h -11"
       id="path152" />
    <path
       class="Clef"
       transform="matrix(0.992001,0,0,0.992001,355.199,1502.2)"
       d="m 1.3,-25.2 c -0.7,0 -1.3,0.6 -1.3,1.3 v 47.8 c 0,0.7 0.6,1.3 1.3,1.3 h 11 c 0.7,0 1.3,-0.6 1.3,-1.3 v -47.8 c 0,-0.7 -0.6,-1.3 -1.3,-1.3 h -11 m 21.6,0 c -0.7,0 -1.3,0.6 -1.3,1.3 v 47.8 c 0,0.7 0.6,1.3 1.3,1.3 h 11 c 0.7,0 1.3,-0.6 1.3,-1.3 v -47.8 c 0,-0.7 -0.6,-1.3 -1.3,-1.3 h -11"
       id="path153" />
    <path
       class="Clef"
       transform="matrix(0.992001,0,0,0.992001,355.199,634.198)"
       d="m 1.3,-25.2 c -0.7,0 -1.3,0.6 -1.3,1.3 v 47.8 c 0,0.7 0.6,1.3 1.3,1.3 h 11 c 0.7,0 1.3,-0.6 1.3,-1.3 v -47.8 c 0,-0.7 -0.6,-1.3 -1.3,-1.3 h -11 m 21.6,0 c -0.7,0 -1.3,0.6 -1.3,1.3 v 47.8 c 0,0.7 0.6,1.3 1.3,1.3 h 11 c 0.7,0 1.3,-0.6 1.3,-1.3 v -47.8 c 0,-0.7 -0.6,-1.3 -1.3,-1.3 h -11"
       id="path156" />
    <path
       class="Clef"
       transform="matrix(0.992001,0,0,0.992001,355.199,981.399)"
       d="m 1.3,-25.2 c -0.7,0 -1.3,0.6 -1.3,1.3 v 47.8 c 0,0.7 0.6,1.3 1.3,1.3 h 11 c 0.7,0 1.3,-0.6 1.3,-1.3 v -47.8 c 0,-0.7 -0.6,-1.3 -1.3,-1.3 h -11 m 21.6,0 c -0.7,0 -1.3,0.6 -1.3,1.3 v 47.8 c 0,0.7 0.6,1.3 1.3,1.3 h 11 c 0.7,0 1.3,-0.6 1.3,-1.3 v -47.8 c 0,-0.7 -0.6,-1.3 -1.3,-1.3 h -11"
       id="path158" />
    <path
       class="Clef"
       transform="matrix(0.992001,0,0,0.992001,355.199,2023)"
       d="m 1.3,-25.2 c -0.7,0 -1.3,0.6 -1.3,1.3 v 47.8 c 0,0.7 0.6,1.3 1.3,1.3 h 11 c 0.7,0 1.3,-0.6 1.3,-1.3 v -47.8 c 0,-0.7 -0.6,-1.3 -1.3,-1.3 h -11 m 21.6,0 c -0.7,0 -1.3,0.6 -1.3,1.3 v 47.8 c 0,0.7 0.6,1.3 1.3,1.3 h 11 c 0.7,0 1.3,-0.6 1.3,-1.3 v -47.8 c 0,-0.7 -0.6,-1.3 -1.3,-1.3 h -11"
       id="path159" />
    <path
       class="Clef"
       transform="matrix(0.992001,0,0,0.992001,355.199,1155)"
       d="m 1.3,-25.2 c -0.7,0 -1.3,0.6 -1.3,1.3 v 47.8 c 0,0.7 0.6,1.3 1.3,1.3 h 11 c 0.7,0 1.3,-0.6 1.3,-1.3 v -47.8 c 0,-0.7 -0.6,-1.3 -1.3,-1.3 h -11 m 21.6,0 c -0.7,0 -1.3,0.6 -1.3,1.3 v 47.8 c 0,0.7 0.6,1.3 1.3,1.3 h 11 c 0.7,0 1.3,-0.6 1.3,-1.3 v -47.8 c 0,-0.7 -0.6,-1.3 -1.3,-1.3 h -11"
       id="path160" />
    <path
       class="Clef"
       transform="matrix(0.992001,0,0,0.992001,355.199,807.799)"
       d="m 1.3,-25.2 c -0.7,0 -1.3,0.6 -1.3,1.3 v 47.8 c 0,0.7 0.6,1.3 1.3,1.3 h 11 c 0.7,0 1.3,-0.6 1.3,-1.3 v -47.8 c 0,-0.7 -0.6,-1.3 -1.3,-1.3 h -11 m 21.6,0 c -0.7,0 -1.3,0.6 -1.3,1.3 v 47.8 c 0,0.7 0.6,1.3 1.3,1.3 h 11 c 0.7,0 1.3,-0.6 1.3,-1.3 v -47.8 c 0,-0.7 -0.6,-1.3 -1.3,-1.3 h -11"
       id="path162" />
    <path
       class="Clef"
       transform="matrix(0.992001,0,0,0.992001,355.199,1849.4)"
       d="m 1.3,-25.2 c -0.7,0 -1.3,0.6 -1.3,1.3 v 47.8 c 0,0.7 0.6,1.3 1.3,1.3 h 11 c 0.7,0 1.3,-0.6 1.3,-1.3 v -47.8 c 0,-0.7 -0.6,-1.3 -1.3,-1.3 h -11 m 21.6,0 c -0.7,0 -1.3,0.6 -1.3,1.3 v 47.8 c 0,0.7 0.6,1.3 1.3,1.3 h 11 c 0.7,0 1.3,-0.6 1.3,-1.3 v -47.8 c 0,-0.7 -0.6,-1.3 -1.3,-1.3 h -11"
       id="path164" />
    <path
       class="Clef"
       transform="matrix(0.992001,0,0,0.992001,355.199,1675.8)"
       d="m 1.3,-25.2 c -0.7,0 -1.3,0.6 -1.3,1.3 v 47.8 c 0,0.7 0.6,1.3 1.3,1.3 h 11 c 0.7,0 1.3,-0.6 1.3,-1.3 v -47.8 c 0,-0.7 -0.6,-1.3 -1.3,-1.3 h -11 m 21.6,0 c -0.7,0 -1.3,0.6 -1.3,1.3 v 47.8 c 0,0.7 0.6,1.3 1.3,1.3 h 11 c 0.7,0 1.3,-0.6 1.3,-1.3 v -47.8 c 0,-0.7 -0.6,-1.3 -1.3,-1.3 h -11"
       id="path166" />
    <path
       class="TimeSig"
       transform="matrix(0.992001,0,0,0.992001,416.3,1130.69)"
       d="m 24.7,-4.8 c -6.1,0 -8.3,1.8 -9.7,3.3 -0.3,-2.1 -0.5,-3.7 -0.5,-5.3 0,-5.7 2,-13.1 9,-13.1 2.5,0 4,0.8 5,1.9 -2.1,0.9 -3.8,3.6 -3.8,5.9 0,3.6 2.8,6.4 6.4,6.4 3.6,0 6.5,-2.8 6.5,-6.4 v -0.3 c 0,-0.9 -0.2,-2.4 -0.6,-3.2 -1.3,-3.6 -5.5,-8.9 -15.5,-8.9 -9,0 -15.5,8.6 -17.5,13.2 -1,2.4 -2.5,7.3 -2.5,12.9 0,6.1 1.7,13 7.6,18.2 5.8,4.4 9.5,4.6 13,4.6 3.5,0 16.6,-4.1 16.6,-15.7 0,-9.8 -7.7,-13.5 -14,-13.5 m -3.7,25 c -3.3,0 -6,-4.5 -6,-10.1 0,-5.6 2.7,-10.2 6,-10.2 3.3,0 6.1,4.6 6.1,10.2 0,5.6 -2.8,10.1 -6.1,10.1"
       id="path170" />
    <path
       class="TimeSig"
       transform="matrix(0.992001,0,0,0.992001,413.525,1179.8)"
       d="m 20.8,12.7 v 7.4 h -8.3 c -0.7,0 -1.4,0.6 -1.4,1.4 v 1.9 c 0,0.8 0.7,1.4 1.4,1.4 h 30.3 c 0.8,0 1.4,-0.6 1.4,-1.4 v -1.9 c 0,-0.8 -0.6,-1.4 -1.4,-1.4 h -8.9 v -7.4 h 8.9 c 0.8,0 1.4,-0.7 1.4,-1.5 V 9.3 C 44.2,8.6 43.6,7.9 42.8,7.9 H 33.9 V -8 c 0,-0.6 -0.3,-1.1 -0.8,-1.3 l -1.2,-0.6 c -0.2,-0.1 -0.5,-0.2 -0.7,-0.2 -0.3,0.1 -0.7,0.2 -0.9,0.4 l -9.1,8.3 c -0.3,0.3 -0.4,0.7 -0.4,1.1 V 7.9 H 9.3 c 0,0 11.1,-12 22.9,-27.8 0.4,-0.5 0.5,-1 0.5,-1.4 0,-0.5 -0.2,-0.9 -0.3,-1 l -2.2,-2.2 c -0.2,-0.2 -0.6,-0.4 -1,-0.4 -0.6,0 -14.1,0 -14.8,0 -0.8,0 -1.3,0.6 -1.4,1.2 0,0 -0.5,7.4 -3.1,15.5 -2.6,8.1 -5.6,13.1 -8.2,16.8 0,0 -0.3,0.5 -0.3,1.1 0,0.2 0,0.4 0.1,0.6 0.4,0.7 1,1.8 1,1.8 0,0 0.2,0.6 1.1,0.6 h 17.2"
       id="path171" />
    <path
       class="TimeSig"
       transform="matrix(0.992001,0,0,0.992001,416.796,609.894)"
       d="m 34.2,3.9 c -0.8,2.2 -2.8,9.4 -7.7,9.4 -6.5,0 -7.9,-4 -13.3,-4 -0.8,0 -1.6,0.1 -2.6,0.3 0,0 2.5,-3.8 13.1,-7.1 C 34.3,-0.8 37,-6 37,-12 c 0,-4.2 -1.9,-12.5 -17,-12.5 -15.1,0 -17.9,9.1 -17.9,13.7 0,4.1 3.4,7.4 7.5,7.4 4.1,0 7.4,-3.3 7.4,-7.4 0,-2.8 -2,-5.9 -4.6,-6.9 -0.3,-0.1 -0.7,-0.6 -0.7,-1.1 0,-0.6 0.5,-1.3 2.3,-1.8 0.5,-0.2 1.9,-0.5 3.4,-0.5 5.7,0 6.8,3.5 6.8,8.6 0,11.7 -13.9,14.2 -19.7,22.9 0,0 -3,4.2 -3,8.9 0,4.7 2.4,5 3.6,5 1.6,0 3.3,-1.3 3.3,-3.1 0,-0.4 -0.1,-0.8 -0.3,-1.3 -0.6,-1.4 -0.8,-2.5 -0.8,-3.3 0,-0.3 0,-0.6 0.1,-0.9 0.1,-0.6 0.9,-1.6 3.3,-1.6 2.9,0 4,3.4 5.8,6 1.8,2.6 4.6,4.2 7.8,4.2 3.2,0 7.5,-2.3 9.3,-6 1.8,-3.7 4.1,-11.2 4.1,-13.9 0,-1.3 -0.8,-1.9 -1.7,-1.9 -0.7,0 -1.4,0.4 -1.8,1.4"
       id="path172" />
    <path
       class="TimeSig"
       transform="matrix(0.992001,0,0,0.992001,413.525,658.998)"
       d="m 20.8,12.7 v 7.4 h -8.3 c -0.7,0 -1.4,0.6 -1.4,1.4 v 1.9 c 0,0.8 0.7,1.4 1.4,1.4 h 30.3 c 0.8,0 1.4,-0.6 1.4,-1.4 v -1.9 c 0,-0.8 -0.6,-1.4 -1.4,-1.4 h -8.9 v -7.4 h 8.9 c 0.8,0 1.4,-0.7 1.4,-1.5 V 9.3 C 44.2,8.6 43.6,7.9 42.8,7.9 H 33.9 V -8 c 0,-0.6 -0.3,-1.1 -0.8,-1.3 l -1.2,-0.6 c -0.2,-0.1 -0.5,-0.2 -0.7,-0.2 -0.3,0.1 -0.7,0.2 -0.9,0.4 l -9.1,8.3 c -0.3,0.3 -0.4,0.7 -0.4,1.1 V 7.9 H 9.3 c 0,0 11.1,-12 22.9,-27.8 0.4,-0.5 0.5,-1 0.5,-1.4 0,-0.5 -0.2,-0.9 -0.3,-1 l -2.2,-2.2 c -0.2,-0.2 -0.6,-0.4 -1,-0.4 -0.6,0 -14.1,0 -14.8,0 -0.8,0 -1.3,0.6 -1.4,1.2 0,0 -0.5,7.4 -3.1,15.5 -2.6,8.1 -5.6,13.1 -8.2,16.8 0,0 -0.3,0.5 -0.3,1.1 0,0.2 0,0.4 0.1,0.6 0.4,0.7 1,1.8 1,1.8 0,0 0.2,0.6 1.1,0.6 h 17.2"
       id="path173" />
    <path
       class="TimeSig"
       transform="matrix(0.992001,0,0,0.992001,413.727,1477.9)"
       d="m 15.5,4.7 c 6.1,0 8.3,-1.8 9.7,-3.3 0.3,2.1 0.5,3.7 0.5,5.3 0,5.7 -2,13.1 -9,13.1 -2.5,0 -4,-0.8 -5,-1.9 C 13.8,17 15.5,14.3 15.5,12 15.5,8.4 12.7,5.6 9.1,5.6 5.5,5.6 2.6,8.4 2.6,12 v 0.3 c 0,0.9 0.2,2.4 0.6,3.2 1.3,3.6 5.5,8.9 15.5,8.9 9,0 15.5,-8.6 17.5,-13.2 1,-2.4 2.5,-7.3 2.5,-12.9 0,-6.1 -1.7,-13 -7.6,-18.2 -5.8,-4.4 -9.5,-4.6 -13,-4.6 -3.5,0 -16.6,4.1 -16.6,15.7 0,9.8 7.7,13.5 14,13.5 m 3.7,-25.1 c 3.3,0 6,4.6 6,10.2 0,5.6 -2.7,10.1 -6,10.1 -3.3,0 -6.1,-4.5 -6.1,-10.1 0,-5.6 2.8,-10.2 6.1,-10.2"
       id="path174" />
    <path
       class="TimeSig"
       transform="matrix(0.992001,0,0,0.992001,413.432,1526.75)"
       d="m 32.4,-1.8 c 3.3,-2.5 5.6,-5.7 5.6,-9.7 0,-7.2 -7.9,-13.1 -17.6,-13.1 -9.7,0 -17.6,5.9 -17.6,13.1 0,4 1,7.6 5.7,10.6 -4.5,2.6 -7,6.3 -7,11.1 0,8.1 8.5,14.6 18.9,14.6 10.4,0 18.9,-6.5 18.9,-14.6 0,-4.8 -1.7,-9.3 -6.9,-12 M 26.8,-4.5 C 20,-6.7 12.5,-10 12.5,-14.5 c 0,-3.9 3.6,-5.5 7.9,-5.5 6.2,0 10.4,2.9 10.4,7.5 0,4.8 -2.2,7.1 -4,8 M 20.4,19.2 C 14,19.2 8.5,15.7 8.5,10.1 c 0,-6.7 5.2,-8.3 5.2,-8.3 6.8,2.3 16.5,5.7 16.5,11.2 0,2.7 -3.4,6.2 -9.8,6.2"
       id="path175" />
    <path
       class="TimeSig"
       transform="matrix(0.992001,0,0,0.992001,413.432,1651.5)"
       d="m 24.9,19.7 v -43 c 0,-0.7 -0.5,-1.2 -1.2,-1.2 h -9.9 c -0.2,0 -0.4,0.1 -0.6,0.2 -0.1,0.1 -0.3,0.3 -0.4,0.4 L 1.6,-4.5 c -0.1,0.2 -0.1,0.4 -0.1,0.6 0,0.4 0.3,0.8 0.6,1 L 4,-1.8 c 0.2,0.1 0.4,0.2 0.6,0.2 0.4,0 0.8,-0.3 1,-0.6 l 7.1,-12.2 V 19.7 H 5.1 c -0.7,0 -1.2,0.5 -1.2,1.2 v 2.2 c 0,0.7 0.5,1.2 1.2,1.2 h 27.4 c 0.7,0 1.1,-0.5 1.1,-1.2 v -2.2 c 0,-0.7 -0.4,-1.2 -1.1,-1.2 h -7.6"
       id="path176" />
    <path
       class="TimeSig"
       transform="matrix(0.992001,0,0,0.992001,448.245,1651.5)"
       d="m 34.2,3.9 c -0.8,2.2 -2.8,9.4 -7.7,9.4 -6.5,0 -7.9,-4 -13.3,-4 -0.8,0 -1.6,0.1 -2.6,0.3 0,0 2.5,-3.8 13.1,-7.1 C 34.3,-0.8 37,-6 37,-12 c 0,-4.2 -1.9,-12.5 -17,-12.5 -15.1,0 -17.9,9.1 -17.9,13.7 0,4.1 3.4,7.4 7.5,7.4 4.1,0 7.4,-3.3 7.4,-7.4 0,-2.8 -2,-5.9 -4.6,-6.9 -0.3,-0.1 -0.7,-0.6 -0.7,-1.1 0,-0.6 0.5,-1.3 2.3,-1.8 0.5,-0.2 1.9,-0.5 3.4,-0.5 5.7,0 6.8,3.5 6.8,8.6 0,11.7 -13.9,14.2 -19.7,22.9 0,0 -3,4.2 -3,8.9 0,4.7 2.4,5 3.6,5 1.6,0 3.3,-1.3 3.3,-3.1 0,-0.4 -0.1,-0.8 -0.3,-1.3 -0.6,-1.4 -0.8,-2.5 -0.8,-3.3 0,-0.3 0,-0.6 0.1,-0.9 0.1,-0.6 0.9,-1.6 3.3,-1.6 2.9,0 4,3.4 5.8,6 1.8,2.6 4.6,4.2 7.8,4.2 3.2,0 7.5,-2.3 9.3,-6 1.8,-3.7 4.1,-11.2 4.1,-13.9 0,-1.3 -0.8,-1.9 -1.7,-1.9 -0.7,0 -1.4,0.4 -1.8,1.4"
       id="path177" />
    <path
       class="TimeSig"
       transform="matrix(0.992001,0,0,0.992001,430.033,1700.35)"
       d="m 32.4,-1.8 c 3.3,-2.5 5.6,-5.7 5.6,-9.7 0,-7.2 -7.9,-13.1 -17.6,-13.1 -9.7,0 -17.6,5.9 -17.6,13.1 0,4 1,7.6 5.7,10.6 -4.5,2.6 -7,6.3 -7,11.1 0,8.1 8.5,14.6 18.9,14.6 10.4,0 18.9,-6.5 18.9,-14.6 0,-4.8 -1.7,-9.3 -6.9,-12 M 26.8,-4.5 C 20,-6.7 12.5,-10 12.5,-14.5 c 0,-3.9 3.6,-5.5 7.9,-5.5 6.2,0 10.4,2.9 10.4,7.5 0,4.8 -2.2,7.1 -4,8 M 20.4,19.2 C 14,19.2 8.5,15.7 8.5,10.1 c 0,-6.7 5.2,-8.3 5.2,-8.3 6.8,2.3 16.5,5.7 16.5,11.2 0,2.7 -3.4,6.2 -9.8,6.2"
       id="path178" />
    <path
       class="TimeSig"
       transform="matrix(0.992001,0,0,0.992001,417.431,783.495)"
       d="m 27.2,-1.6 c 5,-1.9 8.5,-5.1 8.5,-10.6 0,-0.9 -0.3,-12.2 -17.5,-12.2 C 1,-24.4 1.5,-12.2 1.5,-12.2 H 1.6 L 1.5,-12 c 0,3.6 2.9,6.4 6.5,6.4 3.6,0 6.4,-2.8 6.4,-6.4 0,-2.9 -2.2,-5.7 -5,-6.3 0.1,-0.1 0.2,-0.2 0.3,-0.3 1.4,-1 3.3,-1.5 5.2,-1.5 4.2,0 8.7,2.5 8.7,7.9 0,6.3 -4.7,7.2 -5.9,7.4 -1.2,0.2 -6.8,0.6 -8,0.6 -1.2,0 -1.3,1.4 -1.3,1.4 v 2 c 0,0 0.2,1.1 1.3,1.2 1.7,0.1 4,0.1 7.2,0.6 4.4,0.6 6.7,3.6 6.7,10.6 0,6.7 -4.5,8.5 -8.7,8.5 -2.8,0 -5.4,-0.8 -6.5,-1.6 3.3,-0.2 6,-3.1 6,-6.4 0,-3.6 -2.8,-6.5 -6.4,-6.5 -3.6,0 -6.5,2.9 -6.5,6.5 0,8.2 7.5,12.3 14.9,12.3 9.6,0 20,-3.3 20,-14.2 0,-7.3 -5,-10.4 -9.4,-11.8 h 0.2"
       id="path179" />
    <path
       class="TimeSig"
       transform="matrix(0.992001,0,0,0.992001,413.525,832.599)"
       d="m 20.8,12.7 v 7.4 h -8.3 c -0.7,0 -1.4,0.6 -1.4,1.4 v 1.9 c 0,0.8 0.7,1.4 1.4,1.4 h 30.3 c 0.8,0 1.4,-0.6 1.4,-1.4 v -1.9 c 0,-0.8 -0.6,-1.4 -1.4,-1.4 h -8.9 v -7.4 h 8.9 c 0.8,0 1.4,-0.7 1.4,-1.5 V 9.3 C 44.2,8.6 43.6,7.9 42.8,7.9 H 33.9 V -8 c 0,-0.6 -0.3,-1.1 -0.8,-1.3 l -1.2,-0.6 c -0.2,-0.1 -0.5,-0.2 -0.7,-0.2 -0.3,0.1 -0.7,0.2 -0.9,0.4 l -9.1,8.3 c -0.3,0.3 -0.4,0.7 -0.4,1.1 V 7.9 H 9.3 c 0,0 11.1,-12 22.9,-27.8 0.4,-0.5 0.5,-1 0.5,-1.4 0,-0.5 -0.2,-0.9 -0.3,-1 l -2.2,-2.2 c -0.2,-0.2 -0.6,-0.4 -1,-0.4 -0.6,0 -14.1,0 -14.8,0 -0.8,0 -1.3,0.6 -1.4,1.2 0,0 -0.5,7.4 -3.1,15.5 -2.6,8.1 -5.6,13.1 -8.2,16.8 0,0 -0.3,0.5 -0.3,1.1 0,0.2 0,0.4 0.1,0.6 0.4,0.7 1,1.8 1,1.8 0,0 0.2,0.6 1.1,0.6 h 17.2"
       id="path180" />
    <path
       class="TimeSig"
       transform="matrix(0.992001,0,0,0.992001,417.54,1825.1)"
       d="m 2.7,-21.8 c 0,0 0.5,4.8 0.5,10 0,4.5 -0.2,9 -0.5,13.5 0,0 0,0.1 0,0.3 0,0.5 0.1,1.2 0.7,1.3 0.9,0.2 3,0.7 3.5,0.8 0.2,0 0.3,0.1 0.5,0.1 0.4,0 0.8,-0.2 1,-0.8 0.5,-1.3 1.6,-6.5 7.9,-6.5 7.1,0 8.4,6.1 8.4,10.9 0,5.9 -1.9,12.5 -9,12.5 -2.3,0 -3.6,-0.3 -4.2,-0.7 C 11.2,19.5 11,19.2 11,19 c 0,-0.3 0.1,-0.5 0.4,-0.7 0.9,-0.6 4,-1.7 4,-6.6 0,-4.9 -3.4,-6.8 -7.3,-6.8 -3.9,0 -6.6,3.6 -6.6,7 0,8.8 8.3,12.5 16,12.5 10.2,0 18.7,-6.1 18.7,-16.8 C 36.2,-3 28.8,-8.6 18.8,-8.6 15.5,-8.6 12,-7.8 9.1,-5.8 9,-5.7 8.8,-5.7 8.7,-5.7 8.3,-5.7 8,-6 8,-6.4 v -6.3 c 0,-0.6 0.5,-1.1 1.1,-1.1 h 0.1 c 1.5,0.1 4.8,0.5 8.3,0.5 7.2,0 12.6,-1.5 15.4,-8.9 0.1,-0.3 0.2,-0.7 0.2,-1 0,-0.8 -0.5,-1.4 -1.8,-1.4 -0.4,0 -0.8,0.1 -1.4,0.2 -4.9,1.2 -8.7,1.6 -12.4,1.6 -3.6,0 -7.1,-0.4 -11.4,-1 0,0 -0.5,-0.1 -1.2,-0.1 -1.5,0 -2.2,0.5 -2.2,2.1"
       id="path181" />
    <path
       class="TimeSig"
       transform="matrix(0.992001,0,0,0.992001,413.525,1874.2)"
       d="m 20.8,12.7 v 7.4 h -8.3 c -0.7,0 -1.4,0.6 -1.4,1.4 v 1.9 c 0,0.8 0.7,1.4 1.4,1.4 h 30.3 c 0.8,0 1.4,-0.6 1.4,-1.4 v -1.9 c 0,-0.8 -0.6,-1.4 -1.4,-1.4 h -8.9 v -7.4 h 8.9 c 0.8,0 1.4,-0.7 1.4,-1.5 V 9.3 C 44.2,8.6 43.6,7.9 42.8,7.9 H 33.9 V -8 c 0,-0.6 -0.3,-1.1 -0.8,-1.3 l -1.2,-0.6 c -0.2,-0.1 -0.5,-0.2 -0.7,-0.2 -0.3,0.1 -0.7,0.2 -0.9,0.4 l -9.1,8.3 c -0.3,0.3 -0.4,0.7 -0.4,1.1 V 7.9 H 9.3 c 0,0 11.1,-12 22.9,-27.8 0.4,-0.5 0.5,-1 0.5,-1.4 0,-0.5 -0.2,-0.9 -0.3,-1 l -2.2,-2.2 c -0.2,-0.2 -0.6,-0.4 -1,-0.4 -0.6,0 -14.1,0 -14.8,0 -0.8,0 -1.3,0.6 -1.4,1.2 0,0 -0.5,7.4 -3.1,15.5 -2.6,8.1 -5.6,13.1 -8.2,16.8 0,0 -0.3,0.5 -0.3,1.1 0,0.2 0,0.4 0.1,0.6 0.4,0.7 1,1.8 1,1.8 0,0 0.2,0.6 1.1,0.6 h 17.2"
       id="path182" />
    <path
       class="TimeSig"
       transform="matrix(0.992001,0,0,0.992001,413.727,1304.3)"
       d="m 24.7,-4.8 c -6.1,0 -8.3,1.8 -9.7,3.3 -0.3,-2.1 -0.5,-3.7 -0.5,-5.3 0,-5.7 2,-13.1 9,-13.1 2.5,0 4,0.8 5,1.9 -2.1,0.9 -3.8,3.6 -3.8,5.9 0,3.6 2.8,6.4 6.4,6.4 3.6,0 6.5,-2.8 6.5,-6.4 v -0.3 c 0,-0.9 -0.2,-2.4 -0.6,-3.2 -1.3,-3.6 -5.5,-8.9 -15.5,-8.9 -9,0 -15.5,8.6 -17.5,13.2 -1,2.4 -2.5,7.3 -2.5,12.9 0,6.1 1.7,13 7.6,18.2 5.8,4.4 9.5,4.6 13,4.6 3.5,0 16.6,-4.1 16.6,-15.7 0,-9.8 -7.7,-13.5 -14,-13.5 m -3.7,25 c -3.3,0 -6,-4.5 -6,-10.1 0,-5.6 2.7,-10.2 6,-10.2 3.3,0 6.1,4.6 6.1,10.2 0,5.6 -2.8,10.1 -6.1,10.1"
       id="path183" />
    <path
       class="TimeSig"
       transform="matrix(0.992001,0,0,0.992001,413.432,1353.15)"
       d="m 32.4,-1.8 c 3.3,-2.5 5.6,-5.7 5.6,-9.7 0,-7.2 -7.9,-13.1 -17.6,-13.1 -9.7,0 -17.6,5.9 -17.6,13.1 0,4 1,7.6 5.7,10.6 -4.5,2.6 -7,6.3 -7,11.1 0,8.1 8.5,14.6 18.9,14.6 10.4,0 18.9,-6.5 18.9,-14.6 0,-4.8 -1.7,-9.3 -6.9,-12 M 26.8,-4.5 C 20,-6.7 12.5,-10 12.5,-14.5 c 0,-3.9 3.6,-5.5 7.9,-5.5 6.2,0 10.4,2.9 10.4,7.5 0,4.8 -2.2,7.1 -4,8 M 20.4,19.2 C 14,19.2 8.5,15.7 8.5,10.1 c 0,-6.7 5.2,-8.3 5.2,-8.3 6.8,2.3 16.5,5.7 16.5,11.2 0,2.7 -3.4,6.2 -9.8,6.2"
       id="path184" />
    <path
       class="TimeSig"
       transform="matrix(0.992001,0,0,0.992001,414.765,1998.15)"
       d="m 16.2,12.3 c -2.2,3.3 -5.1,7.3 -5.1,11 0,1.1 0.3,1.7 1.4,1.7 1.6,0 2.6,-0.4 5.8,-0.6 0.3,0 0.7,0 1.1,0 2.8,-0.1 5.5,0.6 6.2,0.6 0.9,0 2.6,-1.1 2.5,-2 0,-0.1 0,-0.2 0,-0.3 0,-0.2 -0.6,-3.3 -0.6,-7 0,-2.1 0.2,-4.5 0.8,-6.7 1.2,-4.7 4.4,-13.2 6.6,-19.5 1.1,-3.1 1.7,-8.7 1.7,-10.9 0,-0.9 0,-1.4 -0.1,-2.3 -0.1,-1 -0.5,-1.4 -1.1,-1.4 -0.5,0 -1.3,0 -1.8,0 -0.5,0 -1.2,0.3 -1.2,1.4 0,1 -0.2,7.8 -4.2,7.8 -4.2,0 -5.4,-8.5 -11.9,-8.5 -6.2,0 -10,6.3 -10.3,6.9 v -4.8 c 0,-0.6 -0.5,-1.1 -1.1,-1.1 H 2.6 c -0.6,0 -1.1,0.5 -1.1,1.1 v 18.5 c 0,0.6 0.5,1.1 1.1,1.1 H 4.9 C 5.5,-2.7 6,-3.2 6,-3.8 V -7 c 0,-2.3 1.5,-5.4 5,-5.4 3.5,0 3.8,3.8 11.8,3.8 2,0 5.7,-0.4 6.7,-1.3 -0.8,1.5 -11,18.9 -13.3,22.2"
       id="path187" />
    <path
       class="TimeSig"
       transform="matrix(0.992001,0,0,0.992001,413.432,2047.55)"
       d="m 32.4,-1.8 c 3.3,-2.5 5.6,-5.7 5.6,-9.7 0,-7.2 -7.9,-13.1 -17.6,-13.1 -9.7,0 -17.6,5.9 -17.6,13.1 0,4 1,7.6 5.7,10.6 -4.5,2.6 -7,6.3 -7,11.1 0,8.1 8.5,14.6 18.9,14.6 10.4,0 18.9,-6.5 18.9,-14.6 0,-4.8 -1.7,-9.3 -6.9,-12 M 26.8,-4.5 C 20,-6.7 12.5,-10 12.5,-14.5 c 0,-3.9 3.6,-5.5 7.9,-5.5 6.2,0 10.4,2.9 10.4,7.5 0,4.8 -2.2,7.1 -4,8 M 20.4,19.2 C 14,19.2 8.5,15.7 8.5,10.1 c 0,-6.7 5.2,-8.3 5.2,-8.3 6.8,2.3 16.5,5.7 16.5,11.2 0,2.7 -3.4,6.2 -9.8,6.2"
       id="path188" />
    <path
       class="TimeSig"
       transform="matrix(0.992001,0,0,0.992001,413.525,956.599)"
       d="m 20.8,12.7 v 7.4 h -8.3 c -0.7,0 -1.4,0.6 -1.4,1.4 v 1.9 c 0,0.8 0.7,1.4 1.4,1.4 h 30.3 c 0.8,0 1.4,-0.6 1.4,-1.4 v -1.9 c 0,-0.8 -0.6,-1.4 -1.4,-1.4 h -8.9 v -7.4 h 8.9 c 0.8,0 1.4,-0.7 1.4,-1.5 V 9.3 C 44.2,8.6 43.6,7.9 42.8,7.9 H 33.9 V -8 c 0,-0.6 -0.3,-1.1 -0.8,-1.3 l -1.2,-0.6 c -0.2,-0.1 -0.5,-0.2 -0.7,-0.2 -0.3,0.1 -0.7,0.2 -0.9,0.4 l -9.1,8.3 c -0.3,0.3 -0.4,0.7 -0.4,1.1 V 7.9 H 9.3 c 0,0 11.1,-12 22.9,-27.8 0.4,-0.5 0.5,-1 0.5,-1.4 0,-0.5 -0.2,-0.9 -0.3,-1 l -2.2,-2.2 c -0.2,-0.2 -0.6,-0.4 -1,-0.4 -0.6,0 -14.1,0 -14.8,0 -0.8,0 -1.3,0.6 -1.4,1.2 0,0 -0.5,7.4 -3.1,15.5 -2.6,8.1 -5.6,13.1 -8.2,16.8 0,0 -0.3,0.5 -0.3,1.1 0,0.2 0,0.4 0.1,0.6 0.4,0.7 1,1.8 1,1.8 0,0 0.2,0.6 1.1,0.6 h 17.2"
       id="path189" />
    <path
       class="TimeSig"
       transform="matrix(0.992001,0,0,0.992001,413.525,1006.2)"
       d="m 20.8,12.7 v 7.4 h -8.3 c -0.7,0 -1.4,0.6 -1.4,1.4 v 1.9 c 0,0.8 0.7,1.4 1.4,1.4 h 30.3 c 0.8,0 1.4,-0.6 1.4,-1.4 v -1.9 c 0,-0.8 -0.6,-1.4 -1.4,-1.4 h -8.9 v -7.4 h 8.9 c 0.8,0 1.4,-0.7 1.4,-1.5 V 9.3 C 44.2,8.6 43.6,7.9 42.8,7.9 H 33.9 V -8 c 0,-0.6 -0.3,-1.1 -0.8,-1.3 l -1.2,-0.6 c -0.2,-0.1 -0.5,-0.2 -0.7,-0.2 -0.3,0.1 -0.7,0.2 -0.9,0.4 l -9.1,8.3 c -0.3,0.3 -0.4,0.7 -0.4,1.1 V 7.9 H 9.3 c 0,0 11.1,-12 22.9,-27.8 0.4,-0.5 0.5,-1 0.5,-1.4 0,-0.5 -0.2,-0.9 -0.3,-1 l -2.2,-2.2 c -0.2,-0.2 -0.6,-0.4 -1,-0.4 -0.6,0 -14.1,0 -14.8,0 -0.8,0 -1.3,0.6 -1.4,1.2 0,0 -0.5,7.4 -3.1,15.5 -2.6,8.1 -5.6,13.1 -8.2,16.8 0,0 -0.3,0.5 -0.3,1.1 0,0.2 0,0.4 0.1,0.6 0.4,0.7 1,1.8 1,1.8 0,0 0.2,0.6 1.1,0.6 h 17.2"
       id="path190" />
    <path
       class="Beam"
       fill-rule="evenodd"
       d="m 1021.24,1954.8 h 165.64 v 12.4 h -165.64 v -12.4"
       id="path206" />
    <path
       class="Beam"
       fill-rule="evenodd"
       d="M 536.70299,1954.8 H 860.56 v 12.4 H 536.70299 v -12.4"
       id="path207"
       style="stroke-width:0.999996" />
    <path
       class="Beam"
       fill-rule="evenodd"
       d="m 1105.29,1260.4 h 380.72 v 12.4 h -380.72 v -12.4"
       id="path208"
       style="stroke-width:1" />
    <path
       class="Beam"
       fill-rule="evenodd"
       d="m 536.70297,1260.4 h 381.53999 v 12.4 H 536.70297 v -12.4"
       id="path209"
       style="stroke-width:0.999996" />
    <path
       class="Beam"
       fill-rule="evenodd"
       d="m 1387.36,1607.6 h 193.49 v 12.4 h -193.49 v -12.4"
       id="path210" />
    <path
       class="Beam"
       fill-rule="evenodd"
       d="M 536.70399,1607.6 H 721.273 V 1620 H 536.70399 v -12.4"
       id="path211"
       style="stroke-width:1" />
    <path
       class="Beam"
       fill-rule="evenodd"
       d="M 814.302,1607.6 H 1007.8 V 1620 H 814.302 v -12.4"
       id="path212" />
    <path
       class="Beam"
       fill-rule="evenodd"
       d="M 536.70299,1434 H 788.044 v 12.4 H 536.70299 V 1434"
       id="path213"
       style="stroke-width:1" />
    <path
       class="Beam"
       fill-rule="evenodd"
       d="M 915.76299,1434 H 1168.75 v 12.4 H 915.76299 V 1434"
       id="path214"
       style="stroke-width:0.999997" />
    <path
       class="Beam"
       fill-rule="evenodd"
       d="m 1294.82,1434 h 254.64 v 12.4 H 1294.82 V 1434"
       id="path215"
       style="stroke-width:0.999995" />
    <path
       class="Beam"
       fill-rule="evenodd"
       d="m 1347.56,1954.8 h 165.64 v 12.4 h -165.64 v -12.4"
       id="path216" />
    <path
       class="Beam"
       fill-rule="evenodd"
       d="m 1105.3,1607.6 h 189.03 V 1620 H 1105.3 v -12.4"
       id="path217"
       style="stroke-width:0.999996" />
  </g>
</svg>
