<?xml version="1.0" encoding="UTF-8" standalone="no"?>
<svg
   width="2977.2px"
   height="4208.4px"
   viewBox="0 0 2977.2 4208.4"
   version="1.2"
   id="svg136"
   sodipodi:docname="pulseAlign_v2.svg"
   inkscape:version="1.4 (e7c3feb1, 2024-10-09)"
   xmlns:inkscape="http://www.inkscape.org/namespaces/inkscape"
   xmlns:sodipodi="http://sodipodi.sourceforge.net/DTD/sodipodi-0.dtd"
   xmlns="http://www.w3.org/2000/svg"
   xmlns:svg="http://www.w3.org/2000/svg">
  <defs
     id="defs136">
    <marker
       style="overflow:visible"
       id="ArrowWide"
       refX="0"
       refY="0"
       orient="auto-start-reverse"
       inkscape:stockid="Wide arrow"
       markerWidth="5"
       markerHeight="5"
       viewBox="0 0 1 1"
       inkscape:isstock="true"
       inkscape:collect="always"
       preserveAspectRatio="xMidYMid"
       markerUnits="userSpaceOnUse">
      <path
         style="fill:none;stroke:context-stroke;stroke-width:1;stroke-linecap:butt"
         d="M 3,-3 0,0 3,3"
         transform="rotate(180,0.125,0)"
         sodipodi:nodetypes="ccc"
         id="path1" />
    </marker>
    <marker
       style="overflow:visible"
       id="marker64"
       refX="0"
       refY="0"
       orient="auto-start-reverse"
       inkscape:stockid="Wide arrow"
       markerWidth="5"
       markerHeight="5"
       viewBox="0 0 1 1"
       inkscape:isstock="true"
       inkscape:collect="always"
       preserveAspectRatio="xMidYMid"
       markerUnits="userSpaceOnUse">
      <path
         style="fill:none;stroke:context-stroke;stroke-width:1;stroke-linecap:butt"
         d="M 3,-3 0,0 3,3"
         transform="rotate(180,0.125,0)"
         sodipodi:nodetypes="ccc"
         id="path64" />
    </marker>
  </defs>
  <sodipodi:namedview
     id="namedview136"
     pagecolor="#ffffff"
     bordercolor="#000000"
     borderopacity="0.25"
     inkscape:showpageshadow="2"
     inkscape:pageopacity="0.0"
     inkscape:pagecheckerboard="0"
     inkscape:deskcolor="#d1d1d1"
     inkscape:zoom="0.37325209"
     inkscape:cx="1300.7295"
     inkscape:cy="823.83999"
     inkscape:window-width="1512"
     inkscape:window-height="916"
     inkscape:window-x="0"
     inkscape:window-y="38"
     inkscape:window-maximized="1"
     inkscape:current-layer="svg136" />
  <title
     id="title1">pulseAlign_v2</title>
  <desc
     id="desc1">Generated by MuseScore Studio 4.4.4</desc>
  <path
     class="Text"
     d="M861.13,242.416 L842.1,243.626 L842.1,248.356 L846.06,248.356 C850.24,248.466 850.79,249.126 850.79,253.856 L850.79,307.646 C850.68,309.186 850.57,309.846 850.13,310.396 C849.36,311.386 847.27,311.826 842.54,311.936 L842.1,311.936 L842.1,315.896 L870.7,315.896 L870.7,311.936 L869.49,311.936 C862.12,311.716 861.13,311.166 861.13,307.206 L861.13,286.416 C864.76,292.796 868.83,295.326 875.65,295.326 C890.28,295.326 897.87,280.916 897.87,267.826 C897.87,255.396 890.28,240.766 876.31,240.766 C869.49,240.766 864.98,243.626 861.13,250.226 L861.13,242.416 M874.33,246.706 C881.92,246.706 886.32,254.296 886.32,267.166 C886.32,281.356 881.92,289.386 874,289.386 C866.08,289.386 861.02,281.246 861.02,268.596 C861.02,254.846 865.97,246.706 874.33,246.706 M947.465,294.446 L967.485,293.676 L967.485,288.946 L964.735,288.946 C958.355,288.726 957.805,288.066 957.805,280.916 L957.805,242.416 L937.125,243.626 L937.125,248.356 L942.735,248.356 C946.915,248.466 947.465,249.126 947.465,253.856 L947.465,267.386 C947.465,276.956 945.155,288.616 933.055,288.616 C929.645,288.616 926.785,287.406 925.355,285.206 C923.925,283.116 923.705,282.016 923.705,275.966 L923.705,242.416 L904.455,243.626 L904.455,248.356 L908.635,248.356 C912.815,248.466 913.365,249.126 913.365,253.856 L913.365,277.616 C913.365,283.226 913.805,285.756 915.455,288.286 C918.425,292.796 923.705,295.326 930.305,295.326 C937.565,295.326 942.625,292.356 947.465,285.316 L947.465,294.446 M991.788,212.606 L971.438,213.816 L971.438,218.546 L976.828,218.546 C980.898,218.656 981.448,219.316 981.448,224.046 L981.448,285.316 C981.338,286.966 981.228,287.626 980.788,288.176 C980.018,289.166 977.928,289.606 973.198,289.716 L972.428,289.716 L972.428,293.676 L1000.92,293.676 L1000.92,289.716 L1000.15,289.716 C992.778,289.496 991.788,288.946 991.788,284.986 L991.788,212.606 M1046.89,241.206 L1043.04,241.206 L1039.85,245.166 C1035.89,242.086 1031.93,240.766 1026.43,240.766 C1016.75,240.766 1010.37,247.036 1010.37,256.716 C1010.37,267.056 1017.08,269.696 1025.88,271.786 L1031.71,273.106 C1040.4,275.196 1043.48,277.396 1043.48,281.796 C1043.48,286.966 1038.97,290.596 1032.59,290.596 C1023.24,290.596 1016.64,284.656 1014,273.656 L1009.6,273.656 L1009.6,294.446 L1013.45,294.446 L1017.3,289.936 C1021.81,293.566 1026.76,295.326 1032.37,295.326 C1043.15,295.326 1050.3,288.616 1050.3,278.386 C1050.3,273.546 1048.76,269.806 1045.68,267.276 C1043.04,264.966 1040.84,264.086 1034.13,262.656 L1028.63,261.446 C1022.58,260.126 1022.58,260.126 1020.6,259.026 C1018.18,257.926 1016.75,255.616 1016.75,253.196 C1016.75,248.686 1020.93,245.606 1026.98,245.606 C1036,245.606 1040.4,251.986 1043.04,259.686 L1046.89,259.686 L1046.89,241.206 M1106.06,268.926 C1106.17,252.426 1096.82,240.766 1083.4,240.766 C1069.32,240.766 1058.76,252.976 1058.76,269.476 C1058.76,284.986 1068.77,295.326 1083.62,295.326 C1094.18,295.326 1101.55,290.156 1106.06,279.706 L1102.21,277.616 C1097.7,286.086 1093.08,289.386 1085.71,289.386 C1080.1,289.386 1076.03,287.076 1073.17,282.126 C1071.19,278.826 1070.31,274.976 1070.42,268.926 L1106.06,268.926 M1070.53,264.196 C1070.53,256.496 1074.05,245.496 1083.29,245.496 C1089.89,245.496 1094.29,251.326 1094.29,260.236 C1094.29,263.316 1093.3,264.196 1089.78,264.196 L1070.53,264.196 M1136.75,212.716 L1107.38,295.216 L1113.76,295.216 L1143.13,212.716 L1136.75,212.716 M1165.45,212.606 L1146.53,213.816 L1146.53,218.546 L1150.38,218.546 C1154.56,218.656 1155.11,219.316 1155.11,224.046 L1155.11,266.836 C1155.11,282.126 1154.45,290.486 1153.13,295.216 L1157.31,295.216 L1162.7,286.636 C1167.21,292.576 1172.38,295.326 1179.2,295.326 C1192.84,295.326 1202.85,283.666 1202.85,267.716 C1202.85,251.876 1193.61,240.766 1180.41,240.766 C1173.7,240.766 1169.63,243.076 1165.45,249.346 L1165.45,212.606 M1178.43,246.376 C1186.68,246.376 1191.3,254.406 1191.3,268.816 C1191.3,282.786 1186.79,290.596 1178.76,290.596 C1170.07,290.596 1164.9,282.566 1164.9,269.036 C1164.9,254.296 1169.63,246.376 1178.43,246.376 M1257.95,268.926 C1258.06,252.426 1248.71,240.766 1235.29,240.766 C1221.21,240.766 1210.65,252.976 1210.65,269.476 C1210.65,284.986 1220.66,295.326 1235.51,295.326 C1246.07,295.326 1253.44,290.156 1257.95,279.706 L1254.1,277.616 C1249.59,286.086 1244.97,289.386 1237.6,289.386 C1231.99,289.386 1227.92,287.076 1225.06,282.126 C1223.08,278.826 1222.2,274.976 1222.31,268.926 L1257.95,268.926 M1222.42,264.196 C1222.42,256.496 1225.94,245.496 1235.18,245.496 C1241.78,245.496 1246.18,251.326 1246.18,260.236 C1246.18,263.316 1245.19,264.196 1241.67,264.196 L1222.42,264.196 M1310.85,258.256 C1310.85,251.326 1309.64,247.806 1306.45,245.166 C1302.82,242.196 1297.43,240.766 1290.39,240.766 C1277.96,240.766 1268.94,246.596 1268.94,254.626 C1268.94,258.696 1271.47,261.336 1275.32,261.336 C1278.84,261.336 1281.26,259.026 1281.26,255.726 C1281.26,254.296 1280.71,252.756 1279.61,251.216 C1278.95,250.446 1278.84,250.226 1278.84,249.676 C1278.84,247.476 1283.24,245.496 1288.52,245.496 C1292.04,245.496 1295.89,246.596 1297.65,248.246 C1299.74,250.006 1300.51,252.646 1300.51,257.596 L1300.51,261.886 C1289.07,263.866 1285.44,264.746 1280.05,266.836 C1270.48,270.356 1265.97,275.416 1265.97,282.456 C1265.97,290.376 1272.13,295.326 1281.92,295.326 C1289.51,295.326 1296.33,292.246 1301.06,286.636 C1302.82,292.246 1305.57,294.446 1310.74,294.446 C1315.69,294.446 1320.86,291.256 1320.86,288.066 C1320.86,287.296 1320.42,286.746 1319.76,286.746 C1319.32,286.746 1318.88,286.856 1318.11,287.186 C1316.57,287.846 1315.91,287.956 1315.03,287.956 C1311.95,287.956 1310.85,285.976 1310.85,280.366 L1310.85,258.256 M1300.51,271.676 C1300.51,278.276 1300.18,279.816 1298.31,282.676 C1295.56,286.746 1290.61,289.496 1285.77,289.496 C1280.71,289.496 1277.08,285.866 1277.08,280.916 C1277.08,276.296 1279.39,272.996 1284.23,270.686 C1287.64,269.146 1291.93,268.046 1300.51,266.616 L1300.51,271.676 M1340.75,242.416 L1340.75,220.636 L1336.24,220.636 C1335.14,234.936 1330.3,242.196 1321.39,242.856 L1321.39,247.146 L1330.41,247.146 L1330.41,275.196 C1330.41,282.896 1330.63,285.646 1331.73,288.176 C1333.49,292.796 1337.89,295.326 1344.27,295.326 C1354.17,295.326 1360.55,287.846 1360.55,276.186 C1360.55,275.526 1360.55,274.756 1360.44,273.656 L1355.82,273.656 C1355.49,283.556 1352.63,288.616 1347.24,288.616 C1344.71,288.616 1342.51,287.296 1341.74,285.426 C1341.08,283.886 1340.75,281.136 1340.75,277.176 L1340.75,247.146 L1356.92,247.146 L1356.92,242.416 L1340.75,242.416 M1442.49,258.256 C1442.49,251.326 1441.28,247.806 1438.09,245.166 C1434.46,242.196 1429.07,240.766 1422.03,240.766 C1409.6,240.766 1400.58,246.596 1400.58,254.626 C1400.58,258.696 1403.11,261.336 1406.96,261.336 C1410.48,261.336 1412.9,259.026 1412.9,255.726 C1412.9,254.296 1412.35,252.756 1411.25,251.216 C1410.59,250.446 1410.48,250.226 1410.48,249.676 C1410.48,247.476 1414.88,245.496 1420.16,245.496 C1423.68,245.496 1427.53,246.596 1429.29,248.246 C1431.38,250.006 1432.15,252.646 1432.15,257.596 L1432.15,261.886 C1420.71,263.866 1417.08,264.746 1411.69,266.836 C1402.12,270.356 1397.61,275.416 1397.61,282.456 C1397.61,290.376 1403.77,295.326 1413.56,295.326 C1421.15,295.326 1427.97,292.246 1432.7,286.636 C1434.46,292.246 1437.21,294.446 1442.38,294.446 C1447.33,294.446 1452.5,291.256 1452.5,288.066 C1452.5,287.296 1452.06,286.746 1451.4,286.746 C1450.96,286.746 1450.52,286.856 1449.75,287.186 C1448.21,287.846 1447.55,287.956 1446.67,287.956 C1443.59,287.956 1442.49,285.976 1442.49,280.366 L1442.49,258.256 M1432.15,271.676 C1432.15,278.276 1431.82,279.816 1429.95,282.676 C1427.2,286.746 1422.25,289.496 1417.41,289.496 C1412.35,289.496 1408.72,285.866 1408.72,280.916 C1408.72,276.296 1411.03,272.996 1415.87,270.686 C1419.28,269.146 1423.57,268.046 1432.15,266.616 L1432.15,271.676 M1476.37,212.606 L1456.02,213.816 L1456.02,218.546 L1461.41,218.546 C1465.48,218.656 1466.03,219.316 1466.03,224.046 L1466.03,285.316 C1465.92,286.966 1465.81,287.626 1465.37,288.176 C1464.6,289.166 1462.51,289.606 1457.78,289.716 L1457.01,289.716 L1457.01,293.676 L1485.5,293.676 L1485.5,289.716 L1484.73,289.716 C1477.36,289.496 1476.37,288.946 1476.37,284.986 L1476.37,212.606 M1511.01,212.606 L1490.66,213.816 L1490.66,218.546 L1496.05,218.546 C1500.12,218.656 1500.67,219.316 1500.67,224.046 L1500.67,285.316 C1500.56,286.966 1500.45,287.626 1500.01,288.176 C1499.24,289.166 1497.15,289.606 1492.42,289.716 L1491.65,289.716 L1491.65,293.676 L1520.14,293.676 L1520.14,289.716 L1519.37,289.716 C1512,289.496 1511.01,288.946 1511.01,284.986 L1511.01,212.606 M1540.7,215.026 C1537.18,215.026 1534.32,217.886 1534.32,221.406 C1534.32,224.926 1537.18,227.786 1540.59,227.786 C1544.22,227.786 1547.08,224.926 1547.08,221.406 C1547.08,217.886 1544.22,215.026 1540.7,215.026 M1545.87,242.416 L1525.19,243.626 L1525.19,248.356 L1530.8,248.356 C1534.98,248.466 1535.53,249.126 1535.53,253.856 L1535.53,285.316 C1535.42,286.966 1535.31,287.626 1534.87,288.176 C1534.1,289.166 1532.01,289.606 1527.28,289.716 L1526.51,289.716 L1526.51,293.676 L1555,293.676 L1555,289.716 L1554.23,289.716 C1546.86,289.496 1545.87,288.946 1545.87,284.986 L1545.87,242.416 M1578.41,285.536 C1572.36,285.426 1572.03,285.316 1570.71,284.546 C1569.94,284.106 1569.39,282.896 1569.39,281.686 C1569.39,278.386 1572.36,276.956 1579.73,276.736 C1590.07,276.516 1591.72,276.296 1595.46,274.646 C1602.06,271.676 1605.69,265.956 1605.69,258.696 C1605.69,254.296 1604.7,251.546 1601.73,247.916 C1603.6,245.936 1604.59,245.276 1605.47,245.276 C1606.02,245.276 1606.35,245.606 1606.57,246.816 C1607.01,249.456 1608.77,250.886 1611.52,250.886 C1614.38,250.886 1616.47,248.576 1616.47,245.606 C1616.47,241.866 1613.5,239.226 1609.21,239.226 C1605.69,239.226 1603.71,240.326 1598.65,244.946 C1594.03,241.866 1590.51,240.766 1585.01,240.766 C1571.92,240.766 1563.34,248.026 1563.34,259.026 C1563.34,265.516 1566.86,271.016 1572.58,273.766 C1565.21,275.416 1562.13,278.716 1562.13,284.766 C1562.13,289.606 1564.33,292.466 1569.5,294.226 C1562.68,296.756 1559.38,300.166 1559.38,304.676 C1559.38,307.976 1561.58,311.056 1565.1,312.926 C1569.39,315.126 1574.67,316.006 1582.59,316.006 C1600.96,316.006 1610.09,310.176 1610.09,298.626 C1610.09,293.126 1607.56,288.726 1603.6,287.076 C1600.63,285.976 1597.11,285.536 1589.63,285.536 L1578.41,285.536 M1584.9,245.496 C1591.72,245.496 1595.57,250.226 1595.57,258.806 C1595.57,267.386 1591.39,272.556 1584.46,272.556 C1577.64,272.556 1573.35,267.386 1573.35,259.136 C1573.35,250.446 1577.53,245.496 1584.9,245.496 M1583.91,294.996 C1593.04,294.996 1593.7,294.996 1595.24,295.216 C1599.75,295.656 1602.39,298.076 1602.39,301.596 C1602.39,307.866 1595.24,311.496 1583.03,311.496 C1573.68,311.496 1568.51,308.746 1568.51,303.796 C1568.51,300.166 1570.49,297.746 1575.77,294.996 L1583.91,294.996 M1637.91,242.416 L1618.88,243.626 L1618.88,248.356 L1622.84,248.356 C1627.02,248.466 1627.57,249.126 1627.57,253.856 L1627.57,285.316 C1627.46,286.966 1627.35,287.626 1626.91,288.176 C1626.14,289.166 1624.05,289.606 1619.32,289.716 L1618.88,289.716 L1618.88,293.676 L1646.71,293.676 L1646.71,289.716 L1646.27,289.716 C1638.9,289.496 1637.91,288.946 1637.91,284.986 L1637.91,268.706 C1637.91,263.316 1638.68,258.366 1639.89,255.836 C1642.2,250.886 1647.15,247.476 1651.88,247.476 C1654.74,247.476 1658.04,249.016 1659.69,251.326 C1661.34,253.746 1662.11,257.046 1662.11,262.326 L1662.11,285.316 C1662,286.966 1661.89,287.626 1661.45,288.176 C1660.68,289.166 1658.48,289.606 1653.75,289.716 L1653.31,289.716 L1653.31,293.676 L1681.14,293.676 L1681.14,289.716 L1680.7,289.716 C1673.44,289.496 1672.45,288.946 1672.45,284.986 L1672.45,262.876 C1672.45,254.956 1672.12,252.976 1670.14,249.236 C1667.39,243.956 1661.89,240.766 1655.29,240.766 C1648.14,240.766 1642.75,244.066 1637.91,251.326 L1637.91,242.416 M1764.84,268.926 C1764.95,252.426 1755.6,240.766 1742.18,240.766 C1728.1,240.766 1717.54,252.976 1717.54,269.476 C1717.54,284.986 1727.55,295.326 1742.4,295.326 C1752.96,295.326 1760.33,290.156 1764.84,279.706 L1760.99,277.616 C1756.48,286.086 1751.86,289.386 1744.49,289.386 C1738.88,289.386 1734.81,287.076 1731.95,282.126 C1729.97,278.826 1729.09,274.976 1729.2,268.926 L1764.84,268.926 M1729.31,264.196 C1729.31,256.496 1732.83,245.496 1742.07,245.496 C1748.67,245.496 1753.07,251.326 1753.07,260.236 C1753.07,263.316 1752.08,264.196 1748.56,264.196 L1729.31,264.196 M1801.14,265.626 L1813.68,250.996 C1816.43,247.806 1818.96,246.376 1821.93,246.376 L1822.92,246.376 L1822.92,242.416 L1800.15,242.416 L1800.15,246.376 L1802.24,246.376 C1805.54,246.376 1807.19,247.146 1807.19,248.796 C1807.19,249.896 1806.42,251.436 1804.99,253.196 L1798.06,261.556 L1789.59,250.776 C1788.93,249.896 1788.49,249.016 1788.49,248.356 C1788.49,246.926 1789.92,246.376 1793.33,246.376 L1794.87,246.376 L1794.87,242.416 L1768.8,242.416 L1768.8,246.376 C1772.87,246.706 1774.41,247.696 1777.93,252.316 L1791.35,269.146 L1778.7,283.886 C1774.96,288.066 1771.77,289.826 1768.8,289.716 L1768.14,289.716 L1768.14,293.676 L1791.35,293.676 L1791.35,289.716 L1789.7,289.716 C1787.17,289.716 1786.62,289.606 1785.85,289.276 C1784.97,288.726 1784.31,287.736 1784.31,286.746 C1784.31,285.976 1784.64,284.986 1785.19,284.326 L1794.43,273.326 L1802.79,284.436 C1803.56,285.536 1804.22,286.966 1804.22,287.736 C1804.22,289.166 1802.57,289.716 1798.39,289.716 L1797.62,289.716 L1797.62,293.676 L1825.34,293.676 L1825.34,289.716 L1824.57,289.716 C1820.72,289.716 1818.19,288.286 1815,284.326 L1801.14,265.626 M1875.93,258.256 C1875.93,251.326 1874.72,247.806 1871.53,245.166 C1867.9,242.196 1862.51,240.766 1855.47,240.766 C1843.04,240.766 1834.02,246.596 1834.02,254.626 C1834.02,258.696 1836.55,261.336 1840.4,261.336 C1843.92,261.336 1846.34,259.026 1846.34,255.726 C1846.34,254.296 1845.79,252.756 1844.69,251.216 C1844.03,250.446 1843.92,250.226 1843.92,249.676 C1843.92,247.476 1848.32,245.496 1853.6,245.496 C1857.12,245.496 1860.97,246.596 1862.73,248.246 C1864.82,250.006 1865.59,252.646 1865.59,257.596 L1865.59,261.886 C1854.15,263.866 1850.52,264.746 1845.13,266.836 C1835.56,270.356 1831.05,275.416 1831.05,282.456 C1831.05,290.376 1837.21,295.326 1847,295.326 C1854.59,295.326 1861.41,292.246 1866.14,286.636 C1867.9,292.246 1870.65,294.446 1875.82,294.446 C1880.77,294.446 1885.94,291.256 1885.94,288.066 C1885.94,287.296 1885.5,286.746 1884.84,286.746 C1884.4,286.746 1883.96,286.856 1883.19,287.186 C1881.65,287.846 1880.99,287.956 1880.11,287.956 C1877.03,287.956 1875.93,285.976 1875.93,280.366 L1875.93,258.256 M1865.59,271.676 C1865.59,278.276 1865.26,279.816 1863.39,282.676 C1860.64,286.746 1855.69,289.496 1850.85,289.496 C1845.79,289.496 1842.16,285.866 1842.16,280.916 C1842.16,276.296 1844.47,272.996 1849.31,270.686 C1852.72,269.146 1857.01,268.046 1865.59,266.616 L1865.59,271.676 M1909.47,242.416 L1889.89,243.626 L1889.89,248.356 L1894.4,248.356 C1898.58,248.466 1899.13,249.126 1899.13,253.856 L1899.13,285.316 C1899.02,286.966 1898.91,287.626 1898.47,288.176 C1897.7,289.166 1895.61,289.606 1890.88,289.716 L1890.44,289.716 L1890.44,293.676 L1918.16,293.676 L1918.16,289.716 L1917.72,289.716 C1910.46,289.496 1909.47,288.946 1909.47,284.876 L1909.47,264.526 C1909.47,254.736 1914.86,247.476 1922.01,247.476 C1928.28,247.476 1931.47,251.986 1931.47,260.896 L1931.47,285.426 C1931.36,286.856 1931.25,287.626 1930.7,288.176 C1930.04,289.166 1927.84,289.606 1923.11,289.716 L1922.67,289.716 L1922.67,293.676 L1950.5,293.676 L1950.5,289.716 L1950.06,289.716 C1942.8,289.496 1941.81,288.946 1941.81,284.986 L1941.81,265.516 C1941.81,254.516 1946.76,247.476 1954.46,247.476 C1960.73,247.476 1963.81,252.206 1963.81,262.106 L1963.81,285.316 C1963.7,286.856 1963.59,287.626 1963.04,288.176 C1962.38,289.166 1960.18,289.606 1955.45,289.716 L1955.01,289.716 L1955.01,293.676 L1982.84,293.676 L1982.84,289.716 L1982.4,289.716 C1975.14,289.496 1974.15,288.946 1974.15,284.876 L1974.15,259.906 C1974.15,253.086 1973.49,250.776 1970.63,247.036 C1967.44,242.966 1962.93,240.766 1957.65,240.766 C1950.5,240.766 1945.22,244.176 1940.49,251.766 C1938.62,245.166 1932.68,240.766 1925.31,240.766 C1918.6,240.766 1913.76,243.956 1909.47,250.886 L1909.47,242.416 M2003.94,242.416 L1984.91,243.626 L1984.91,248.356 L1988.87,248.356 C1993.05,248.466 1993.6,249.126 1993.6,253.856 L1993.6,307.646 C1993.49,309.186 1993.38,309.846 1992.94,310.396 C1992.17,311.386 1990.08,311.826 1985.35,311.936 L1984.91,311.936 L1984.91,315.896 L2013.51,315.896 L2013.51,311.936 L2012.3,311.936 C2004.93,311.716 2003.94,311.166 2003.94,307.206 L2003.94,286.416 C2007.57,292.796 2011.64,295.326 2018.46,295.326 C2033.09,295.326 2040.68,280.916 2040.68,267.826 C2040.68,255.396 2033.09,240.766 2019.12,240.766 C2012.3,240.766 2007.79,243.626 2003.94,250.226 L2003.94,242.416 M2017.14,246.706 C2024.73,246.706 2029.13,254.296 2029.13,267.166 C2029.13,281.356 2024.73,289.386 2016.81,289.386 C2008.89,289.386 2003.83,281.246 2003.83,268.596 C2003.83,254.846 2008.78,246.706 2017.14,246.706 M2067.4,212.606 L2047.05,213.816 L2047.05,218.546 L2052.44,218.546 C2056.51,218.656 2057.06,219.316 2057.06,224.046 L2057.06,285.316 C2056.95,286.966 2056.84,287.626 2056.4,288.176 C2055.63,289.166 2053.54,289.606 2048.81,289.716 L2048.04,289.716 L2048.04,293.676 L2076.53,293.676 L2076.53,289.716 L2075.76,289.716 C2068.39,289.496 2067.4,288.946 2067.4,284.986 L2067.4,212.606 M2130.75,268.926 C2130.86,252.426 2121.51,240.766 2108.09,240.766 C2094.01,240.766 2083.45,252.976 2083.45,269.476 C2083.45,284.986 2093.46,295.326 2108.31,295.326 C2118.87,295.326 2126.24,290.156 2130.75,279.706 L2126.9,277.616 C2122.39,286.086 2117.77,289.386 2110.4,289.386 C2104.79,289.386 2100.72,287.076 2097.86,282.126 C2095.88,278.826 2095,274.976 2095.11,268.926 L2130.75,268.926 M2095.22,264.196 C2095.22,256.496 2098.74,245.496 2107.98,245.496 C2114.58,245.496 2118.98,251.326 2118.98,260.236 C2118.98,263.316 2117.99,264.196 2114.47,264.196 L2095.22,264.196 "
     id="path6" />
  <g
     id="g136"
     transform="translate(220)"
     inkscape:export-filename="pulseAlign_v2.pdf"
     inkscape:export-xdpi="96"
     inkscape:export-ydpi="96">
    <polyline
       class="StaffLines"
       fill="none"
       stroke="#000000"
       stroke-width="5.1042"
       stroke-linejoin="bevel"
       points="528.445,634.198 2764.6,634.198"
       id="polyline1"
       transform="matrix(0.28606917,0,0,1,377.27318,0)" />
    <polyline
       class="StaffLines"
       fill="none"
       stroke="#000000"
       stroke-width="5.1042"
       stroke-linejoin="bevel"
       points="528.445,782.999 2764.6,782.999"
       id="polyline2"
       transform="matrix(0.28606917,0,0,1,377.27318,0)" />
    <polyline
       class="BarLine"
       fill="none"
       stroke="#000000"
       stroke-width="4.46"
       stroke-linejoin="bevel"
       points="1165.91,583.234 1165.91,782.999"
       id="polyline11" />
    <polyline
       class="BarLine"
       fill="none"
       stroke="#000000"
       stroke-width="4.46"
       stroke-linejoin="bevel"
       points="530.677,583.234 530.677,782.999"
       id="polyline21" />
    <polyline
       class="BarLine"
       fill="none"
       stroke="#000000"
       stroke-width="4.46"
       stroke-linejoin="bevel"
       points="1165.91,732.034 1165.91,833.963"
       id="polyline36" />
    <polyline
       class="BarLine"
       fill="none"
       stroke="#000000"
       stroke-width="4.46"
       stroke-linejoin="bevel"
       points="530.677,732.034 530.677,833.963"
       id="polyline42" />
    <polyline
       class="Stem"
       fill="none"
       stroke="#000000"
       stroke-width="2.48"
       stroke-linejoin="bevel"
       points="810.989,630.23 810.989,572.198"
       id="polyline45" />
    <polyline
       class="Stem"
       fill="none"
       stroke="#000000"
       stroke-width="2.48"
       stroke-linejoin="bevel"
       points="734.255,630.23 734.255,572.198"
       id="polyline46" />
    <polyline
       class="Stem"
       fill="none"
       stroke="#000000"
       stroke-width="2.48"
       stroke-linejoin="bevel"
       points="1117.93,630.23 1117.93,572.198"
       id="polyline47" />
    <polyline
       class="Stem"
       fill="none"
       stroke="#000000"
       stroke-width="2.48"
       stroke-linejoin="bevel"
       points="887.723,630.23 887.723,572.198"
       id="polyline48" />
    <polyline
       class="Stem"
       fill="none"
       stroke="#000000"
       stroke-width="2.48"
       stroke-linejoin="bevel"
       points="1041.19,630.23 1041.19,572.198"
       id="polyline49" />
    <polyline
       class="Stem"
       fill="none"
       stroke="#000000"
       stroke-width="2.48"
       stroke-linejoin="bevel"
       points="964.458,630.23 964.458,572.198"
       id="polyline51" />
    <polyline
       class="Stem"
       fill="none"
       stroke="#000000"
       stroke-width="2.48"
       stroke-linejoin="bevel"
       points="704.51,774.765 704.51,832.599"
       id="polyline57" />
    <polyline
       class="Stem"
       fill="none"
       stroke="#000000"
       stroke-width="2.48"
       stroke-linejoin="bevel"
       points="781.244,774.765 781.244,832.599"
       id="polyline60" />
    <polyline
       class="Stem"
       fill="none"
       stroke="#000000"
       stroke-width="2.48"
       stroke-linejoin="bevel"
       points="857.979,774.765 857.979,832.599"
       id="polyline61" />
    <polyline
       class="Stem"
       fill="none"
       stroke="#000000"
       stroke-width="2.48"
       stroke-linejoin="bevel"
       points="1088.18,774.765 1088.18,832.599"
       id="polyline63" />
    <polyline
       class="Stem"
       fill="none"
       stroke="#000000"
       stroke-width="2.48"
       stroke-linejoin="bevel"
       points="1011.45,774.765 1011.45,832.599"
       id="polyline65" />
    <polyline
       class="Stem"
       fill="none"
       stroke="#000000"
       stroke-width="2.48"
       stroke-linejoin="bevel"
       points="934.713,774.765 934.713,832.599"
       id="polyline66" />
    <path
       class="Note"
       transform="matrix(0.992001,0,0,0.992001,780.004,634.198)"
       d="m 0,4.2 c 0,4.3 3.1,9.1 11.2,9.1 10.4,0 21.3,-8.5 21.3,-17.3 0,-5.9 -5,-9.2 -11.2,-9.2 C 11.6,-13.2 0,-5 0,4.2"
       id="path67" />
    <path
       class="Note"
       transform="matrix(0.992001,0,0,0.992001,703.27,634.198)"
       d="m 0,4.2 c 0,4.3 3.1,9.1 11.2,9.1 10.4,0 21.3,-8.5 21.3,-17.3 0,-5.9 -5,-9.2 -11.2,-9.2 C 11.6,-13.2 0,-5 0,4.2"
       id="path68" />
    <path
       class="Note"
       transform="matrix(0.992001,0,0,0.992001,1086.94,634.198)"
       d="m 0,4.2 c 0,4.3 3.1,9.1 11.2,9.1 10.4,0 21.3,-8.5 21.3,-17.3 0,-5.9 -5,-9.2 -11.2,-9.2 C 11.6,-13.2 0,-5 0,4.2"
       id="path70" />
    <path
       class="Note"
       transform="matrix(0.992001,0,0,0.992001,856.739,634.198)"
       d="m 0,4.2 c 0,4.3 3.1,9.1 11.2,9.1 10.4,0 21.3,-8.5 21.3,-17.3 0,-5.9 -5,-9.2 -11.2,-9.2 C 11.6,-13.2 0,-5 0,4.2"
       id="path72" />
    <path
       class="Note"
       transform="matrix(0.992001,0,0,0.992001,1010.21,634.198)"
       d="m 0,4.2 c 0,4.3 3.1,9.1 11.2,9.1 10.4,0 21.3,-8.5 21.3,-17.3 0,-5.9 -5,-9.2 -11.2,-9.2 C 11.6,-13.2 0,-5 0,4.2"
       id="path73" />
    <path
       class="Note"
       transform="matrix(0.992001,0,0,0.992001,933.473,634.198)"
       d="m 0,4.2 c 0,4.3 3.1,9.1 11.2,9.1 10.4,0 21.3,-8.5 21.3,-17.3 0,-5.9 -5,-9.2 -11.2,-9.2 C 11.6,-13.2 0,-5 0,4.2"
       id="path74" />
    <path
       class="Note"
       transform="matrix(0.992001,0,0,0.992001,933.473,770.599)"
       d="m 0,4.2 c 0,4.3 3.1,9.1 11.2,9.1 10.4,0 21.3,-8.5 21.3,-17.3 0,-5.9 -5,-9.2 -11.2,-9.2 C 11.6,-13.2 0,-5 0,4.2"
       id="path78" />
    <path
       class="Note"
       transform="matrix(0.992001,0,0,0.992001,856.739,770.599)"
       d="m 0,4.2 c 0,4.3 3.1,9.1 11.2,9.1 10.4,0 21.3,-8.5 21.3,-17.3 0,-5.9 -5,-9.2 -11.2,-9.2 C 11.6,-13.2 0,-5 0,4.2"
       id="path81" />
    <path
       class="Note"
       transform="matrix(0.992001,0,0,0.992001,1010.21,770.599)"
       d="m 0,4.2 c 0,4.3 3.1,9.1 11.2,9.1 10.4,0 21.3,-8.5 21.3,-17.3 0,-5.9 -5,-9.2 -11.2,-9.2 C 11.6,-13.2 0,-5 0,4.2"
       id="path82" />
    <path
       class="Note"
       transform="matrix(0.992001,0,0,0.992001,1086.94,770.599)"
       d="m 0,4.2 c 0,4.3 3.1,9.1 11.2,9.1 10.4,0 21.3,-8.5 21.3,-17.3 0,-5.9 -5,-9.2 -11.2,-9.2 C 11.6,-13.2 0,-5 0,4.2"
       id="path83" />
    <path
       class="Note"
       transform="matrix(0.992001,0,0,0.992001,780.004,770.599)"
       d="m 0,4.2 c 0,4.3 3.1,9.1 11.2,9.1 10.4,0 21.3,-8.5 21.3,-17.3 0,-5.9 -5,-9.2 -11.2,-9.2 C 11.6,-13.2 0,-5 0,4.2"
       id="path85" />
    <path
       class="Note"
       transform="matrix(0.992001,0,0,0.992001,703.27,770.599)"
       d="m 0,4.2 c 0,4.3 3.1,9.1 11.2,9.1 10.4,0 21.3,-8.5 21.3,-17.3 0,-5.9 -5,-9.2 -11.2,-9.2 C 11.6,-13.2 0,-5 0,4.2"
       id="path87" />
    <path
       class="Clef"
       transform="matrix(0.992001,0,0,0.992001,551.509,634.198)"
       d="m 1.3,-25.2 c -0.7,0 -1.3,0.6 -1.3,1.3 v 47.8 c 0,0.7 0.6,1.3 1.3,1.3 h 11 c 0.7,0 1.3,-0.6 1.3,-1.3 v -47.8 c 0,-0.7 -0.6,-1.3 -1.3,-1.3 h -11 m 21.6,0 c -0.7,0 -1.3,0.6 -1.3,1.3 v 47.8 c 0,0.7 0.6,1.3 1.3,1.3 h 11 c 0.7,0 1.3,-0.6 1.3,-1.3 v -47.8 c 0,-0.7 -0.6,-1.3 -1.3,-1.3 h -11"
       id="path89" />
    <path
       class="Clef"
       transform="matrix(0.992001,0,0,0.992001,551.509,782.999)"
       d="m 1.3,-25.2 c -0.7,0 -1.3,0.6 -1.3,1.3 v 47.8 c 0,0.7 0.6,1.3 1.3,1.3 h 11 c 0.7,0 1.3,-0.6 1.3,-1.3 v -47.8 c 0,-0.7 -0.6,-1.3 -1.3,-1.3 h -11 m 21.6,0 c -0.7,0 -1.3,0.6 -1.3,1.3 v 47.8 c 0,0.7 0.6,1.3 1.3,1.3 h 11 c 0.7,0 1.3,-0.6 1.3,-1.3 v -47.8 c 0,-0.7 -0.6,-1.3 -1.3,-1.3 h -11"
       id="path90" />
    <path
       class="TimeSig"
       transform="matrix(0.992001,0,0,0.992001,613.742,609.894)"
       d="m 27.2,-1.6 c 5,-1.9 8.5,-5.1 8.5,-10.6 0,-0.9 -0.3,-12.2 -17.5,-12.2 C 1,-24.4 1.5,-12.2 1.5,-12.2 H 1.6 L 1.5,-12 c 0,3.6 2.9,6.4 6.5,6.4 3.6,0 6.4,-2.8 6.4,-6.4 0,-2.9 -2.2,-5.7 -5,-6.3 0.1,-0.1 0.2,-0.2 0.3,-0.3 1.4,-1 3.3,-1.5 5.2,-1.5 4.2,0 8.7,2.5 8.7,7.9 0,6.3 -4.7,7.2 -5.9,7.4 -1.2,0.2 -6.8,0.6 -8,0.6 -1.2,0 -1.3,1.4 -1.3,1.4 v 2 c 0,0 0.2,1.1 1.3,1.2 1.7,0.1 4,0.1 7.2,0.6 4.4,0.6 6.7,3.6 6.7,10.6 0,6.7 -4.5,8.5 -8.7,8.5 -2.8,0 -5.4,-0.8 -6.5,-1.6 3.3,-0.2 6,-3.1 6,-6.4 0,-3.6 -2.8,-6.5 -6.4,-6.5 -3.6,0 -6.5,2.9 -6.5,6.5 0,8.2 7.5,12.3 14.9,12.3 9.6,0 20,-3.3 20,-14.2 0,-7.3 -5,-10.4 -9.4,-11.8 h 0.2"
       id="path96" />
    <path
       class="TimeSig"
       transform="matrix(0.992001,0,0,0.992001,609.836,658.998)"
       d="m 20.8,12.7 v 7.4 h -8.3 c -0.7,0 -1.4,0.6 -1.4,1.4 v 1.9 c 0,0.8 0.7,1.4 1.4,1.4 h 30.3 c 0.8,0 1.4,-0.6 1.4,-1.4 v -1.9 c 0,-0.8 -0.6,-1.4 -1.4,-1.4 h -8.9 v -7.4 h 8.9 c 0.8,0 1.4,-0.7 1.4,-1.5 V 9.3 C 44.2,8.6 43.6,7.9 42.8,7.9 H 33.9 V -8 c 0,-0.6 -0.3,-1.1 -0.8,-1.3 l -1.2,-0.6 c -0.2,-0.1 -0.5,-0.2 -0.7,-0.2 -0.3,0.1 -0.7,0.2 -0.9,0.4 l -9.1,8.3 c -0.3,0.3 -0.4,0.7 -0.4,1.1 V 7.9 H 9.3 c 0,0 11.1,-12 22.9,-27.8 0.4,-0.5 0.5,-1 0.5,-1.4 0,-0.5 -0.2,-0.9 -0.3,-1 l -2.2,-2.2 c -0.2,-0.2 -0.6,-0.4 -1,-0.4 -0.6,0 -14.1,0 -14.8,0 -0.8,0 -1.3,0.6 -1.4,1.2 0,0 -0.5,7.4 -3.1,15.5 -2.6,8.1 -5.6,13.1 -8.2,16.8 0,0 -0.3,0.5 -0.3,1.1 0,0.2 0,0.4 0.1,0.6 0.4,0.7 1,1.8 1,1.8 0,0 0.2,0.6 1.1,0.6 h 17.2"
       id="path97" />
    <path
       class="TimeSig"
       transform="matrix(0.992001,0,0,0.992001,610.13,758.695)"
       d="m 24.7,-4.8 c -6.1,0 -8.3,1.8 -9.7,3.3 -0.3,-2.1 -0.5,-3.7 -0.5,-5.3 0,-5.7 2,-13.1 9,-13.1 2.5,0 4,0.8 5,1.9 -2.1,0.9 -3.8,3.6 -3.8,5.9 0,3.6 2.8,6.4 6.4,6.4 3.6,0 6.5,-2.8 6.5,-6.4 v -0.3 c 0,-0.9 -0.2,-2.4 -0.6,-3.2 -1.3,-3.6 -5.5,-8.9 -15.5,-8.9 -9,0 -15.5,8.6 -17.5,13.2 -1,2.4 -2.5,7.3 -2.5,12.9 0,6.1 1.7,13 7.6,18.2 5.8,4.4 9.5,4.6 13,4.6 3.5,0 16.6,-4.1 16.6,-15.7 0,-9.8 -7.7,-13.5 -14,-13.5 m -3.7,25 c -3.3,0 -6,-4.5 -6,-10.1 0,-5.6 2.7,-10.2 6,-10.2 3.3,0 6.1,4.6 6.1,10.2 0,5.6 -2.8,10.1 -6.1,10.1"
       id="path102" />
    <path
       class="TimeSig"
       transform="matrix(0.992001,0,0,0.992001,609.836,807.551)"
       d="m 32.4,-1.8 c 3.3,-2.5 5.6,-5.7 5.6,-9.7 0,-7.2 -7.9,-13.1 -17.6,-13.1 -9.7,0 -17.6,5.9 -17.6,13.1 0,4 1,7.6 5.7,10.6 -4.5,2.6 -7,6.3 -7,11.1 0,8.1 8.5,14.6 18.9,14.6 10.4,0 18.9,-6.5 18.9,-14.6 0,-4.8 -1.7,-9.3 -6.9,-12 M 26.8,-4.5 C 20,-6.7 12.5,-10 12.5,-14.5 c 0,-3.9 3.6,-5.5 7.9,-5.5 6.2,0 10.4,2.9 10.4,7.5 0,4.8 -2.2,7.1 -4,8 M 20.4,19.2 C 14,19.2 8.5,15.7 8.5,10.1 c 0,-6.7 5.2,-8.3 5.2,-8.3 6.8,2.3 16.5,5.7 16.5,11.2 0,2.7 -3.4,6.2 -9.8,6.2"
       id="path103" />
    <path
       class="Beam"
       fill-rule="evenodd"
       d="m 1039.95,565.998 h 79.22 v 12.4 h -79.22 v -12.4"
       id="path128" />
    <path
       class="Beam"
       fill-rule="evenodd"
       d="m 733.015,565.998 h 79.214 v 12.4 h -79.214 v -12.4"
       id="path129" />
    <path
       class="Beam"
       fill-rule="evenodd"
       d="m 886.483,565.998 h 79.215 v 12.4 h -79.215 v -12.4"
       id="path130" />
    <path
       class="Beam"
       fill-rule="evenodd"
       d="m 703.27,826.399 h 155.949 v 12.4 H 703.27 v -12.4"
       id="path134" />
    <path
       class="Beam"
       fill-rule="evenodd"
       d="m 933.473,826.399 h 155.947 v 12.4 H 933.473 v -12.4"
       id="path135" />
  </g>
  <g
     id="g137"
     transform="translate(1017.463,-781.2035)">
    <polyline
       class="StaffLines"
       fill="none"
       stroke="#000000"
       stroke-width="5.05555"
       stroke-linejoin="bevel"
       points="528.445,1415.4 2764.6,1415.4"
       id="polyline3"
       transform="matrix(0.29160099,0,0,1,374.34991,0)" />
    <polyline
       class="StaffLines"
       fill="none"
       stroke="#000000"
       stroke-width="5.05555"
       stroke-linejoin="bevel"
       points="528.445,1564.2 2764.6,1564.2"
       id="polyline4"
       transform="matrix(0.29160099,0,0,1,374.34991,0)" />
    <polyline
       class="BarLine"
       fill="none"
       stroke="#000000"
       stroke-width="4.46"
       stroke-linejoin="bevel"
       points="1178.28,1364.44 1178.28,1564.2"
       id="polyline19" />
    <polyline
       class="BarLine"
       fill="none"
       stroke="#000000"
       stroke-width="4.46"
       stroke-linejoin="bevel"
       points="530.677,1364.44 530.677,1564.2"
       id="polyline20" />
    <polyline
       class="BarLine"
       fill="none"
       stroke="#000000"
       stroke-width="4.46"
       stroke-linejoin="bevel"
       points="530.677,1513.24 530.677,1615.16"
       id="polyline29" />
    <polyline
       class="BarLine"
       fill="none"
       stroke="#000000"
       stroke-width="4.46"
       stroke-linejoin="bevel"
       points="1178.28,1513.24 1178.28,1615.16"
       id="polyline35" />
    <polyline
       class="Stem"
       fill="none"
       stroke="#000000"
       stroke-width="2.48"
       stroke-linejoin="bevel"
       points="734.255,1411.43 734.255,1353.4"
       id="polyline50" />
    <polyline
       class="Stem"
       fill="none"
       stroke="#000000"
       stroke-width="2.48"
       stroke-linejoin="bevel"
       points="852.449,1411.43 852.449,1353.4"
       id="polyline52" />
    <polyline
       class="Stem"
       fill="none"
       stroke="#000000"
       stroke-width="2.48"
       stroke-linejoin="bevel"
       points="970.644,1411.43 970.644,1353.4"
       id="polyline53" />
    <polyline
       class="Stem"
       fill="none"
       stroke="#000000"
       stroke-width="2.48"
       stroke-linejoin="bevel"
       points="1088.84,1411.43 1088.84,1353.4"
       id="polyline54" />
    <polyline
       class="Stem"
       fill="none"
       stroke="#000000"
       stroke-width="2.48"
       stroke-linejoin="bevel"
       points="1019.7,1555.97 1019.7,1613.8"
       id="polyline55" />
    <polyline
       class="Stem"
       fill="none"
       stroke="#000000"
       stroke-width="2.48"
       stroke-linejoin="bevel"
       points="704.51,1555.97 704.51,1613.8"
       id="polyline56" />
    <polyline
       class="Stem"
       fill="none"
       stroke="#000000"
       stroke-width="2.48"
       stroke-linejoin="bevel"
       points="940.899,1555.97 940.899,1613.8"
       id="polyline58" />
    <polyline
       class="Stem"
       fill="none"
       stroke="#000000"
       stroke-width="2.48"
       stroke-linejoin="bevel"
       points="1098.49,1555.97 1098.49,1613.8"
       id="polyline59" />
    <polyline
       class="Stem"
       fill="none"
       stroke="#000000"
       stroke-width="2.48"
       stroke-linejoin="bevel"
       points="862.103,1555.97 862.103,1613.8"
       id="polyline62" />
    <polyline
       class="Stem"
       fill="none"
       stroke="#000000"
       stroke-width="2.48"
       stroke-linejoin="bevel"
       points="783.306,1555.97 783.306,1613.8"
       id="polyline64" />
    <path
       class="Note"
       transform="matrix(0.992001,0,0,0.992001,1057.85,1415.4)"
       d="m 0,4.2 c 0,4.3 3.1,9.1 11.2,9.1 10.4,0 21.3,-8.5 21.3,-17.3 0,-5.9 -5,-9.2 -11.2,-9.2 C 11.6,-13.2 0,-5 0,4.2"
       id="path66" />
    <path
       class="Note"
       transform="matrix(0.992001,0,0,0.992001,939.659,1415.4)"
       d="m 0,4.2 c 0,4.3 3.1,9.1 11.2,9.1 10.4,0 21.3,-8.5 21.3,-17.3 0,-5.9 -5,-9.2 -11.2,-9.2 C 11.6,-13.2 0,-5 0,4.2"
       id="path69" />
    <path
       class="Note"
       transform="matrix(0.992001,0,0,0.992001,821.465,1415.4)"
       d="m 0,4.2 c 0,4.3 3.1,9.1 11.2,9.1 10.4,0 21.3,-8.5 21.3,-17.3 0,-5.9 -5,-9.2 -11.2,-9.2 C 11.6,-13.2 0,-5 0,4.2"
       id="path71" />
    <path
       class="Note"
       transform="matrix(0.992001,0,0,0.992001,703.27,1415.4)"
       d="m 0,4.2 c 0,4.3 3.1,9.1 11.2,9.1 10.4,0 21.3,-8.5 21.3,-17.3 0,-5.9 -5,-9.2 -11.2,-9.2 C 11.6,-13.2 0,-5 0,4.2"
       id="path75" />
    <path
       class="Note"
       transform="matrix(0.992001,0,0,0.992001,1018.46,1551.8)"
       d="m 0,4.2 c 0,4.3 3.1,9.1 11.2,9.1 10.4,0 21.3,-8.5 21.3,-17.3 0,-5.9 -5,-9.2 -11.2,-9.2 C 11.6,-13.2 0,-5 0,4.2"
       id="path76" />
    <path
       class="Note"
       transform="matrix(0.992001,0,0,0.992001,703.27,1551.8)"
       d="m 0,4.2 c 0,4.3 3.1,9.1 11.2,9.1 10.4,0 21.3,-8.5 21.3,-17.3 0,-5.9 -5,-9.2 -11.2,-9.2 C 11.6,-13.2 0,-5 0,4.2"
       id="path77" />
    <path
       class="Note"
       transform="matrix(0.992001,0,0,0.992001,1097.25,1551.8)"
       d="m 0,4.2 c 0,4.3 3.1,9.1 11.2,9.1 10.4,0 21.3,-8.5 21.3,-17.3 0,-5.9 -5,-9.2 -11.2,-9.2 C 11.6,-13.2 0,-5 0,4.2"
       id="path79" />
    <path
       class="Note"
       transform="matrix(0.992001,0,0,0.992001,782.066,1551.8)"
       d="m 0,4.2 c 0,4.3 3.1,9.1 11.2,9.1 10.4,0 21.3,-8.5 21.3,-17.3 0,-5.9 -5,-9.2 -11.2,-9.2 C 11.6,-13.2 0,-5 0,4.2"
       id="path80" />
    <path
       class="Note"
       transform="matrix(0.992001,0,0,0.992001,860.863,1551.8)"
       d="m 0,4.2 c 0,4.3 3.1,9.1 11.2,9.1 10.4,0 21.3,-8.5 21.3,-17.3 0,-5.9 -5,-9.2 -11.2,-9.2 C 11.6,-13.2 0,-5 0,4.2"
       id="path84" />
    <path
       class="Note"
       transform="matrix(0.992001,0,0,0.992001,939.659,1551.8)"
       d="m 0,4.2 c 0,4.3 3.1,9.1 11.2,9.1 10.4,0 21.3,-8.5 21.3,-17.3 0,-5.9 -5,-9.2 -11.2,-9.2 C 11.6,-13.2 0,-5 0,4.2"
       id="path86" />
    <path
       class="Clef"
       transform="matrix(0.992001,0,0,0.992001,551.509,1415.4)"
       d="m 1.3,-25.2 c -0.7,0 -1.3,0.6 -1.3,1.3 v 47.8 c 0,0.7 0.6,1.3 1.3,1.3 h 11 c 0.7,0 1.3,-0.6 1.3,-1.3 v -47.8 c 0,-0.7 -0.6,-1.3 -1.3,-1.3 h -11 m 21.6,0 c -0.7,0 -1.3,0.6 -1.3,1.3 v 47.8 c 0,0.7 0.6,1.3 1.3,1.3 h 11 c 0.7,0 1.3,-0.6 1.3,-1.3 v -47.8 c 0,-0.7 -0.6,-1.3 -1.3,-1.3 h -11"
       id="path88" />
    <path
       class="Clef"
       transform="matrix(0.992001,0,0,0.992001,551.509,1564.2)"
       d="m 1.3,-25.2 c -0.7,0 -1.3,0.6 -1.3,1.3 v 47.8 c 0,0.7 0.6,1.3 1.3,1.3 h 11 c 0.7,0 1.3,-0.6 1.3,-1.3 v -47.8 c 0,-0.7 -0.6,-1.3 -1.3,-1.3 h -11 m 21.6,0 c -0.7,0 -1.3,0.6 -1.3,1.3 v 47.8 c 0,0.7 0.6,1.3 1.3,1.3 h 11 c 0.7,0 1.3,-0.6 1.3,-1.3 v -47.8 c 0,-0.7 -0.6,-1.3 -1.3,-1.3 h -11"
       id="path91" />
    <path
       class="TimeSig"
       transform="matrix(0.992001,0,0,0.992001,613.106,1391.1)"
       d="m 34.2,3.9 c -0.8,2.2 -2.8,9.4 -7.7,9.4 -6.5,0 -7.9,-4 -13.3,-4 -0.8,0 -1.6,0.1 -2.6,0.3 0,0 2.5,-3.8 13.1,-7.1 C 34.3,-0.8 37,-6 37,-12 c 0,-4.2 -1.9,-12.5 -17,-12.5 -15.1,0 -17.9,9.1 -17.9,13.7 0,4.1 3.4,7.4 7.5,7.4 4.1,0 7.4,-3.3 7.4,-7.4 0,-2.8 -2,-5.9 -4.6,-6.9 -0.3,-0.1 -0.7,-0.6 -0.7,-1.1 0,-0.6 0.5,-1.3 2.3,-1.8 0.5,-0.2 1.9,-0.5 3.4,-0.5 5.7,0 6.8,3.5 6.8,8.6 0,11.7 -13.9,14.2 -19.7,22.9 0,0 -3,4.2 -3,8.9 0,4.7 2.4,5 3.6,5 1.6,0 3.3,-1.3 3.3,-3.1 0,-0.4 -0.1,-0.8 -0.3,-1.3 -0.6,-1.4 -0.8,-2.5 -0.8,-3.3 0,-0.3 0,-0.6 0.1,-0.9 0.1,-0.6 0.9,-1.6 3.3,-1.6 2.9,0 4,3.4 5.8,6 1.8,2.6 4.6,4.2 7.8,4.2 3.2,0 7.5,-2.3 9.3,-6 1.8,-3.7 4.1,-11.2 4.1,-13.9 0,-1.3 -0.8,-1.9 -1.7,-1.9 -0.7,0 -1.4,0.4 -1.8,1.4"
       id="path92" />
    <path
       class="TimeSig"
       transform="matrix(0.992001,0,0,0.992001,609.836,1440.2)"
       d="m 20.8,12.7 v 7.4 h -8.3 c -0.7,0 -1.4,0.6 -1.4,1.4 v 1.9 c 0,0.8 0.7,1.4 1.4,1.4 h 30.3 c 0.8,0 1.4,-0.6 1.4,-1.4 v -1.9 c 0,-0.8 -0.6,-1.4 -1.4,-1.4 h -8.9 v -7.4 h 8.9 c 0.8,0 1.4,-0.7 1.4,-1.5 V 9.3 C 44.2,8.6 43.6,7.9 42.8,7.9 H 33.9 V -8 c 0,-0.6 -0.3,-1.1 -0.8,-1.3 l -1.2,-0.6 c -0.2,-0.1 -0.5,-0.2 -0.7,-0.2 -0.3,0.1 -0.7,0.2 -0.9,0.4 l -9.1,8.3 c -0.3,0.3 -0.4,0.7 -0.4,1.1 V 7.9 H 9.3 c 0,0 11.1,-12 22.9,-27.8 0.4,-0.5 0.5,-1 0.5,-1.4 0,-0.5 -0.2,-0.9 -0.3,-1 l -2.2,-2.2 c -0.2,-0.2 -0.6,-0.4 -1,-0.4 -0.6,0 -14.1,0 -14.8,0 -0.8,0 -1.3,0.6 -1.4,1.2 0,0 -0.5,7.4 -3.1,15.5 -2.6,8.1 -5.6,13.1 -8.2,16.8 0,0 -0.3,0.5 -0.3,1.1 0,0.2 0,0.4 0.1,0.6 0.4,0.7 1,1.8 1,1.8 0,0 0.2,0.6 1.1,0.6 h 17.2"
       id="path93" />
    <path
       class="TimeSig"
       transform="matrix(0.992001,0,0,0.992001,610.13,1539.9)"
       d="m 24.7,-4.8 c -6.1,0 -8.3,1.8 -9.7,3.3 -0.3,-2.1 -0.5,-3.7 -0.5,-5.3 0,-5.7 2,-13.1 9,-13.1 2.5,0 4,0.8 5,1.9 -2.1,0.9 -3.8,3.6 -3.8,5.9 0,3.6 2.8,6.4 6.4,6.4 3.6,0 6.5,-2.8 6.5,-6.4 v -0.3 c 0,-0.9 -0.2,-2.4 -0.6,-3.2 -1.3,-3.6 -5.5,-8.9 -15.5,-8.9 -9,0 -15.5,8.6 -17.5,13.2 -1,2.4 -2.5,7.3 -2.5,12.9 0,6.1 1.7,13 7.6,18.2 5.8,4.4 9.5,4.6 13,4.6 3.5,0 16.6,-4.1 16.6,-15.7 0,-9.8 -7.7,-13.5 -14,-13.5 m -3.7,25 c -3.3,0 -6,-4.5 -6,-10.1 0,-5.6 2.7,-10.2 6,-10.2 3.3,0 6.1,4.6 6.1,10.2 0,5.6 -2.8,10.1 -6.1,10.1"
       id="path100" />
    <path
       class="TimeSig"
       transform="matrix(0.992001,0,0,0.992001,609.836,1588.75)"
       d="m 32.4,-1.8 c 3.3,-2.5 5.6,-5.7 5.6,-9.7 0,-7.2 -7.9,-13.1 -17.6,-13.1 -9.7,0 -17.6,5.9 -17.6,13.1 0,4 1,7.6 5.7,10.6 -4.5,2.6 -7,6.3 -7,11.1 0,8.1 8.5,14.6 18.9,14.6 10.4,0 18.9,-6.5 18.9,-14.6 0,-4.8 -1.7,-9.3 -6.9,-12 M 26.8,-4.5 C 20,-6.7 12.5,-10 12.5,-14.5 c 0,-3.9 3.6,-5.5 7.9,-5.5 6.2,0 10.4,2.9 10.4,7.5 0,4.8 -2.2,7.1 -4,8 M 20.4,19.2 C 14,19.2 8.5,15.7 8.5,10.1 c 0,-6.7 5.2,-8.3 5.2,-8.3 6.8,2.3 16.5,5.7 16.5,11.2 0,2.7 -3.4,6.2 -9.8,6.2"
       id="path101" />
    <path
       class="Beam"
       fill-rule="evenodd"
       d="m 969.404,1347.2 h 120.676 v 12.4 H 969.404 v -12.4"
       id="path131" />
    <path
       class="Beam"
       fill-rule="evenodd"
       d="m 733.015,1347.2 h 120.674 v 12.4 H 733.015 v -12.4"
       id="path132" />
    <path
       class="Beam"
       fill-rule="evenodd"
       d="M 939.659,1607.6 H 1099.73 V 1620 H 939.659 v -12.4"
       id="path133" />
    <path
       class="Beam"
       fill-rule="evenodd"
       d="M 703.27,1607.6 H 863.343 V 1620 H 703.27 v -12.4"
       id="path136" />
  </g>
  <path
     style="fill:none;fill-opacity:1;stroke:#808080;stroke-width:6;stroke-dasharray:6, 6;stroke-dashoffset:0;stroke-opacity:1;marker-start:url(#ArrowWide);marker-end:url(#marker64)"
     d="m 1736.853,657.07175 v 89.6448"
     id="path36" />
  <path
     style="fill:none;fill-opacity:1;stroke:#808080;stroke-width:6;stroke-dasharray:6, 6;stroke-dashoffset:0;stroke-opacity:1;marker-start:url(#ArrowWide);marker-end:url(#marker64)"
     d="m 1815.649,657.07185 v 89.6447"
     id="path65" />
  <path
     style="fill:none;fill-opacity:1;stroke:#808080;stroke-width:6;stroke-dasharray:6, 6;stroke-dashoffset:0;stroke-opacity:1;marker-start:url(#ArrowWide);marker-end:url(#marker64)"
     d="m 939.39002,657.07435 v 89.6447"
     id="path66-2" />
  <path
     style="fill:none;fill-opacity:1;stroke:#808080;stroke-width:6;stroke-dasharray:6, 6;stroke-dashoffset:0;stroke-opacity:1;marker-start:url(#ArrowWide);marker-end:url(#marker64)"
     d="m 1016.7718,657.07435 v 89.6447"
     id="path67-6" />
  <text
     xml:space="preserve"
     style="font-size:53.3333px;text-align:start;writing-mode:lr-tb;direction:ltr;text-anchor:start;display:inline;fill:none;stroke:#000000;stroke-width:0.999997;stroke-opacity:1"
     x="716.47314"
     y="591.37994"
     id="text80"
     transform="scale(0.98996727,1.0101344)"><tspan
       sodipodi:role="line"
       id="tspan80"
       style="font-style:normal;font-variant:normal;font-weight:normal;font-stretch:normal;font-size:53.3333px;font-family:Helvetica;-inkscape-font-specification:Helvetica;text-align:center;text-anchor:middle;fill:#000000;fill-opacity:1;stroke:none;stroke-width:0.999997"
       x="716.47314"
       y="591.37994">a)</tspan></text>
  <text
     xml:space="preserve"
     style="font-size:53.3333px;text-align:start;writing-mode:lr-tb;direction:ltr;text-anchor:start;display:inline;fill:none;stroke:#000000;stroke-width:0.999997;stroke-opacity:1"
     x="1521.5492"
     y="591.38245"
     id="text81"
     transform="scale(0.98996727,1.0101344)"><tspan
       sodipodi:role="line"
       id="tspan81"
       style="font-style:normal;font-variant:normal;font-weight:normal;font-stretch:normal;font-size:53.3333px;font-family:Helvetica;-inkscape-font-specification:Helvetica;text-align:center;text-anchor:middle;fill:#000000;fill-opacity:1;stroke:none;stroke-width:0.999997"
       x="1521.5492"
       y="591.38245">b)</tspan></text>
  <path
     style="fill:none;fill-opacity:1;stroke:#808080;stroke-width:6;stroke-dasharray:6, 6;stroke-dashoffset:0;stroke-opacity:1;marker-start:url(#ArrowWide);marker-end:url(#marker64)"
     d="m 1093.5068,657.07435 v 89.6447"
     id="path208" />
  <path
     style="fill:none;fill-opacity:1;stroke:#808080;stroke-width:6;stroke-dasharray:6, 6;stroke-dashoffset:0;stroke-opacity:1;marker-start:url(#ArrowWide);marker-end:url(#marker64)"
     d="m 1894.446,657.07185 v 89.6447"
     id="path209" />
</svg>
