<?xml version="1.0" encoding="UTF-8" standalone="no"?>
<svg
   width="2977.2px"
   height="4208.4px"
   viewBox="0 0 2977.2 4208.4"
   version="1.2"
   id="svg207"
   sodipodi:docname="pulseAlign_v2-1.svg"
   inkscape:version="1.4 (e7c3feb1, 2024-10-09)"
   xmlns:inkscape="http://www.inkscape.org/namespaces/inkscape"
   xmlns:sodipodi="http://sodipodi.sourceforge.net/DTD/sodipodi-0.dtd"
   xmlns="http://www.w3.org/2000/svg"
   xmlns:svg="http://www.w3.org/2000/svg">
  <defs
     id="defs207">
    <marker
       style="overflow:visible"
       id="ArrowWide"
       refX="0"
       refY="0"
       orient="auto-start-reverse"
       inkscape:stockid="Wide arrow"
       markerWidth="5"
       markerHeight="5"
       viewBox="0 0 1 1"
       inkscape:isstock="true"
       inkscape:collect="always"
       preserveAspectRatio="xMidYMid"
       markerUnits="userSpaceOnUse">
      <path
         style="fill:none;stroke:context-stroke;stroke-width:1;stroke-linecap:butt"
         d="M 3,-3 0,0 3,3"
         transform="rotate(180,0.125,0)"
         sodipodi:nodetypes="ccc"
         id="path1" />
    </marker>
    <marker
       style="overflow:visible"
       id="marker64"
       refX="0"
       refY="0"
       orient="auto-start-reverse"
       inkscape:stockid="Wide arrow"
       markerWidth="5"
       markerHeight="5"
       viewBox="0 0 1 1"
       inkscape:isstock="true"
       inkscape:collect="always"
       preserveAspectRatio="xMidYMid"
       markerUnits="userSpaceOnUse">
      <path
         style="fill:none;stroke:context-stroke;stroke-width:1;stroke-linecap:butt"
         d="M 3,-3 0,0 3,3"
         transform="rotate(180,0.125,0)"
         sodipodi:nodetypes="ccc"
         id="path64" />
    </marker>
  </defs>
  <sodipodi:namedview
     id="namedview207"
     pagecolor="#ffffff"
     bordercolor="#000000"
     borderopacity="0.25"
     inkscape:showpageshadow="2"
     inkscape:pageopacity="0.0"
     inkscape:pagecheckerboard="0"
     inkscape:deskcolor="#d1d1d1"
     inkscape:zoom="0.32743196"
     inkscape:cx="1566.7377"
     inkscape:cy="768.09851"
     inkscape:window-width="1512"
     inkscape:window-height="916"
     inkscape:window-x="0"
     inkscape:window-y="38"
     inkscape:window-maximized="1"
     inkscape:current-layer="svg207" />
  <title
     id="title1">pulseAlign_v2</title>
  <desc
     id="desc1">Generated by MuseScore Studio 4.4.4</desc>
  <path
     class="Text"
     d="M861.13,242.417 L842.1,243.627 L842.1,248.357 L846.06,248.357 C850.24,248.467 850.79,249.127 850.79,253.857 L850.79,307.647 C850.68,309.187 850.57,309.847 850.13,310.397 C849.36,311.387 847.27,311.827 842.54,311.937 L842.1,311.937 L842.1,315.897 L870.7,315.897 L870.7,311.937 L869.49,311.937 C862.12,311.717 861.13,311.167 861.13,307.207 L861.13,286.417 C864.76,292.797 868.83,295.327 875.65,295.327 C890.28,295.327 897.87,280.917 897.87,267.827 C897.87,255.397 890.28,240.767 876.31,240.767 C869.49,240.767 864.98,243.627 861.13,250.227 L861.13,242.417 M874.33,246.707 C881.92,246.707 886.32,254.297 886.32,267.167 C886.32,281.357 881.92,289.387 874,289.387 C866.08,289.387 861.02,281.247 861.02,268.597 C861.02,254.847 865.97,246.707 874.33,246.707 M947.465,294.447 L967.485,293.677 L967.485,288.947 L964.735,288.947 C958.355,288.727 957.805,288.067 957.805,280.917 L957.805,242.417 L937.125,243.627 L937.125,248.357 L942.735,248.357 C946.915,248.467 947.465,249.127 947.465,253.857 L947.465,267.387 C947.465,276.957 945.155,288.617 933.055,288.617 C929.645,288.617 926.785,287.407 925.355,285.207 C923.925,283.117 923.705,282.017 923.705,275.967 L923.705,242.417 L904.455,243.627 L904.455,248.357 L908.635,248.357 C912.815,248.467 913.365,249.127 913.365,253.857 L913.365,277.617 C913.365,283.227 913.805,285.757 915.455,288.287 C918.425,292.797 923.705,295.327 930.305,295.327 C937.565,295.327 942.625,292.357 947.465,285.317 L947.465,294.447 M991.788,212.607 L971.438,213.817 L971.438,218.547 L976.828,218.547 C980.898,218.657 981.448,219.317 981.448,224.047 L981.448,285.317 C981.338,286.967 981.228,287.627 980.788,288.177 C980.018,289.167 977.928,289.607 973.198,289.717 L972.428,289.717 L972.428,293.677 L1000.92,293.677 L1000.92,289.717 L1000.15,289.717 C992.778,289.497 991.788,288.947 991.788,284.987 L991.788,212.607 M1046.89,241.207 L1043.04,241.207 L1039.85,245.167 C1035.89,242.087 1031.93,240.767 1026.43,240.767 C1016.75,240.767 1010.37,247.037 1010.37,256.717 C1010.37,267.057 1017.08,269.697 1025.88,271.787 L1031.71,273.107 C1040.4,275.197 1043.48,277.397 1043.48,281.797 C1043.48,286.967 1038.97,290.597 1032.59,290.597 C1023.24,290.597 1016.64,284.657 1014,273.657 L1009.6,273.657 L1009.6,294.447 L1013.45,294.447 L1017.3,289.937 C1021.81,293.567 1026.76,295.327 1032.37,295.327 C1043.15,295.327 1050.3,288.617 1050.3,278.387 C1050.3,273.547 1048.76,269.807 1045.68,267.277 C1043.04,264.967 1040.84,264.087 1034.13,262.657 L1028.63,261.447 C1022.58,260.127 1022.58,260.127 1020.6,259.027 C1018.18,257.927 1016.75,255.617 1016.75,253.197 C1016.75,248.687 1020.93,245.607 1026.98,245.607 C1036,245.607 1040.4,251.987 1043.04,259.687 L1046.89,259.687 L1046.89,241.207 M1106.06,268.927 C1106.17,252.427 1096.82,240.767 1083.4,240.767 C1069.32,240.767 1058.76,252.977 1058.76,269.477 C1058.76,284.987 1068.77,295.327 1083.62,295.327 C1094.18,295.327 1101.55,290.157 1106.06,279.707 L1102.21,277.617 C1097.7,286.087 1093.08,289.387 1085.71,289.387 C1080.1,289.387 1076.03,287.077 1073.17,282.127 C1071.19,278.827 1070.31,274.977 1070.42,268.927 L1106.06,268.927 M1070.53,264.197 C1070.53,256.497 1074.05,245.497 1083.29,245.497 C1089.89,245.497 1094.29,251.327 1094.29,260.237 C1094.29,263.317 1093.3,264.197 1089.78,264.197 L1070.53,264.197 M1136.75,212.717 L1107.38,295.217 L1113.76,295.217 L1143.13,212.717 L1136.75,212.717 M1165.45,212.607 L1146.53,213.817 L1146.53,218.547 L1150.38,218.547 C1154.56,218.657 1155.11,219.317 1155.11,224.047 L1155.11,266.837 C1155.11,282.127 1154.45,290.487 1153.13,295.217 L1157.31,295.217 L1162.7,286.637 C1167.21,292.577 1172.38,295.327 1179.2,295.327 C1192.84,295.327 1202.85,283.667 1202.85,267.717 C1202.85,251.877 1193.61,240.767 1180.41,240.767 C1173.7,240.767 1169.63,243.077 1165.45,249.347 L1165.45,212.607 M1178.43,246.377 C1186.68,246.377 1191.3,254.407 1191.3,268.817 C1191.3,282.787 1186.79,290.597 1178.76,290.597 C1170.07,290.597 1164.9,282.567 1164.9,269.037 C1164.9,254.297 1169.63,246.377 1178.43,246.377 M1257.95,268.927 C1258.06,252.427 1248.71,240.767 1235.29,240.767 C1221.21,240.767 1210.65,252.977 1210.65,269.477 C1210.65,284.987 1220.66,295.327 1235.51,295.327 C1246.07,295.327 1253.44,290.157 1257.95,279.707 L1254.1,277.617 C1249.59,286.087 1244.97,289.387 1237.6,289.387 C1231.99,289.387 1227.92,287.077 1225.06,282.127 C1223.08,278.827 1222.2,274.977 1222.31,268.927 L1257.95,268.927 M1222.42,264.197 C1222.42,256.497 1225.94,245.497 1235.18,245.497 C1241.78,245.497 1246.18,251.327 1246.18,260.237 C1246.18,263.317 1245.19,264.197 1241.67,264.197 L1222.42,264.197 M1310.85,258.257 C1310.85,251.327 1309.64,247.807 1306.45,245.167 C1302.82,242.197 1297.43,240.767 1290.39,240.767 C1277.96,240.767 1268.94,246.597 1268.94,254.627 C1268.94,258.697 1271.47,261.337 1275.32,261.337 C1278.84,261.337 1281.26,259.027 1281.26,255.727 C1281.26,254.297 1280.71,252.757 1279.61,251.217 C1278.95,250.447 1278.84,250.227 1278.84,249.677 C1278.84,247.477 1283.24,245.497 1288.52,245.497 C1292.04,245.497 1295.89,246.597 1297.65,248.247 C1299.74,250.007 1300.51,252.647 1300.51,257.597 L1300.51,261.887 C1289.07,263.867 1285.44,264.747 1280.05,266.837 C1270.48,270.357 1265.97,275.417 1265.97,282.457 C1265.97,290.377 1272.13,295.327 1281.92,295.327 C1289.51,295.327 1296.33,292.247 1301.06,286.637 C1302.82,292.247 1305.57,294.447 1310.74,294.447 C1315.69,294.447 1320.86,291.257 1320.86,288.067 C1320.86,287.297 1320.42,286.747 1319.76,286.747 C1319.32,286.747 1318.88,286.857 1318.11,287.187 C1316.57,287.847 1315.91,287.957 1315.03,287.957 C1311.95,287.957 1310.85,285.977 1310.85,280.367 L1310.85,258.257 M1300.51,271.677 C1300.51,278.277 1300.18,279.817 1298.31,282.677 C1295.56,286.747 1290.61,289.497 1285.77,289.497 C1280.71,289.497 1277.08,285.867 1277.08,280.917 C1277.08,276.297 1279.39,272.997 1284.23,270.687 C1287.64,269.147 1291.93,268.047 1300.51,266.617 L1300.51,271.677 M1340.75,242.417 L1340.75,220.637 L1336.24,220.637 C1335.14,234.937 1330.3,242.197 1321.39,242.857 L1321.39,247.147 L1330.41,247.147 L1330.41,275.197 C1330.41,282.897 1330.63,285.647 1331.73,288.177 C1333.49,292.797 1337.89,295.327 1344.27,295.327 C1354.17,295.327 1360.55,287.847 1360.55,276.187 C1360.55,275.527 1360.55,274.757 1360.44,273.657 L1355.82,273.657 C1355.49,283.557 1352.63,288.617 1347.24,288.617 C1344.71,288.617 1342.51,287.297 1341.74,285.427 C1341.08,283.887 1340.75,281.137 1340.75,277.177 L1340.75,247.147 L1356.92,247.147 L1356.92,242.417 L1340.75,242.417 M1442.49,258.257 C1442.49,251.327 1441.28,247.807 1438.09,245.167 C1434.46,242.197 1429.07,240.767 1422.03,240.767 C1409.6,240.767 1400.58,246.597 1400.58,254.627 C1400.58,258.697 1403.11,261.337 1406.96,261.337 C1410.48,261.337 1412.9,259.027 1412.9,255.727 C1412.9,254.297 1412.35,252.757 1411.25,251.217 C1410.59,250.447 1410.48,250.227 1410.48,249.677 C1410.48,247.477 1414.88,245.497 1420.16,245.497 C1423.68,245.497 1427.53,246.597 1429.29,248.247 C1431.38,250.007 1432.15,252.647 1432.15,257.597 L1432.15,261.887 C1420.71,263.867 1417.08,264.747 1411.69,266.837 C1402.12,270.357 1397.61,275.417 1397.61,282.457 C1397.61,290.377 1403.77,295.327 1413.56,295.327 C1421.15,295.327 1427.97,292.247 1432.7,286.637 C1434.46,292.247 1437.21,294.447 1442.38,294.447 C1447.33,294.447 1452.5,291.257 1452.5,288.067 C1452.5,287.297 1452.06,286.747 1451.4,286.747 C1450.96,286.747 1450.52,286.857 1449.75,287.187 C1448.21,287.847 1447.55,287.957 1446.67,287.957 C1443.59,287.957 1442.49,285.977 1442.49,280.367 L1442.49,258.257 M1432.15,271.677 C1432.15,278.277 1431.82,279.817 1429.95,282.677 C1427.2,286.747 1422.25,289.497 1417.41,289.497 C1412.35,289.497 1408.72,285.867 1408.72,280.917 C1408.72,276.297 1411.03,272.997 1415.87,270.687 C1419.28,269.147 1423.57,268.047 1432.15,266.617 L1432.15,271.677 M1476.37,212.607 L1456.02,213.817 L1456.02,218.547 L1461.41,218.547 C1465.48,218.657 1466.03,219.317 1466.03,224.047 L1466.03,285.317 C1465.92,286.967 1465.81,287.627 1465.37,288.177 C1464.6,289.167 1462.51,289.607 1457.78,289.717 L1457.01,289.717 L1457.01,293.677 L1485.5,293.677 L1485.5,289.717 L1484.73,289.717 C1477.36,289.497 1476.37,288.947 1476.37,284.987 L1476.37,212.607 M1511.01,212.607 L1490.66,213.817 L1490.66,218.547 L1496.05,218.547 C1500.12,218.657 1500.67,219.317 1500.67,224.047 L1500.67,285.317 C1500.56,286.967 1500.45,287.627 1500.01,288.177 C1499.24,289.167 1497.15,289.607 1492.42,289.717 L1491.65,289.717 L1491.65,293.677 L1520.14,293.677 L1520.14,289.717 L1519.37,289.717 C1512,289.497 1511.01,288.947 1511.01,284.987 L1511.01,212.607 M1540.7,215.027 C1537.18,215.027 1534.32,217.887 1534.32,221.407 C1534.32,224.927 1537.18,227.787 1540.59,227.787 C1544.22,227.787 1547.08,224.927 1547.08,221.407 C1547.08,217.887 1544.22,215.027 1540.7,215.027 M1545.87,242.417 L1525.19,243.627 L1525.19,248.357 L1530.8,248.357 C1534.98,248.467 1535.53,249.127 1535.53,253.857 L1535.53,285.317 C1535.42,286.967 1535.31,287.627 1534.87,288.177 C1534.1,289.167 1532.01,289.607 1527.28,289.717 L1526.51,289.717 L1526.51,293.677 L1555,293.677 L1555,289.717 L1554.23,289.717 C1546.86,289.497 1545.87,288.947 1545.87,284.987 L1545.87,242.417 M1578.41,285.537 C1572.36,285.427 1572.03,285.317 1570.71,284.547 C1569.94,284.107 1569.39,282.897 1569.39,281.687 C1569.39,278.387 1572.36,276.957 1579.73,276.737 C1590.07,276.517 1591.72,276.297 1595.46,274.647 C1602.06,271.677 1605.69,265.957 1605.69,258.697 C1605.69,254.297 1604.7,251.547 1601.73,247.917 C1603.6,245.937 1604.59,245.277 1605.47,245.277 C1606.02,245.277 1606.35,245.607 1606.57,246.817 C1607.01,249.457 1608.77,250.887 1611.52,250.887 C1614.38,250.887 1616.47,248.577 1616.47,245.607 C1616.47,241.867 1613.5,239.227 1609.21,239.227 C1605.69,239.227 1603.71,240.327 1598.65,244.947 C1594.03,241.867 1590.51,240.767 1585.01,240.767 C1571.92,240.767 1563.34,248.027 1563.34,259.027 C1563.34,265.517 1566.86,271.017 1572.58,273.767 C1565.21,275.417 1562.13,278.717 1562.13,284.767 C1562.13,289.607 1564.33,292.467 1569.5,294.227 C1562.68,296.757 1559.38,300.167 1559.38,304.677 C1559.38,307.977 1561.58,311.057 1565.1,312.927 C1569.39,315.127 1574.67,316.007 1582.59,316.007 C1600.96,316.007 1610.09,310.177 1610.09,298.627 C1610.09,293.127 1607.56,288.727 1603.6,287.077 C1600.63,285.977 1597.11,285.537 1589.63,285.537 L1578.41,285.537 M1584.9,245.497 C1591.72,245.497 1595.57,250.227 1595.57,258.807 C1595.57,267.387 1591.39,272.557 1584.46,272.557 C1577.64,272.557 1573.35,267.387 1573.35,259.137 C1573.35,250.447 1577.53,245.497 1584.9,245.497 M1583.91,294.997 C1593.04,294.997 1593.7,294.997 1595.24,295.217 C1599.75,295.657 1602.39,298.077 1602.39,301.597 C1602.39,307.867 1595.24,311.497 1583.03,311.497 C1573.68,311.497 1568.51,308.747 1568.51,303.797 C1568.51,300.167 1570.49,297.747 1575.77,294.997 L1583.91,294.997 M1637.91,242.417 L1618.88,243.627 L1618.88,248.357 L1622.84,248.357 C1627.02,248.467 1627.57,249.127 1627.57,253.857 L1627.57,285.317 C1627.46,286.967 1627.35,287.627 1626.91,288.177 C1626.14,289.167 1624.05,289.607 1619.32,289.717 L1618.88,289.717 L1618.88,293.677 L1646.71,293.677 L1646.71,289.717 L1646.27,289.717 C1638.9,289.497 1637.91,288.947 1637.91,284.987 L1637.91,268.707 C1637.91,263.317 1638.68,258.367 1639.89,255.837 C1642.2,250.887 1647.15,247.477 1651.88,247.477 C1654.74,247.477 1658.04,249.017 1659.69,251.327 C1661.34,253.747 1662.11,257.047 1662.11,262.327 L1662.11,285.317 C1662,286.967 1661.89,287.627 1661.45,288.177 C1660.68,289.167 1658.48,289.607 1653.75,289.717 L1653.31,289.717 L1653.31,293.677 L1681.14,293.677 L1681.14,289.717 L1680.7,289.717 C1673.44,289.497 1672.45,288.947 1672.45,284.987 L1672.45,262.877 C1672.45,254.957 1672.12,252.977 1670.14,249.237 C1667.39,243.957 1661.89,240.767 1655.29,240.767 C1648.14,240.767 1642.75,244.067 1637.91,251.327 L1637.91,242.417 M1764.84,268.927 C1764.95,252.427 1755.6,240.767 1742.18,240.767 C1728.1,240.767 1717.54,252.977 1717.54,269.477 C1717.54,284.987 1727.55,295.327 1742.4,295.327 C1752.96,295.327 1760.33,290.157 1764.84,279.707 L1760.99,277.617 C1756.48,286.087 1751.86,289.387 1744.49,289.387 C1738.88,289.387 1734.81,287.077 1731.95,282.127 C1729.97,278.827 1729.09,274.977 1729.2,268.927 L1764.84,268.927 M1729.31,264.197 C1729.31,256.497 1732.83,245.497 1742.07,245.497 C1748.67,245.497 1753.07,251.327 1753.07,260.237 C1753.07,263.317 1752.08,264.197 1748.56,264.197 L1729.31,264.197 M1801.14,265.627 L1813.68,250.997 C1816.43,247.807 1818.96,246.377 1821.93,246.377 L1822.92,246.377 L1822.92,242.417 L1800.15,242.417 L1800.15,246.377 L1802.24,246.377 C1805.54,246.377 1807.19,247.147 1807.19,248.797 C1807.19,249.897 1806.42,251.437 1804.99,253.197 L1798.06,261.557 L1789.59,250.777 C1788.93,249.897 1788.49,249.017 1788.49,248.357 C1788.49,246.927 1789.92,246.377 1793.33,246.377 L1794.87,246.377 L1794.87,242.417 L1768.8,242.417 L1768.8,246.377 C1772.87,246.707 1774.41,247.697 1777.93,252.317 L1791.35,269.147 L1778.7,283.887 C1774.96,288.067 1771.77,289.827 1768.8,289.717 L1768.14,289.717 L1768.14,293.677 L1791.35,293.677 L1791.35,289.717 L1789.7,289.717 C1787.17,289.717 1786.62,289.607 1785.85,289.277 C1784.97,288.727 1784.31,287.737 1784.31,286.747 C1784.31,285.977 1784.64,284.987 1785.19,284.327 L1794.43,273.327 L1802.79,284.437 C1803.56,285.537 1804.22,286.967 1804.22,287.737 C1804.22,289.167 1802.57,289.717 1798.39,289.717 L1797.62,289.717 L1797.62,293.677 L1825.34,293.677 L1825.34,289.717 L1824.57,289.717 C1820.72,289.717 1818.19,288.287 1815,284.327 L1801.14,265.627 M1875.93,258.257 C1875.93,251.327 1874.72,247.807 1871.53,245.167 C1867.9,242.197 1862.51,240.767 1855.47,240.767 C1843.04,240.767 1834.02,246.597 1834.02,254.627 C1834.02,258.697 1836.55,261.337 1840.4,261.337 C1843.92,261.337 1846.34,259.027 1846.34,255.727 C1846.34,254.297 1845.79,252.757 1844.69,251.217 C1844.03,250.447 1843.92,250.227 1843.92,249.677 C1843.92,247.477 1848.32,245.497 1853.6,245.497 C1857.12,245.497 1860.97,246.597 1862.73,248.247 C1864.82,250.007 1865.59,252.647 1865.59,257.597 L1865.59,261.887 C1854.15,263.867 1850.52,264.747 1845.13,266.837 C1835.56,270.357 1831.05,275.417 1831.05,282.457 C1831.05,290.377 1837.21,295.327 1847,295.327 C1854.59,295.327 1861.41,292.247 1866.14,286.637 C1867.9,292.247 1870.65,294.447 1875.82,294.447 C1880.77,294.447 1885.94,291.257 1885.94,288.067 C1885.94,287.297 1885.5,286.747 1884.84,286.747 C1884.4,286.747 1883.96,286.857 1883.19,287.187 C1881.65,287.847 1880.99,287.957 1880.11,287.957 C1877.03,287.957 1875.93,285.977 1875.93,280.367 L1875.93,258.257 M1865.59,271.677 C1865.59,278.277 1865.26,279.817 1863.39,282.677 C1860.64,286.747 1855.69,289.497 1850.85,289.497 C1845.79,289.497 1842.16,285.867 1842.16,280.917 C1842.16,276.297 1844.47,272.997 1849.31,270.687 C1852.72,269.147 1857.01,268.047 1865.59,266.617 L1865.59,271.677 M1909.47,242.417 L1889.89,243.627 L1889.89,248.357 L1894.4,248.357 C1898.58,248.467 1899.13,249.127 1899.13,253.857 L1899.13,285.317 C1899.02,286.967 1898.91,287.627 1898.47,288.177 C1897.7,289.167 1895.61,289.607 1890.88,289.717 L1890.44,289.717 L1890.44,293.677 L1918.16,293.677 L1918.16,289.717 L1917.72,289.717 C1910.46,289.497 1909.47,288.947 1909.47,284.877 L1909.47,264.527 C1909.47,254.737 1914.86,247.477 1922.01,247.477 C1928.28,247.477 1931.47,251.987 1931.47,260.897 L1931.47,285.427 C1931.36,286.857 1931.25,287.627 1930.7,288.177 C1930.04,289.167 1927.84,289.607 1923.11,289.717 L1922.67,289.717 L1922.67,293.677 L1950.5,293.677 L1950.5,289.717 L1950.06,289.717 C1942.8,289.497 1941.81,288.947 1941.81,284.987 L1941.81,265.517 C1941.81,254.517 1946.76,247.477 1954.46,247.477 C1960.73,247.477 1963.81,252.207 1963.81,262.107 L1963.81,285.317 C1963.7,286.857 1963.59,287.627 1963.04,288.177 C1962.38,289.167 1960.18,289.607 1955.45,289.717 L1955.01,289.717 L1955.01,293.677 L1982.84,293.677 L1982.84,289.717 L1982.4,289.717 C1975.14,289.497 1974.15,288.947 1974.15,284.877 L1974.15,259.907 C1974.15,253.087 1973.49,250.777 1970.63,247.037 C1967.44,242.967 1962.93,240.767 1957.65,240.767 C1950.5,240.767 1945.22,244.177 1940.49,251.767 C1938.62,245.167 1932.68,240.767 1925.31,240.767 C1918.6,240.767 1913.76,243.957 1909.47,250.887 L1909.47,242.417 M2003.94,242.417 L1984.91,243.627 L1984.91,248.357 L1988.87,248.357 C1993.05,248.467 1993.6,249.127 1993.6,253.857 L1993.6,307.647 C1993.49,309.187 1993.38,309.847 1992.94,310.397 C1992.17,311.387 1990.08,311.827 1985.35,311.937 L1984.91,311.937 L1984.91,315.897 L2013.51,315.897 L2013.51,311.937 L2012.3,311.937 C2004.93,311.717 2003.94,311.167 2003.94,307.207 L2003.94,286.417 C2007.57,292.797 2011.64,295.327 2018.46,295.327 C2033.09,295.327 2040.68,280.917 2040.68,267.827 C2040.68,255.397 2033.09,240.767 2019.12,240.767 C2012.3,240.767 2007.79,243.627 2003.94,250.227 L2003.94,242.417 M2017.14,246.707 C2024.73,246.707 2029.13,254.297 2029.13,267.167 C2029.13,281.357 2024.73,289.387 2016.81,289.387 C2008.89,289.387 2003.83,281.247 2003.83,268.597 C2003.83,254.847 2008.78,246.707 2017.14,246.707 M2067.4,212.607 L2047.05,213.817 L2047.05,218.547 L2052.44,218.547 C2056.51,218.657 2057.06,219.317 2057.06,224.047 L2057.06,285.317 C2056.95,286.967 2056.84,287.627 2056.4,288.177 C2055.63,289.167 2053.54,289.607 2048.81,289.717 L2048.04,289.717 L2048.04,293.677 L2076.53,293.677 L2076.53,289.717 L2075.76,289.717 C2068.39,289.497 2067.4,288.947 2067.4,284.987 L2067.4,212.607 M2130.75,268.927 C2130.86,252.427 2121.51,240.767 2108.09,240.767 C2094.01,240.767 2083.45,252.977 2083.45,269.477 C2083.45,284.987 2093.46,295.327 2108.31,295.327 C2118.87,295.327 2126.24,290.157 2130.75,279.707 L2126.9,277.617 C2122.39,286.087 2117.77,289.387 2110.4,289.387 C2104.79,289.387 2100.72,287.077 2097.86,282.127 C2095.88,278.827 2095,274.977 2095.11,268.927 L2130.75,268.927 M2095.22,264.197 C2095.22,256.497 2098.74,245.497 2107.98,245.497 C2114.58,245.497 2118.98,251.327 2118.98,260.237 C2118.98,263.317 2117.99,264.197 2114.47,264.197 L2095.22,264.197 "
     id="path10" />
  <g
     id="g207"
     inkscape:export-filename="pulseAlign_v2.pdf"
     inkscape:export-xdpi="96"
     inkscape:export-ydpi="96">
    <polyline
       class="StaffLines"
       fill="none"
       stroke="#000000"
       stroke-width="4.82029"
       stroke-linejoin="bevel"
       points="528.445,634.198 2764.6,634.198"
       id="polyline1"
       transform="matrix(0.32075818,0,0,1,358.94195,0)" />
    <polyline
       class="StaffLines"
       fill="none"
       stroke="#000000"
       stroke-width="4.82029"
       stroke-linejoin="bevel"
       points="528.445,782.998 2764.6,782.998"
       id="polyline2"
       transform="matrix(0.32075818,0,0,1,358.94195,0)" />
    <polyline
       class="BarLine"
       fill="none"
       stroke="#000000"
       stroke-width="4.46"
       stroke-linejoin="bevel"
       points="1323.48,583.234 1323.48,782.998"
       id="polyline20"
       transform="translate(-80)" />
    <polyline
       class="BarLine"
       fill="none"
       stroke="#000000"
       stroke-width="4.46"
       stroke-linejoin="bevel"
       points="530.677,583.234 530.677,782.998"
       id="polyline50" />
    <polyline
       class="BarLine"
       fill="none"
       stroke="#000000"
       stroke-width="4.46"
       stroke-linejoin="bevel"
       points="530.677,732.034 530.677,833.962"
       id="polyline59" />
    <polyline
       class="BarLine"
       fill="none"
       stroke="#000000"
       stroke-width="4.46"
       stroke-linejoin="bevel"
       points="1323.48,732.034 1323.48,833.962"
       id="polyline89"
       transform="translate(-80)" />
    <polyline
       class="Stem"
       fill="none"
       stroke="#000000"
       stroke-width="2.48"
       stroke-linejoin="bevel"
       points="679.4,630.23 679.4,572.198"
       id="polyline91" />
    <polyline
       class="Stem"
       fill="none"
       stroke="#000000"
       stroke-width="2.48"
       stroke-linejoin="bevel"
       points="1127.96,630.23 1127.96,572.198"
       id="polyline92" />
    <polyline
       class="Stem"
       fill="none"
       stroke="#000000"
       stroke-width="2.48"
       stroke-linejoin="bevel"
       points="1038.25,630.23 1038.25,572.198"
       id="polyline94" />
    <polyline
       class="Stem"
       fill="none"
       stroke="#000000"
       stroke-width="2.48"
       stroke-linejoin="bevel"
       points="769.111,630.23 769.111,572.198"
       id="polyline95" />
    <polyline
       class="Stem"
       fill="none"
       stroke="#000000"
       stroke-width="2.48"
       stroke-linejoin="bevel"
       points="858.823,630.23 858.823,572.198"
       id="polyline97" />
    <polyline
       class="Stem"
       fill="none"
       stroke="#000000"
       stroke-width="2.48"
       stroke-linejoin="bevel"
       points="948.534,630.23 948.534,572.198"
       id="polyline99" />
    <polyline
       class="Stem"
       fill="none"
       stroke="#000000"
       stroke-width="2.48"
       stroke-linejoin="bevel"
       points="829.078,774.765 829.078,832.598"
       id="polyline100" />
    <polyline
       class="Stem"
       fill="none"
       stroke="#000000"
       stroke-width="2.48"
       stroke-linejoin="bevel"
       points="1098.21,774.765 1098.21,832.598"
       id="polyline101" />
    <polyline
       class="Stem"
       fill="none"
       stroke="#000000"
       stroke-width="2.48"
       stroke-linejoin="bevel"
       points="649.655,774.765 649.655,832.598"
       id="polyline102" />
    <polyline
       class="Stem"
       fill="none"
       stroke="#000000"
       stroke-width="2.48"
       stroke-linejoin="bevel"
       points="1008.5,774.765 1008.5,832.598"
       id="polyline103" />
    <polyline
       class="Stem"
       fill="none"
       stroke="#000000"
       stroke-width="2.48"
       stroke-linejoin="bevel"
       points="739.367,774.765 739.367,832.598"
       id="polyline106" />
    <polyline
       class="Stem"
       fill="none"
       stroke="#000000"
       stroke-width="2.48"
       stroke-linejoin="bevel"
       points="918.79,774.765 918.79,832.598"
       id="polyline108" />
    <path
       class="Note"
       transform="matrix(0.992,0,0,0.992,1096.97,634.198)"
       d="M0,4.2 C0,8.5 3.1,13.3 11.2,13.3 C21.6,13.3 32.5,4.8 32.5,-4 C32.5,-9.9 27.5,-13.2 21.3,-13.2 C11.6,-13.2 0,-5 0,4.2"
       id="path111" />
    <path
       class="Note"
       transform="matrix(0.992,0,0,0.992,738.127,634.198)"
       d="M0,4.2 C0,8.5 3.1,13.3 11.2,13.3 C21.6,13.3 32.5,4.8 32.5,-4 C32.5,-9.9 27.5,-13.2 21.3,-13.2 C11.6,-13.2 0,-5 0,4.2"
       id="path112" />
    <path
       class="Note"
       transform="matrix(0.992,0,0,0.992,648.415,634.198)"
       d="M0,4.2 C0,8.5 3.1,13.3 11.2,13.3 C21.6,13.3 32.5,4.8 32.5,-4 C32.5,-9.9 27.5,-13.2 21.3,-13.2 C11.6,-13.2 0,-5 0,4.2"
       id="path114" />
    <path
       class="Note"
       transform="matrix(0.992,0,0,0.992,827.838,634.198)"
       d="M0,4.2 C0,8.5 3.1,13.3 11.2,13.3 C21.6,13.3 32.5,4.8 32.5,-4 C32.5,-9.9 27.5,-13.2 21.3,-13.2 C11.6,-13.2 0,-5 0,4.2"
       id="path116" />
    <path
       class="Note"
       transform="matrix(0.992,0,0,0.992,1007.26,634.198)"
       d="M0,4.2 C0,8.5 3.1,13.3 11.2,13.3 C21.6,13.3 32.5,4.8 32.5,-4 C32.5,-9.9 27.5,-13.2 21.3,-13.2 C11.6,-13.2 0,-5 0,4.2"
       id="path117" />
    <path
       class="Note"
       transform="matrix(0.992,0,0,0.992,917.55,634.198)"
       d="M0,4.2 C0,8.5 3.1,13.3 11.2,13.3 C21.6,13.3 32.5,4.8 32.5,-4 C32.5,-9.9 27.5,-13.2 21.3,-13.2 C11.6,-13.2 0,-5 0,4.2"
       id="path118" />
    <path
       class="Note"
       transform="matrix(0.992,0,0,0.992,738.127,770.598)"
       d="M0,4.2 C0,8.5 3.1,13.3 11.2,13.3 C21.6,13.3 32.5,4.8 32.5,-4 C32.5,-9.9 27.5,-13.2 21.3,-13.2 C11.6,-13.2 0,-5 0,4.2"
       id="path123" />
    <path
       class="Note"
       transform="matrix(0.992,0,0,0.992,917.55,770.598)"
       d="M0,4.2 C0,8.5 3.1,13.3 11.2,13.3 C21.6,13.3 32.5,4.8 32.5,-4 C32.5,-9.9 27.5,-13.2 21.3,-13.2 C11.6,-13.2 0,-5 0,4.2"
       id="path125" />
    <path
       class="Note"
       transform="matrix(0.992,0,0,0.992,648.415,770.598)"
       d="M0,4.2 C0,8.5 3.1,13.3 11.2,13.3 C21.6,13.3 32.5,4.8 32.5,-4 C32.5,-9.9 27.5,-13.2 21.3,-13.2 C11.6,-13.2 0,-5 0,4.2"
       id="path127" />
    <path
       class="Note"
       transform="matrix(0.992,0,0,0.992,1007.26,770.598)"
       d="M0,4.2 C0,8.5 3.1,13.3 11.2,13.3 C21.6,13.3 32.5,4.8 32.5,-4 C32.5,-9.9 27.5,-13.2 21.3,-13.2 C11.6,-13.2 0,-5 0,4.2"
       id="path128" />
    <path
       class="Note"
       transform="matrix(0.992,0,0,0.992,827.838,770.598)"
       d="M0,4.2 C0,8.5 3.1,13.3 11.2,13.3 C21.6,13.3 32.5,4.8 32.5,-4 C32.5,-9.9 27.5,-13.2 21.3,-13.2 C11.6,-13.2 0,-5 0,4.2"
       id="path130" />
    <path
       class="Note"
       transform="matrix(0.992,0,0,0.992,1096.97,770.598)"
       d="M0,4.2 C0,8.5 3.1,13.3 11.2,13.3 C21.6,13.3 32.5,4.8 32.5,-4 C32.5,-9.9 27.5,-13.2 21.3,-13.2 C11.6,-13.2 0,-5 0,4.2"
       id="path132" />
    <path
       class="Clef"
       transform="matrix(0.992,0,0,0.992,551.509,634.198)"
       d="M1.3,-25.2 C0.6,-25.2 0,-24.6 0,-23.9 L0,23.9 C0,24.6 0.6,25.2 1.3,25.2 L12.3,25.2 C13,25.2 13.6,24.6 13.6,23.9 L13.6,-23.9 C13.6,-24.6 13,-25.2 12.3,-25.2 L1.3,-25.2 M22.9,-25.2 C22.2,-25.2 21.6,-24.6 21.6,-23.9 L21.6,23.9 C21.6,24.6 22.2,25.2 22.9,25.2 L33.9,25.2 C34.6,25.2 35.2,24.6 35.2,23.9 L35.2,-23.9 C35.2,-24.6 34.6,-25.2 33.9,-25.2 L22.9,-25.2 "
       id="path136" />
    <path
       class="Clef"
       transform="matrix(0.992,0,0,0.992,551.509,782.998)"
       d="M1.3,-25.2 C0.6,-25.2 0,-24.6 0,-23.9 L0,23.9 C0,24.6 0.6,25.2 1.3,25.2 L12.3,25.2 C13,25.2 13.6,24.6 13.6,23.9 L13.6,-23.9 C13.6,-24.6 13,-25.2 12.3,-25.2 L1.3,-25.2 M22.9,-25.2 C22.2,-25.2 21.6,-24.6 21.6,-23.9 L21.6,23.9 C21.6,24.6 22.2,25.2 22.9,25.2 L33.9,25.2 C34.6,25.2 35.2,24.6 35.2,23.9 L35.2,-23.9 C35.2,-24.6 34.6,-25.2 33.9,-25.2 L22.9,-25.2 "
       id="path140" />
    <path
       class="Beam"
       fill-rule="evenodd"
       d="M678.16,565.998 L770.351,565.998 L770.351,578.398 L678.16,578.398 L678.16,565.998 "
       id="path197" />
    <path
       class="Beam"
       fill-rule="evenodd"
       d="M1037.01,565.998 L1129.2,565.998 L1129.2,578.398 L1037.01,578.398 L1037.01,565.998 "
       id="path199" />
    <path
       class="Beam"
       fill-rule="evenodd"
       d="M857.583,565.998 L949.774,565.998 L949.774,578.398 L857.583,578.398 L857.583,565.998 "
       id="path201" />
    <path
       class="Beam"
       fill-rule="evenodd"
       d="M917.55,826.398 L1099.45,826.398 L1099.45,838.798 L917.55,838.798 L917.55,826.398 "
       id="path204" />
    <path
       class="Beam"
       fill-rule="evenodd"
       d="M648.415,826.398 L830.318,826.398 L830.318,838.798 L648.415,838.798 L648.415,826.398 "
       id="path205" />
  </g>
  <g
     id="g208"
     transform="translate(896.74181,-761.622)">
    <polyline
       class="StaffLines"
       fill="none"
       stroke="#000000"
       stroke-width="5.0781"
       stroke-linejoin="bevel"
       points="528.445,1395.82 2764.6,1395.82"
       id="polyline3"
       transform="matrix(0.28901619,0,0,1,375.71584,0)" />
    <polyline
       class="StaffLines"
       fill="none"
       stroke="#000000"
       stroke-width="5.0781"
       stroke-linejoin="bevel"
       points="528.445,1544.62 2764.6,1544.62"
       id="polyline4"
       transform="matrix(0.28901619,0,0,1,375.71584,0)" />
    <polyline
       class="BarLine"
       fill="none"
       stroke="#000000"
       stroke-width="4.46"
       stroke-linejoin="bevel"
       points="530.677,1344.86 530.677,1544.62"
       id="polyline25" />
    <polyline
       class="BarLine"
       fill="none"
       stroke="#000000"
       stroke-width="4.46"
       stroke-linejoin="bevel"
       points="1292.5,1344.86 1292.5,1544.62"
       id="polyline37"
       transform="translate(-120)" />
    <polyline
       class="BarLine"
       fill="none"
       stroke="#000000"
       stroke-width="4.46"
       stroke-linejoin="bevel"
       points="1292.5,1493.66 1292.5,1595.58"
       id="polyline74"
       transform="translate(-120)" />
    <polyline
       class="BarLine"
       fill="none"
       stroke="#000000"
       stroke-width="4.46"
       stroke-linejoin="bevel"
       points="530.677,1493.66 530.677,1595.58"
       id="polyline87" />
    <polyline
       class="Stem"
       fill="none"
       stroke="#000000"
       stroke-width="2.48"
       stroke-linejoin="bevel"
       points="896.92,1391.85 896.92,1333.82"
       id="polyline90" />
    <polyline
       class="Stem"
       fill="none"
       stroke="#000000"
       stroke-width="2.48"
       stroke-linejoin="bevel"
       points="679.4,1391.85 679.4,1333.82"
       id="polyline93" />
    <polyline
       class="Stem"
       fill="none"
       stroke="#000000"
       stroke-width="2.48"
       stroke-linejoin="bevel"
       points="788.16,1391.85 788.16,1333.82"
       id="polyline96" />
    <polyline
       class="Stem"
       fill="none"
       stroke="#000000"
       stroke-width="2.48"
       stroke-linejoin="bevel"
       points="1005.68,1391.85 1005.68,1333.82"
       id="polyline98" />
    <polyline
       class="Stem"
       fill="none"
       stroke="#000000"
       stroke-width="2.48"
       stroke-linejoin="bevel"
       points="649.655,1536.39 649.655,1594.22"
       id="polyline104" />
    <polyline
       class="Stem"
       fill="none"
       stroke="#000000"
       stroke-width="2.48"
       stroke-linejoin="bevel"
       points="722.162,1536.39 722.162,1594.22"
       id="polyline105" />
    <polyline
       class="Stem"
       fill="none"
       stroke="#000000"
       stroke-width="2.48"
       stroke-linejoin="bevel"
       points="1012.19,1536.39 1012.19,1594.22"
       id="polyline107" />
    <polyline
       class="Stem"
       fill="none"
       stroke="#000000"
       stroke-width="2.48"
       stroke-linejoin="bevel"
       points="794.669,1536.39 794.669,1594.22"
       id="polyline109" />
    <polyline
       class="Stem"
       fill="none"
       stroke="#000000"
       stroke-width="2.48"
       stroke-linejoin="bevel"
       points="867.176,1536.39 867.176,1594.22"
       id="polyline110" />
    <polyline
       class="Stem"
       fill="none"
       stroke="#000000"
       stroke-width="2.48"
       stroke-linejoin="bevel"
       points="939.683,1536.39 939.683,1594.22"
       id="polyline111" />
    <path
       class="Note"
       transform="matrix(0.992,0,0,0.992,865.936,1395.82)"
       d="m 0,4.2 c 0,4.3 3.1,9.1 11.2,9.1 10.4,0 21.3,-8.5 21.3,-17.3 0,-5.9 -5,-9.2 -11.2,-9.2 C 11.6,-13.2 0,-5 0,4.2"
       id="path113" />
    <path
       class="Note"
       transform="matrix(0.992,0,0,0.992,648.415,1395.82)"
       d="m 0,4.2 c 0,4.3 3.1,9.1 11.2,9.1 10.4,0 21.3,-8.5 21.3,-17.3 0,-5.9 -5,-9.2 -11.2,-9.2 C 11.6,-13.2 0,-5 0,4.2"
       id="path115" />
    <path
       class="Note"
       transform="matrix(0.992,0,0,0.992,757.176,1395.82)"
       d="m 0,4.2 c 0,4.3 3.1,9.1 11.2,9.1 10.4,0 21.3,-8.5 21.3,-17.3 0,-5.9 -5,-9.2 -11.2,-9.2 C 11.6,-13.2 0,-5 0,4.2"
       id="path119" />
    <path
       class="Note"
       transform="matrix(0.992,0,0,0.992,974.696,1395.82)"
       d="m 0,4.2 c 0,4.3 3.1,9.1 11.2,9.1 10.4,0 21.3,-8.5 21.3,-17.3 0,-5.9 -5,-9.2 -11.2,-9.2 C 11.6,-13.2 0,-5 0,4.2"
       id="path120" />
    <path
       class="Note"
       transform="matrix(0.992,0,0,0.992,938.443,1532.22)"
       d="m 0,4.2 c 0,4.3 3.1,9.1 11.2,9.1 10.4,0 21.3,-8.5 21.3,-17.3 0,-5.9 -5,-9.2 -11.2,-9.2 C 11.6,-13.2 0,-5 0,4.2"
       id="path121" />
    <path
       class="Note"
       transform="matrix(0.992,0,0,0.992,1010.95,1532.22)"
       d="m 0,4.2 c 0,4.3 3.1,9.1 11.2,9.1 10.4,0 21.3,-8.5 21.3,-17.3 0,-5.9 -5,-9.2 -11.2,-9.2 C 11.6,-13.2 0,-5 0,4.2"
       id="path122" />
    <path
       class="Note"
       transform="matrix(0.992,0,0,0.992,720.922,1532.22)"
       d="m 0,4.2 c 0,4.3 3.1,9.1 11.2,9.1 10.4,0 21.3,-8.5 21.3,-17.3 0,-5.9 -5,-9.2 -11.2,-9.2 C 11.6,-13.2 0,-5 0,4.2"
       id="path124" />
    <path
       class="Note"
       transform="matrix(0.992,0,0,0.992,648.415,1532.22)"
       d="m 0,4.2 c 0,4.3 3.1,9.1 11.2,9.1 10.4,0 21.3,-8.5 21.3,-17.3 0,-5.9 -5,-9.2 -11.2,-9.2 C 11.6,-13.2 0,-5 0,4.2"
       id="path126" />
    <path
       class="Note"
       transform="matrix(0.992,0,0,0.992,865.936,1532.22)"
       d="m 0,4.2 c 0,4.3 3.1,9.1 11.2,9.1 10.4,0 21.3,-8.5 21.3,-17.3 0,-5.9 -5,-9.2 -11.2,-9.2 C 11.6,-13.2 0,-5 0,4.2"
       id="path129" />
    <path
       class="Note"
       transform="matrix(0.992,0,0,0.992,793.429,1532.22)"
       d="m 0,4.2 c 0,4.3 3.1,9.1 11.2,9.1 10.4,0 21.3,-8.5 21.3,-17.3 0,-5.9 -5,-9.2 -11.2,-9.2 C 11.6,-13.2 0,-5 0,4.2"
       id="path131" />
    <path
       class="Clef"
       transform="matrix(0.992,0,0,0.992,551.509,1395.82)"
       d="m 1.3,-25.2 c -0.7,0 -1.3,0.6 -1.3,1.3 v 47.8 c 0,0.7 0.6,1.3 1.3,1.3 h 11 c 0.7,0 1.3,-0.6 1.3,-1.3 v -47.8 c 0,-0.7 -0.6,-1.3 -1.3,-1.3 h -11 m 21.6,0 c -0.7,0 -1.3,0.6 -1.3,1.3 v 47.8 c 0,0.7 0.6,1.3 1.3,1.3 h 11 c 0.7,0 1.3,-0.6 1.3,-1.3 v -47.8 c 0,-0.7 -0.6,-1.3 -1.3,-1.3 h -11"
       id="path135" />
    <path
       class="Clef"
       transform="matrix(0.992,0,0,0.992,551.509,1544.62)"
       d="m 1.3,-25.2 c -0.7,0 -1.3,0.6 -1.3,1.3 v 47.8 c 0,0.7 0.6,1.3 1.3,1.3 h 11 c 0.7,0 1.3,-0.6 1.3,-1.3 v -47.8 c 0,-0.7 -0.6,-1.3 -1.3,-1.3 h -11 m 21.6,0 c -0.7,0 -1.3,0.6 -1.3,1.3 v 47.8 c 0,0.7 0.6,1.3 1.3,1.3 h 11 c 0.7,0 1.3,-0.6 1.3,-1.3 v -47.8 c 0,-0.7 -0.6,-1.3 -1.3,-1.3 h -11"
       id="path139" />
    <path
       class="Beam"
       fill-rule="evenodd"
       d="M 678.16,1327.62 H 789.4 v 12.4 H 678.16 v -12.4"
       id="path198" />
    <path
       class="Beam"
       fill-rule="evenodd"
       d="m 895.68,1327.62 h 111.24 v 12.4 H 895.68 v -12.4"
       id="path200" />
    <path
       class="Beam"
       fill-rule="evenodd"
       d="m 865.936,1588.02 h 147.494 v 12.4 H 865.936 v -12.4"
       id="path202" />
    <path
       class="Beam"
       fill-rule="evenodd"
       d="m 648.415,1588.02 h 147.494 v 12.4 H 648.415 v -12.4"
       id="path203" />
    <path
       class="Tuplet"
       d="m 724.878,1630.54 c 2.115,-0.68 2.97,-1.04 4.05,-1.76 2.115,-1.39 3.42,-3.87 3.42,-6.39 0,-4.27 -3.42,-7.15 -8.46,-7.15 -4.905,0 -9.045,3.06 -9.045,6.75 0,1.84 1.125,3.1 2.835,3.1 1.485,0 2.565,-1.08 2.565,-2.56 0,-0.77 -0.225,-1.31 -0.945,-2.03 -0.45,-0.4 -0.63,-0.72 -0.63,-1.03 0,-1.08 2.25,-2.21 4.365,-2.21 3.015,0 4.815,1.67 4.815,4.46 0,4 -2.835,7.78 -5.85,7.78 -0.135,0 -0.54,-0.04 -1.035,-0.09 -1.305,-0.09 -1.305,-0.09 -1.575,-0.09 -0.99,0 -1.53,0.45 -1.53,1.26 0,0.72 0.495,1.17 1.305,1.17 0.225,0 0.54,-0.04 0.9,-0.09 0.63,-0.13 1.305,-0.18 1.71,-0.18 2.115,0 3.555,1.89 3.555,4.68 0,4.86 -2.385,9.54 -7.83,9.54 -2.52,0 -4.68,-1.26 -4.68,-2.7 0,-0.49 0.18,-0.67 0.9,-0.99 1.305,-0.58 1.845,-1.39 1.845,-2.61 0,-1.57 -1.26,-2.79 -2.88,-2.79 -1.935,0 -3.195,1.53 -3.195,3.87 0,4.37 3.33,7.11 8.73,7.11 6.795,0 11.97,-4.54 11.97,-10.57 0,-3.51 -2.16,-5.49 -5.31,-6.48"
       id="path206" />
    <path
       class="Tuplet"
       d="m 942.399,1630.54 c 2.115,-0.68 2.97,-1.04 4.05,-1.76 2.115,-1.39 3.42,-3.87 3.42,-6.39 0,-4.27 -3.42,-7.15 -8.46,-7.15 -4.905,0 -9.045,3.06 -9.045,6.75 0,1.84 1.125,3.1 2.835,3.1 1.485,0 2.565,-1.08 2.565,-2.56 0,-0.77 -0.225,-1.31 -0.945,-2.03 -0.45,-0.4 -0.63,-0.72 -0.63,-1.03 0,-1.08 2.25,-2.21 4.365,-2.21 3.015,0 4.815,1.67 4.815,4.46 0,4 -2.835,7.78 -5.85,7.78 -0.135,0 -0.54,-0.04 -1.035,-0.09 -1.305,-0.09 -1.305,-0.09 -1.575,-0.09 -0.99,0 -1.53,0.45 -1.53,1.26 0,0.72 0.495,1.17 1.305,1.17 0.225,0 0.54,-0.04 0.9,-0.09 0.63,-0.13 1.305,-0.18 1.71,-0.18 2.115,0 3.555,1.89 3.555,4.68 0,4.86 -2.385,9.54 -7.83,9.54 -2.52,0 -4.68,-1.26 -4.68,-2.7 0,-0.49 0.18,-0.67 0.9,-0.99 1.305,-0.58 1.845,-1.39 1.845,-2.61 0,-1.57 -1.26,-2.79 -2.88,-2.79 -1.935,0 -3.195,1.53 -3.195,3.87 0,4.37 3.33,7.11 8.73,7.11 6.795,0 11.97,-4.54 11.97,-10.57 0,-3.51 -2.16,-5.49 -5.31,-6.48"
       id="path207" />
  </g>
  <path
     style="fill:none;fill-opacity:1;stroke:#808080;stroke-width:7;stroke-dasharray:7,7;stroke-dashoffset:0;stroke-opacity:1;marker-start:url(#ArrowWide);marker-end:url(#marker64)"
     d="m 1561.2768,658.11621 v 89.64475"
     id="path36" />
  <path
     style="fill:none;fill-opacity:1;stroke:#808080;stroke-width:7;stroke-dasharray:7,7;stroke-dashoffset:0;stroke-opacity:1;marker-start:url(#ArrowWide);marker-end:url(#marker64)"
     d="m 1633.7838,658.11631 v 89.64465"
     id="path65" />
  <path
     style="fill:none;fill-opacity:1;stroke:#808080;stroke-width:7;stroke-dasharray:7,7;stroke-dashoffset:0;stroke-opacity:1;marker-start:url(#ArrowWide);marker-end:url(#marker64)"
     d="m 664.535,658.11632 v 89.64464"
     id="path66" />
  <path
     style="fill:none;fill-opacity:1;stroke:#808080;stroke-width:7;stroke-dasharray:7,7;stroke-dashoffset:0;stroke-opacity:1;marker-start:url(#ArrowWide);marker-end:url(#marker64)"
     d="m 754.247,658.11632 v 89.64464"
     id="path67" />
  <text
     xml:space="preserve"
     style="font-size:53.3333px;text-align:start;writing-mode:lr-tb;direction:ltr;text-anchor:start;display:inline;fill:none;stroke:#000000;stroke-width:0.999997;stroke-opacity:1"
     x="489.74042"
     y="584.44012"
     id="text80"
     transform="scale(0.98996727,1.0101344)"><tspan
       sodipodi:role="line"
       id="tspan80"
       style="font-style:normal;font-variant:normal;font-weight:normal;font-stretch:normal;font-size:53.3333px;font-family:Helvetica;-inkscape-font-specification:Helvetica;text-align:center;text-anchor:middle;fill:#000000;fill-opacity:1;stroke:none;stroke-width:0.999997"
       x="489.74042"
       y="584.44012">a)</tspan></text>
  <text
     xml:space="preserve"
     style="font-size:53.3333px;text-align:start;writing-mode:lr-tb;direction:ltr;text-anchor:start;display:inline;fill:none;stroke:#000000;stroke-width:0.999997;stroke-opacity:1"
     x="1395.5702"
     y="584.44415"
     id="text81"
     transform="scale(0.98996727,1.0101344)"><tspan
       sodipodi:role="line"
       id="tspan81"
       style="font-style:normal;font-variant:normal;font-weight:normal;font-stretch:normal;font-size:53.3333px;font-family:Helvetica;-inkscape-font-specification:Helvetica;text-align:center;text-anchor:middle;fill:#000000;fill-opacity:1;stroke:none;stroke-width:0.999997"
       x="1395.5702"
       y="584.44415">b)</tspan></text>
  <path
     style="fill:none;fill-opacity:1;stroke:#808080;stroke-width:7;stroke-dasharray:7,7;stroke-dashoffset:0;stroke-opacity:1;marker-start:url(#ArrowWide);marker-end:url(#marker64)"
     d="m 843.958,658.11632 v 89.64464"
     id="path208" />
  <path
     style="fill:none;fill-opacity:1;stroke:#808080;stroke-width:7;stroke-dasharray:7,7;stroke-dashoffset:0;stroke-opacity:1;marker-start:url(#ArrowWide);marker-end:url(#marker64)"
     d="m 1706.2908,658.11631 v 89.64465"
     id="path209" />
</svg>
